Besley-CondensedBlack.ufo
<glyph name="quotesingle" format="2">
  <advance width="500"/>
  <unicode hex="0027"/>
  <outline>
    <contour>
      <point x="468" y="1308" type="curve" smooth="yes"/>
      <point x="447" y="1184"/>
      <point x="338" y="1107"/>
      <point x="327" y="945" type="curve" smooth="yes"/>
      <point x="325" y="918"/>
      <point x="325" y="916"/>
      <point x="297" y="916" type="curve" smooth="yes"/>
      <point x="199" y="916" type="line" smooth="yes"/>
      <point x="172" y="916"/>
      <point x="170" y="932"/>
      <point x="168" y="954" type="curve" smooth="yes"/>
      <point x="153" y="1108"/>
      <point x="52" y="1188"/>
      <point x="32" y="1308" type="curve" smooth="yes"/>
      <point x="30" y="1322"/>
      <point x="30" y="1332"/>
      <point x="30" y="1344" type="curve" smooth="yes"/>
      <point x="30" y="1452"/>
      <point x="122" y="1536"/>
      <point x="250" y="1536" type="curve" smooth="yes"/>
      <point x="378" y="1536"/>
      <point x="470" y="1452"/>
      <point x="470" y="1344" type="curve" smooth="yes"/>
      <point x="470" y="1332"/>
      <point x="470" y="1322"/>
    </contour>
  </outline>
</glyph>
<glyph name="asterisk" format="2">
  <advance height="2310" width="1270"/>
  <unicode hex="002A"/>
  <outline>
    <contour>
      <point x="106" y="725" type="curve" smooth="yes"/>
      <point x="47" y="827"/>
      <point x="52" y="925"/>
      <point x="146" y="979" type="curve" smooth="yes"/>
      <point x="253" y="1041"/>
      <point x="341" y="957"/>
      <point x="514" y="1016" type="curve" smooth="yes"/>
      <point x="551" y="1028"/>
      <point x="548" y="1031"/>
      <point x="512" y="1043" type="curve" smooth="yes"/>
      <point x="340" y="1101"/>
      <point x="253" y="1019"/>
      <point x="146" y="1081" type="curve" smooth="yes"/>
      <point x="52" y="1135"/>
      <point x="47" y="1233"/>
      <point x="106" y="1335" type="curve" smooth="yes"/>
      <point x="165" y="1437"/>
      <point x="252" y="1481"/>
      <point x="346" y="1427" type="curve" smooth="yes"/>
      <point x="452" y="1366"/>
      <point x="425" y="1249"/>
      <point x="559" y="1130" type="curve" smooth="yes"/>
      <point x="581" y="1110"/>
      <point x="594" y="1093"/>
      <point x="585" y="1140" type="curve" smooth="yes"/>
      <point x="550" y="1321"/>
      <point x="434" y="1354"/>
      <point x="434" y="1478" type="curve" smooth="yes"/>
      <point x="434" y="1586"/>
      <point x="516" y="1640"/>
      <point x="634" y="1640" type="curve" smooth="yes"/>
      <point x="752" y="1640"/>
      <point x="834" y="1586"/>
      <point x="834" y="1478" type="curve" smooth="yes"/>
      <point x="834" y="1353"/>
      <point x="717" y="1320"/>
      <point x="682" y="1137" type="curve" smooth="yes"/>
      <point x="675" y="1098"/>
      <point x="683" y="1108"/>
      <point x="704" y="1126" type="curve" smooth="yes"/>
      <point x="843" y="1247"/>
      <point x="814" y="1365"/>
      <point x="922" y="1427" type="curve" smooth="yes"/>
      <point x="1016" y="1481"/>
      <point x="1103" y="1437"/>
      <point x="1162" y="1335" type="curve" smooth="yes"/>
      <point x="1221" y="1233"/>
      <point x="1216" y="1135"/>
      <point x="1122" y="1081" type="curve" smooth="yes"/>
      <point x="1015" y="1019"/>
      <point x="927" y="1103"/>
      <point x="752" y="1042" type="curve" smooth="yes"/>
      <point x="723" y="1032"/>
      <point x="715" y="1031"/>
      <point x="748" y="1019" type="curve" smooth="yes"/>
      <point x="925" y="956"/>
      <point x="1013" y="1042"/>
      <point x="1122" y="979" type="curve" smooth="yes"/>
      <point x="1216" y="925"/>
      <point x="1221" y="827"/>
      <point x="1162" y="725" type="curve" smooth="yes"/>
      <point x="1103" y="623"/>
      <point x="1016" y="579"/>
      <point x="922" y="633" type="curve" smooth="yes"/>
      <point x="814" y="695"/>
      <point x="843" y="813"/>
      <point x="703" y="934" type="curve" smooth="yes"/>
      <point x="686" y="949"/>
      <point x="675" y="965"/>
      <point x="682" y="928" type="curve" smooth="yes"/>
      <point x="715" y="740"/>
      <point x="834" y="708"/>
      <point x="834" y="582" type="curve" smooth="yes"/>
      <point x="834" y="474"/>
      <point x="752" y="420"/>
      <point x="634" y="420" type="curve" smooth="yes"/>
      <point x="516" y="420"/>
      <point x="434" y="474"/>
      <point x="434" y="582" type="curve" smooth="yes"/>
      <point x="434" y="708"/>
      <point x="553" y="741"/>
      <point x="586" y="928" type="curve" smooth="yes"/>
      <point x="593" y="965"/>
      <point x="581" y="948"/>
      <point x="564" y="933" type="curve" smooth="yes"/>
      <point x="424" y="812"/>
      <point x="454" y="695"/>
      <point x="346" y="633" type="curve" smooth="yes"/>
      <point x="252" y="579"/>
      <point x="165" y="623"/>
    </contour>
  </outline>
</glyph>
<glyph name="plus" format="2">
  <advance width="1060"/>
  <unicode hex="002B"/>
  <outline>
    <contour>
      <point x="674" y="746" type="curve" smooth="yes"/>
      <point x="900" y="746" type="line" smooth="yes"/>
      <point x="927" y="746"/>
      <point x="940" y="743"/>
      <point x="940" y="714" type="curve" smooth="yes"/>
      <point x="940" y="555" type="line" smooth="yes"/>
      <point x="940" y="525"/>
      <point x="938" y="516"/>
      <point x="908" y="516" type="curve" smooth="yes"/>
      <point x="678" y="516" type="line" smooth="yes"/>
      <point x="645" y="516"/>
      <point x="644" y="512"/>
      <point x="644" y="478" type="curve" smooth="yes"/>
      <point x="644" y="243" type="line" smooth="yes"/>
      <point x="644" y="223"/>
      <point x="637" y="220"/>
      <point x="616" y="220" type="curve" smooth="yes"/>
      <point x="446" y="220" type="line" smooth="yes"/>
      <point x="419" y="220"/>
      <point x="416" y="227"/>
      <point x="416" y="255" type="curve" smooth="yes"/>
      <point x="416" y="474" type="line" smooth="yes"/>
      <point x="416" y="508"/>
      <point x="413" y="516"/>
      <point x="380" y="516" type="curve" smooth="yes"/>
      <point x="150" y="516" type="line" smooth="yes"/>
      <point x="128" y="516"/>
      <point x="120" y="521"/>
      <point x="120" y="545" type="curve" smooth="yes"/>
      <point x="120" y="724" type="line" smooth="yes"/>
      <point x="120" y="746"/>
      <point x="125" y="746"/>
      <point x="147" y="746" type="curve" smooth="yes"/>
      <point x="388" y="746" type="line" smooth="yes"/>
      <point x="413" y="746"/>
      <point x="416" y="754"/>
      <point x="416" y="780" type="curve" smooth="yes"/>
      <point x="416" y="1000" type="line" smooth="yes"/>
      <point x="416" y="1033"/>
      <point x="420" y="1040"/>
      <point x="452" y="1040" type="curve" smooth="yes"/>
      <point x="614" y="1040" type="line" smooth="yes"/>
      <point x="643" y="1040"/>
      <point x="644" y="1031"/>
      <point x="644" y="1001" type="curve" smooth="yes"/>
      <point x="644" y="776" type="line" smooth="yes"/>
      <point x="644" y="750"/>
      <point x="649" y="746"/>
    </contour>
  </outline>
</glyph>
<glyph name="hyphen" format="2">
  <advance width="820"/>
  <unicode hex="002D"/>
  <outline>
    <contour>
      <point x="154" y="770" type="curve" smooth="yes"/>
      <point x="666" y="770" type="line" smooth="yes"/>
      <point x="697" y="770"/>
      <point x="700" y="763"/>
      <point x="700" y="731" type="curve" smooth="yes"/>
      <point x="700" y="581" type="line" smooth="yes"/>
      <point x="700" y="546"/>
      <point x="699" y="540"/>
      <point x="664" y="540" type="curve" smooth="yes"/>
      <point x="162" y="540" type="line" smooth="yes"/>
      <point x="126" y="540"/>
      <point x="120" y="545"/>
      <point x="120" y="580" type="curve" smooth="yes"/>
      <point x="120" y="729" type="line" smooth="yes"/>
      <point x="120" y="761"/>
      <point x="122" y="770"/>
    </contour>
  </outline>
</glyph>
<glyph name="zero" format="2">
  <advance width="1120"/>
  <unicode hex="0030"/>
  <outline>
    <contour>
      <point x="50" y="750" type="curve" smooth="yes"/>
      <point x="50" y="1316"/>
      <point x="214" y="1520"/>
      <point x="560" y="1520" type="curve" smooth="yes"/>
      <point x="926" y="1520"/>
      <point x="1070" y="1316"/>
      <point x="1070" y="750" type="curve" smooth="yes"/>
      <point x="1070" y="184"/>
      <point x="886" y="-20"/>
      <point x="560" y="-20" type="curve" smooth="yes"/>
      <point x="214" y="-20"/>
      <point x="50" y="184"/>
    </contour>
    <contour>
      <point x="470" y="750" type="curve" smooth="yes"/>
      <point x="470" y="266"/>
      <point x="492" y="190"/>
      <point x="560" y="190" type="curve" smooth="yes"/>
      <point x="638" y="190"/>
      <point x="650" y="266"/>
      <point x="650" y="750" type="curve" smooth="yes"/>
      <point x="650" y="1234"/>
      <point x="638" y="1310"/>
      <point x="560" y="1310" type="curve" smooth="yes"/>
      <point x="492" y="1310"/>
      <point x="470" y="1234"/>
    </contour>
  </outline>
</glyph>
<glyph name="two" format="2">
  <advance height="2310" width="1094"/>
  <unicode hex="0032"/>
  <outline>
    <contour>
      <point x="1053.957" y="510" type="curve" smooth="yes"/>
      <point x="1042.957" y="141"/>
      <point x="972.957" y="-20"/>
      <point x="724.957" y="-20" type="curve" smooth="yes"/>
      <point x="540.957" y="-20"/>
      <point x="500.957" y="100"/>
      <point x="414.957" y="100" type="curve" smooth="yes"/>
      <point x="357.957" y="100"/>
      <point x="320.957" y="74"/>
      <point x="297.957" y="34" type="curve" smooth="yes"/>
      <point x="281.957" y="7"/>
      <point x="287.957" y="0"/>
      <point x="242.957" y="0" type="curve" smooth="yes"/>
      <point x="100.957" y="0" type="line" smooth="yes"/>
      <point x="61.957" y="0"/>
      <point x="55.957" y="4"/>
      <point x="55.957" y="42" type="curve" smooth="yes"/>
      <point x="56.957" y="320"/>
      <point x="147.547" y="625.523"/>
      <point x="428.957" y="808" type="curve" smooth="yes"/>
      <point x="556.957" y="891"/>
      <point x="588.957" y="972"/>
      <point x="588.957" y="1150" type="curve" smooth="yes"/>
      <point x="588.957" y="1288"/>
      <point x="566.957" y="1336"/>
      <point x="498.957" y="1336" type="curve" smooth="yes"/>
      <point x="450.957" y="1336"/>
      <point x="406.957" y="1302"/>
      <point x="406.957" y="1274" type="curve" smooth="yes"/>
      <point x="406.957" y="1238"/>
      <point x="538.957" y="1228"/>
      <point x="538.957" y="1056" type="curve" smooth="yes"/>
      <point x="538.957" y="922"/>
      <point x="433.957" y="850"/>
      <point x="319.957" y="850" type="curve" smooth="yes"/>
      <point x="201.957" y="850"/>
      <point x="86.957" y="946"/>
      <point x="86.957" y="1102" type="curve" smooth="yes"/>
      <point x="86.957" y="1376"/>
      <point x="264.957" y="1520"/>
      <point x="558.957" y="1520" type="curve" smooth="yes"/>
      <point x="830.957" y="1520"/>
      <point x="1010.957" y="1360"/>
      <point x="1010.957" y="1140" type="curve" smooth="yes"/>
      <point x="1010.957" y="900"/>
      <point x="761.55" y="767.614"/>
      <point x="598.957" y="670" type="curve" smooth="yes"/>
      <point x="433.43" y="570.624"/>
      <point x="386.957" y="516"/>
      <point x="353.957" y="441" type="curve" smooth="yes"/>
      <point x="325.08" y="375.371"/>
      <point x="289.957" y="301"/>
      <point x="311.957" y="301" type="curve" smooth="yes"/>
      <point x="334.957" y="301"/>
      <point x="323.957" y="356"/>
      <point x="385.957" y="414" type="curve" smooth="yes"/>
      <point x="432.957" y="458"/>
      <point x="478.957" y="469"/>
      <point x="514.957" y="469" type="curve" smooth="yes"/>
      <point x="624.957" y="469"/>
      <point x="654.957" y="381"/>
      <point x="746.957" y="381" type="curve" smooth="yes"/>
      <point x="823.957" y="381"/>
      <point x="844.957" y="431"/>
      <point x="857.957" y="510" type="curve" smooth="yes"/>
      <point x="863.957" y="552"/>
      <point x="858.957" y="554"/>
      <point x="906.957" y="554" type="curve" smooth="yes"/>
      <point x="1012.957" y="554" type="line" smooth="yes"/>
      <point x="1056.957" y="554"/>
      <point x="1053.957" y="552"/>
    </contour>
  </outline>
</glyph>
<glyph name="five" format="2">
  <advance height="2310" width="930"/>
  <unicode hex="0035"/>
  <outline>
    <contour>
      <point x="30" y="318" type="curve" smooth="yes"/>
      <point x="30" y="464"/>
      <point x="130" y="550"/>
      <point x="258" y="550" type="curve" smooth="yes"/>
      <point x="382" y="550"/>
      <point x="462" y="468"/>
      <point x="462" y="364" type="curve" smooth="yes"/>
      <point x="462" y="232"/>
      <point x="378" y="242"/>
      <point x="378" y="196" type="curve" smooth="yes"/>
      <point x="378" y="162"/>
      <point x="404" y="144"/>
      <point x="422" y="144" type="curve" smooth="yes"/>
      <point x="470" y="144"/>
      <point x="498" y="302"/>
      <point x="498" y="510" type="curve" smooth="yes"/>
      <point x="498" y="728"/>
      <point x="480" y="782"/>
      <point x="442" y="782" type="curve" smooth="yes"/>
      <point x="413" y="782"/>
      <point x="391" y="763"/>
      <point x="305" y="655" type="curve" smooth="yes"/>
      <point x="289" y="634"/>
      <point x="278" y="624"/>
      <point x="239" y="624" type="curve" smooth="yes"/>
      <point x="175" y="624" type="line" smooth="yes"/>
      <point x="121" y="624"/>
      <point x="126" y="642"/>
      <point x="131" y="686" type="curve" smooth="yes"/>
      <point x="183" y="1460" type="line" smooth="yes"/>
      <point x="187" y="1498"/>
      <point x="197" y="1500"/>
      <point x="239" y="1500" type="curve" smooth="yes"/>
      <point x="294" y="1500" type="line" smooth="yes"/>
      <point x="495" y="1500"/>
      <point x="597" y="1468"/>
      <point x="663" y="1543" type="curve" smooth="yes"/>
      <point x="676" y="1558"/>
      <point x="686" y="1564"/>
      <point x="717" y="1564" type="curve" smooth="yes"/>
      <point x="822" y="1564" type="line" smooth="yes"/>
      <point x="848" y="1564"/>
      <point x="859" y="1557"/>
      <point x="854" y="1534" type="curve" smooth="yes"/>
      <point x="851" y="1500" type="line" smooth="yes"/>
      <point x="836.363" y="1334.115"/>
      <point x="844" y="1120"/>
      <point x="510" y="1120" type="curve" smooth="yes"/>
      <point x="355" y="1120" type="line" smooth="yes"/>
      <point x="317" y="1120"/>
      <point x="305.803" y="1110.514"/>
      <point x="308" y="1078" type="curve" smooth="yes"/>
      <point x="303" y="930" type="line" smooth="yes"/>
      <point x="305.528" y="892.576"/>
      <point x="296" y="850"/>
      <point x="304" y="846" type="curve" smooth="yes"/>
      <point x="319" y="837"/>
      <point x="336.128" y="863.184"/>
      <point x="359" y="896" type="curve" smooth="yes"/>
      <point x="405" y="962"/>
      <point x="475" y="1000"/>
      <point x="586" y="1000" type="curve" smooth="yes"/>
      <point x="878" y="1000"/>
      <point x="900" y="780"/>
      <point x="900" y="500" type="curve" smooth="yes"/>
      <point x="900" y="160"/>
      <point x="804" y="-20"/>
      <point x="462" y="-20" type="curve" smooth="yes"/>
      <point x="158" y="-20"/>
      <point x="30" y="114"/>
    </contour>
  </outline>
</glyph>
<glyph name="nine" format="2">
  <advance height="2310" width="1010"/>
  <unicode hex="0039"/>
  <outline>
    <contour>
      <point x="424" y="158" type="curve" smooth="yes"/>
      <point x="424" y="142"/>
      <point x="434" y="134"/>
      <point x="452" y="134" type="curve" smooth="yes"/>
      <point x="550" y="134"/>
      <point x="556" y="303"/>
      <point x="576" y="636" type="curve" smooth="yes"/>
      <point x="578" y="671"/>
      <point x="583" y="685"/>
      <point x="576" y="689" type="curve" smooth="yes"/>
      <point x="567" y="694"/>
      <point x="556.996" y="682.578"/>
      <point x="543" y="658" type="curve" smooth="yes"/>
      <point x="502" y="586"/>
      <point x="438" y="540"/>
      <point x="348" y="540" type="curve" smooth="yes"/>
      <point x="126" y="540"/>
      <point x="30" y="690"/>
      <point x="30" y="1000" type="curve" smooth="yes"/>
      <point x="30" y="1370"/>
      <point x="200" y="1520"/>
      <point x="502" y="1520" type="curve" smooth="yes"/>
      <point x="824" y="1520"/>
      <point x="980" y="1330"/>
      <point x="980" y="760" type="curve" smooth="yes"/>
      <point x="980" y="280"/>
      <point x="824" y="-20"/>
      <point x="452" y="-20" type="curve" smooth="yes"/>
      <point x="178" y="-20"/>
      <point x="80" y="124"/>
      <point x="80" y="278" type="curve" smooth="yes"/>
      <point x="80" y="414"/>
      <point x="159" y="510"/>
      <point x="298" y="510" type="curve" smooth="yes"/>
      <point x="432" y="510"/>
      <point x="522" y="438"/>
      <point x="522" y="324" type="curve" smooth="yes"/>
      <point x="522" y="212"/>
      <point x="424" y="184"/>
    </contour>
    <contour>
      <point x="430" y="1030" type="curve" smooth="yes"/>
      <point x="430" y="842"/>
      <point x="464" y="778"/>
      <point x="502" y="778" type="curve" smooth="yes"/>
      <point x="538" y="778"/>
      <point x="580" y="880"/>
      <point x="580" y="1040" type="curve" smooth="yes"/>
      <point x="580" y="1198"/>
      <point x="560" y="1290"/>
      <point x="502" y="1290" type="curve" smooth="yes"/>
      <point x="454" y="1290"/>
      <point x="430" y="1208"/>
    </contour>
  </outline>
</glyph>
<glyph name="D" format="2">
  <advance width="1320"/>
  <unicode hex="0044"/>
  <anchor x="694" y="1500" name="Anchor-0"/>
  <anchor x="693" y="0" name="Anchor-1"/>
  <anchor x="693" y="0" name="Anchor-2"/>
  <outline>
    <contour>
      <point x="10" y="34" type="curve" smooth="yes"/>
      <point x="10" y="230" type="line" smooth="yes"/>
      <point x="10" y="263"/>
      <point x="18" y="270"/>
      <point x="49" y="270" type="curve" smooth="yes"/>
      <point x="93" y="270" type="line" smooth="yes"/>
      <point x="129" y="270"/>
      <point x="130" y="279"/>
      <point x="130" y="316" type="curve" smooth="yes"/>
      <point x="130" y="1179" type="line" smooth="yes"/>
      <point x="130" y="1222"/>
      <point x="124" y="1230"/>
      <point x="83" y="1230" type="curve" smooth="yes"/>
      <point x="59" y="1230" type="line" smooth="yes"/>
      <point x="15" y="1230"/>
      <point x="10" y="1236"/>
      <point x="10" y="1278" type="curve" smooth="yes"/>
      <point x="10" y="1447" type="line" smooth="yes"/>
      <point x="10" y="1492"/>
      <point x="20" y="1500"/>
      <point x="63" y="1500" type="curve" smooth="yes"/>
      <point x="670" y="1500" type="line" smooth="yes"/>
      <point x="1216" y="1500"/>
      <point x="1300" y="1176"/>
      <point x="1300" y="750" type="curve" smooth="yes"/>
      <point x="1300" y="324"/>
      <point x="1196" y="0"/>
      <point x="670" y="0" type="curve" smooth="yes"/>
      <point x="58" y="0" type="line" smooth="yes"/>
      <point x="25" y="0"/>
      <point x="10" y="1"/>
    </contour>
    <contour>
      <point x="648" y="270" type="curve" smooth="yes"/>
      <point x="650" y="270" type="line" smooth="yes"/>
      <point x="778" y="270"/>
      <point x="810" y="426"/>
      <point x="810" y="750" type="curve" smooth="yes"/>
      <point x="810" y="1074"/>
      <point x="758" y="1230"/>
      <point x="650" y="1230" type="curve" smooth="yes"/>
      <point x="639" y="1230" type="line" smooth="yes"/>
      <point x="612" y="1230"/>
      <point x="600" y="1222"/>
      <point x="600" y="1174" type="curve" smooth="yes"/>
      <point x="600" y="316" type="line" smooth="yes"/>
      <point x="600" y="272"/>
      <point x="603" y="270"/>
    </contour>
  </outline>
</glyph>
<glyph name="I" format="2">
  <advance width="770"/>
  <unicode hex="0049"/>
  <anchor x="382" y="1500" name="Anchor-0"/>
  <anchor x="378" y="0" name="Anchor-1"/>
  <anchor x="378" y="0" name="Anchor-2"/>
  <anchor x="378" y="0" name="Anchor-3"/>
  <outline>
    <contour>
      <point x="620" y="1178" type="curve" smooth="yes"/>
      <point x="620" y="314" type="line" smooth="yes"/>
      <point x="620" y="271"/>
      <point x="630" y="270"/>
      <point x="674" y="270" type="curve" smooth="yes"/>
      <point x="712" y="270" type="line" smooth="yes"/>
      <point x="745" y="270"/>
      <point x="760" y="269"/>
      <point x="760" y="236" type="curve" smooth="yes"/>
      <point x="760" y="50" type="line" smooth="yes"/>
      <point x="760" y="5"/>
      <point x="754" y="0"/>
      <point x="710" y="0" type="curve" smooth="yes"/>
      <point x="60" y="0" type="line" smooth="yes"/>
      <point x="14" y="0"/>
      <point x="10" y="9"/>
      <point x="10" y="56" type="curve" smooth="yes"/>
      <point x="10" y="221" type="line" smooth="yes"/>
      <point x="10" y="266"/>
      <point x="23" y="270"/>
      <point x="65" y="270" type="curve" smooth="yes"/>
      <point x="103" y="270" type="line" smooth="yes"/>
      <point x="141" y="270"/>
      <point x="150" y="276"/>
      <point x="150" y="317" type="curve" smooth="yes"/>
      <point x="150" y="1176" type="line" smooth="yes"/>
      <point x="150" y="1219"/>
      <point x="148" y="1230"/>
      <point x="105" y="1230" type="curve" smooth="yes"/>
      <point x="63" y="1230" type="line" smooth="yes"/>
      <point x="22" y="1230"/>
      <point x="10" y="1234"/>
      <point x="10" y="1278" type="curve" smooth="yes"/>
      <point x="10" y="1443" type="line" smooth="yes"/>
      <point x="10" y="1491"/>
      <point x="12" y="1500"/>
      <point x="60" y="1500" type="curve" smooth="yes"/>
      <point x="706" y="1500" type="line" smooth="yes"/>
      <point x="754" y="1500"/>
      <point x="760" y="1489"/>
      <point x="760" y="1444" type="curve" smooth="yes"/>
      <point x="760" y="1284" type="line" smooth="yes"/>
      <point x="760" y="1236"/>
      <point x="753" y="1230"/>
      <point x="707" y="1230" type="curve" smooth="yes"/>
      <point x="670" y="1230" type="line" smooth="yes"/>
      <point x="626" y="1230"/>
      <point x="620" y="1220"/>
    </contour>
  </outline>
</glyph>
<glyph name="R" format="2">
  <advance width="1356"/>
  <unicode hex="0052"/>
  <anchor x="686" y="1500" name="Anchor-0"/>
  <anchor x="676" y="0" name="Anchor-1"/>
  <anchor x="676" y="0" name="Anchor-2"/>
  <outline>
    <contour>
      <point x="1386" y="273" type="curve" smooth="yes"/>
      <point x="1344" y="95"/>
      <point x="1260" y="-40"/>
      <point x="1050" y="-40" type="curve" smooth="yes"/>
      <point x="554" y="-40"/>
      <point x="883" y="620"/>
      <point x="650" y="620" type="curve" smooth="yes"/>
      <point x="638" y="620" type="line" smooth="yes"/>
      <point x="600" y="620"/>
      <point x="600" y="610"/>
      <point x="600" y="572" type="curve" smooth="yes"/>
      <point x="600" y="310" type="line" smooth="yes"/>
      <point x="600" y="279"/>
      <point x="601" y="270"/>
      <point x="632" y="270" type="curve" smooth="yes"/>
      <point x="674" y="270" type="line" smooth="yes"/>
      <point x="710" y="270"/>
      <point x="720" y="263"/>
      <point x="720" y="224" type="curve" smooth="yes"/>
      <point x="720" y="72" type="line" smooth="yes"/>
      <point x="720" y="13"/>
      <point x="719" y="0"/>
      <point x="660" y="0" type="curve" smooth="yes"/>
      <point x="53" y="0" type="line" smooth="yes"/>
      <point x="19" y="0"/>
      <point x="10" y="5"/>
      <point x="10" y="38" type="curve" smooth="yes"/>
      <point x="10" y="226" type="line" smooth="yes"/>
      <point x="10" y="263"/>
      <point x="16" y="270"/>
      <point x="52" y="270" type="curve" smooth="yes"/>
      <point x="73" y="270" type="line" smooth="yes"/>
      <point x="120" y="270"/>
      <point x="130" y="276"/>
      <point x="130" y="322" type="curve" smooth="yes"/>
      <point x="130" y="1179" type="line" smooth="yes"/>
      <point x="130" y="1225"/>
      <point x="119" y="1230"/>
      <point x="76" y="1230" type="curve" smooth="yes"/>
      <point x="56" y="1230" type="line" smooth="yes"/>
      <point x="14" y="1230"/>
      <point x="10" y="1242"/>
      <point x="10" y="1282" type="curve" smooth="yes"/>
      <point x="10" y="1462" type="line" smooth="yes"/>
      <point x="10" y="1496"/>
      <point x="20" y="1500"/>
      <point x="55" y="1500" type="curve" smooth="yes"/>
      <point x="720" y="1500" type="line" smooth="yes"/>
      <point x="1062" y="1500"/>
      <point x="1190" y="1300"/>
      <point x="1190" y="1110" type="curve" smooth="yes"/>
      <point x="1190" y="949"/>
      <point x="1168" y="835"/>
      <point x="1083" y="742" type="curve" smooth="yes"/>
      <point x="1046.914" y="702.518"/>
      <point x="1014" y="707"/>
      <point x="1066" y="678" type="curve" smooth="yes"/>
      <point x="1308" y="545"/>
      <point x="1103" y="308"/>
      <point x="1218" y="308" type="curve" smooth="yes"/>
      <point x="1244" y="308"/>
      <point x="1246.289" y="323.092"/>
      <point x="1256" y="358" type="curve" smooth="yes"/>
      <point x="1263.349" y="384.417"/>
      <point x="1282.649" y="388.472"/>
      <point x="1321" y="374" type="curve" smooth="yes"/>
      <point x="1374" y="354" type="line" smooth="yes"/>
      <point x="1405.678" y="342.046"/>
      <point x="1395.936" y="315.11"/>
    </contour>
    <contour>
      <point x="641" y="880" type="curve" smooth="yes"/>
      <point x="649" y="880" type="line" smooth="yes"/>
      <point x="711" y="880"/>
      <point x="720" y="952"/>
      <point x="720" y="1050" type="curve" smooth="yes"/>
      <point x="720" y="1148"/>
      <point x="711" y="1230"/>
      <point x="649" y="1230" type="curve" smooth="yes"/>
      <point x="631" y="1230" type="line" smooth="yes"/>
      <point x="593" y="1230"/>
      <point x="600" y="1221"/>
      <point x="600" y="1182" type="curve" smooth="yes"/>
      <point x="600" y="926" type="line" smooth="yes"/>
      <point x="600" y="877"/>
      <point x="593" y="880"/>
    </contour>
  </outline>
</glyph>
<glyph name="U" format="2">
  <advance width="1340"/>
  <unicode hex="0055"/>
  <anchor x="791" y="1500" name="Anchor-0"/>
  <anchor x="761" y="0" name="Anchor-1"/>
  <anchor x="761" y="0" name="Anchor-2"/>
  <anchor x="1156" y="190" name="Anchor-3"/>
  <outline>
    <contour>
      <point x="876" y="1230" type="curve" smooth="yes"/>
      <point x="850" y="1230" type="line" smooth="yes"/>
      <point x="802" y="1230"/>
      <point x="790" y="1242"/>
      <point x="790" y="1287" type="curve" smooth="yes"/>
      <point x="790" y="1427" type="line" smooth="yes"/>
      <point x="790" y="1481"/>
      <point x="792" y="1500"/>
      <point x="846" y="1500" type="curve" smooth="yes"/>
      <point x="1282" y="1500" type="line" smooth="yes"/>
      <point x="1325" y="1500"/>
      <point x="1330" y="1491"/>
      <point x="1330" y="1446" type="curve" smooth="yes"/>
      <point x="1330" y="1285" type="line" smooth="yes"/>
      <point x="1330" y="1237"/>
      <point x="1323" y="1230"/>
      <point x="1283" y="1230" type="curve" smooth="yes"/>
      <point x="1272" y="1230" type="line" smooth="yes"/>
      <point x="1220" y="1230"/>
      <point x="1210" y="1223"/>
      <point x="1210" y="1169" type="curve" smooth="yes"/>
      <point x="1210" y="600" type="line" smooth="yes"/>
      <point x="1210" y="170"/>
      <point x="1066" y="-40"/>
      <point x="690" y="-40" type="curve" smooth="yes"/>
      <point x="164" y="-40"/>
      <point x="130" y="254"/>
      <point x="130" y="620" type="curve" smooth="yes"/>
      <point x="130" y="1179" type="line" smooth="yes"/>
      <point x="130" y="1225"/>
      <point x="120" y="1230"/>
      <point x="76" y="1230" type="curve" smooth="yes"/>
      <point x="70" y="1230" type="line" smooth="yes"/>
      <point x="21" y="1230"/>
      <point x="10" y="1232"/>
      <point x="10" y="1281" type="curve" smooth="yes"/>
      <point x="10" y="1437" type="line" smooth="yes"/>
      <point x="10" y="1486"/>
      <point x="17" y="1500"/>
      <point x="64" y="1500" type="curve" smooth="yes"/>
      <point x="688" y="1500" type="line" smooth="yes"/>
      <point x="725" y="1500"/>
      <point x="730" y="1491"/>
      <point x="730" y="1452" type="curve" smooth="yes"/>
      <point x="730" y="1279" type="line" smooth="yes"/>
      <point x="730" y="1239"/>
      <point x="724" y="1230"/>
      <point x="681" y="1230" type="curve" smooth="yes"/>
      <point x="656" y="1230" type="line" smooth="yes"/>
      <point x="602" y="1230"/>
      <point x="600" y="1219"/>
      <point x="600" y="1164" type="curve" smooth="yes"/>
      <point x="600" y="660" type="line" smooth="yes"/>
      <point x="600" y="376"/>
      <point x="612" y="254"/>
      <point x="770" y="254" type="curve" smooth="yes"/>
      <point x="888" y="254"/>
      <point x="930" y="336"/>
      <point x="930" y="600" type="curve" smooth="yes"/>
      <point x="930" y="1179" type="line" smooth="yes"/>
      <point x="930" y="1224"/>
      <point x="918" y="1230"/>
    </contour>
  </outline>
</glyph>
<glyph name="X" format="2">
  <advance width="1370"/>
  <unicode hex="0058"/>
  <anchor x="776" y="1500" name="Anchor-0"/>
  <anchor x="626" y="0" name="Anchor-1"/>
  <anchor x="626" y="0" name="Anchor-2"/>
  <outline>
    <contour>
      <point x="0" y="59" type="curve" smooth="yes"/>
      <point x="0" y="211" type="line" smooth="yes"/>
      <point x="0" y="258"/>
      <point x="1" y="270"/>
      <point x="48" y="270" type="curve" smooth="yes"/>
      <point x="60" y="270" type="line" smooth="yes"/>
      <point x="115" y="270"/>
      <point x="129.198" y="274.555"/>
      <point x="148" y="305" type="curve" smooth="yes"/>
      <point x="366" y="658" type="line" smooth="yes"/>
      <point x="399.869" y="712.843"/>
      <point x="392.42" y="736.828"/>
      <point x="362" y="791" type="curve" smooth="yes"/>
      <point x="143" y="1181" type="line" smooth="yes"/>
      <point x="122.813" y="1216.949"/>
      <point x="110" y="1230"/>
      <point x="76" y="1230" type="curve" smooth="yes"/>
      <point x="66" y="1230" type="line" smooth="yes"/>
      <point x="16" y="1230"/>
      <point x="10" y="1236"/>
      <point x="10" y="1288" type="curve" smooth="yes"/>
      <point x="10" y="1431" type="line" smooth="yes"/>
      <point x="10" y="1489"/>
      <point x="12" y="1500"/>
      <point x="70" y="1500" type="curve" smooth="yes"/>
      <point x="692" y="1500" type="line" smooth="yes"/>
      <point x="737" y="1500"/>
      <point x="750" y="1496"/>
      <point x="750" y="1448" type="curve" smooth="yes"/>
      <point x="750" y="1280" type="line" smooth="yes"/>
      <point x="750" y="1240"/>
      <point x="748" y="1230"/>
      <point x="708" y="1230" type="curve" smooth="yes"/>
      <point x="706" y="1230" type="line" smooth="yes"/>
      <point x="663" y="1230"/>
      <point x="671.575" y="1208.225"/>
      <point x="683" y="1181" type="curve" smooth="yes"/>
      <point x="730" y="1069" type="line" smooth="yes"/>
      <point x="750.493" y="1020.166"/>
      <point x="771.186" y="1037.463"/>
      <point x="791" y="1087" type="curve" smooth="yes"/>
      <point x="831" y="1187" type="line" smooth="yes"/>
      <point x="846.387" y="1225.467"/>
      <point x="831" y="1230"/>
      <point x="818" y="1230" type="curve" smooth="yes"/>
      <point x="810" y="1230" type="line" smooth="yes"/>
      <point x="787" y="1230"/>
      <point x="780" y="1233"/>
      <point x="780" y="1275" type="curve" smooth="yes"/>
      <point x="780" y="1446" type="line" smooth="yes"/>
      <point x="780" y="1492"/>
      <point x="783" y="1500"/>
      <point x="828" y="1500" type="curve" smooth="yes"/>
      <point x="1296" y="1500" type="line" smooth="yes"/>
      <point x="1325" y="1500"/>
      <point x="1330" y="1492"/>
      <point x="1330" y="1461" type="curve" smooth="yes"/>
      <point x="1330" y="1275" type="line" smooth="yes"/>
      <point x="1330" y="1232"/>
      <point x="1322" y="1230"/>
      <point x="1278" y="1230" type="curve" smooth="yes"/>
      <point x="1270" y="1230" type="line" smooth="yes"/>
      <point x="1222" y="1230"/>
      <point x="1203.744" y="1230.338"/>
      <point x="1188" y="1204" type="curve" smooth="yes"/>
      <point x="974" y="846" type="line" smooth="yes"/>
      <point x="949.655" y="805.273"/>
      <point x="968.377" y="789.667"/>
      <point x="1002" y="731" type="curve" smooth="yes"/>
      <point x="1245" y="307" type="line" smooth="yes"/>
      <point x="1262.15" y="277.074"/>
      <point x="1283" y="270"/>
      <point x="1316" y="270" type="curve" smooth="yes"/>
      <point x="1326" y="270" type="line" smooth="yes"/>
      <point x="1355" y="270"/>
      <point x="1370" y="263"/>
      <point x="1370" y="225" type="curve" smooth="yes"/>
      <point x="1370" y="43" type="line" smooth="yes"/>
      <point x="1370" y="2"/>
      <point x="1362" y="0"/>
      <point x="1320" y="0" type="curve" smooth="yes"/>
      <point x="686" y="0" type="line" smooth="yes"/>
      <point x="642" y="0"/>
      <point x="630" y="1"/>
      <point x="630" y="45" type="curve" smooth="yes"/>
      <point x="630" y="222" type="line" smooth="yes"/>
      <point x="630" y="260"/>
      <point x="632" y="270"/>
      <point x="650" y="270" type="curve" smooth="yes"/>
      <point x="664" y="270" type="line" smooth="yes"/>
      <point x="700" y="270"/>
      <point x="693.978" y="292.756"/>
      <point x="676" y="329" type="curve" smooth="yes"/>
      <point x="614" y="454" type="line" smooth="yes"/>
      <point x="603.3" y="475.573"/>
      <point x="593.187" y="475.864"/>
      <point x="584" y="461" type="curve" smooth="yes"/>
      <point x="495" y="317" type="line" smooth="yes"/>
      <point x="474.532" y="283.884"/>
      <point x="478" y="270"/>
      <point x="504" y="270" type="curve" smooth="yes"/>
      <point x="522" y="270" type="line" smooth="yes"/>
      <point x="544" y="270"/>
      <point x="560" y="260"/>
      <point x="560" y="215" type="curve" smooth="yes"/>
      <point x="560" y="79" type="line" smooth="yes"/>
      <point x="560" y="18"/>
      <point x="543" y="0"/>
      <point x="486" y="0" type="curve" smooth="yes"/>
      <point x="48" y="0" type="line" smooth="yes"/>
      <point x="1" y="0"/>
      <point x="0" y="11"/>
    </contour>
  </outline>
</glyph>
<glyph name="Y" format="2">
  <advance width="1380"/>
  <unicode hex="0059"/>
  <anchor x="786" y="1500" name="Anchor-0"/>
  <anchor x="701" y="0" name="Anchor-1"/>
  <anchor x="701" y="0" name="Anchor-2"/>
  <outline>
    <contour>
      <point x="350" y="36" type="curve" smooth="yes"/>
      <point x="350" y="224" type="line" smooth="yes"/>
      <point x="350" y="262"/>
      <point x="353" y="270"/>
      <point x="390" y="270" type="curve" smooth="yes"/>
      <point x="426" y="270" type="line" smooth="yes"/>
      <point x="466" y="270"/>
      <point x="470" y="278"/>
      <point x="470" y="319" type="curve" smooth="yes"/>
      <point x="470" y="463" type="line" smooth="yes"/>
      <point x="470" y="517"/>
      <point x="456.803" y="528.932"/>
      <point x="441" y="561" type="curve" smooth="yes"/>
      <point x="134" y="1184" type="line" smooth="yes"/>
      <point x="116.025" y="1220.477"/>
      <point x="109" y="1230"/>
      <point x="49" y="1230" type="curve" smooth="yes"/>
      <point x="43" y="1230" type="line" smooth="yes"/>
      <point x="1" y="1230"/>
      <point x="0" y="1239"/>
      <point x="0" y="1281" type="curve" smooth="yes"/>
      <point x="0" y="1430" type="line" smooth="yes"/>
      <point x="0" y="1492"/>
      <point x="19" y="1500"/>
      <point x="77" y="1500" type="curve" smooth="yes"/>
      <point x="671" y="1500" type="line" smooth="yes"/>
      <point x="722" y="1500"/>
      <point x="740" y="1497"/>
      <point x="740" y="1442" type="curve" smooth="yes"/>
      <point x="740" y="1277" type="line" smooth="yes"/>
      <point x="740" y="1237"/>
      <point x="729" y="1230"/>
      <point x="704" y="1230" type="curve" smooth="yes"/>
      <point x="699" y="1230" type="line" smooth="yes"/>
      <point x="659" y="1230"/>
      <point x="659.955" y="1220.544"/>
      <point x="680" y="1176" type="curve" smooth="yes"/>
      <point x="752" y="1016" type="line" smooth="yes"/>
      <point x="789.021" y="933.733"/>
      <point x="787.65" y="942.522"/>
      <point x="823" y="1020" type="curve" smooth="yes"/>
      <point x="896" y="1180" type="line" smooth="yes"/>
      <point x="916.361" y="1224.628"/>
      <point x="899" y="1230"/>
      <point x="877" y="1230" type="curve" smooth="yes"/>
      <point x="870" y="1230" type="line" smooth="yes"/>
      <point x="849" y="1230"/>
      <point x="830" y="1232"/>
      <point x="830" y="1283" type="curve" smooth="yes"/>
      <point x="830" y="1450" type="line" smooth="yes"/>
      <point x="830" y="1495"/>
      <point x="836" y="1500"/>
      <point x="880" y="1500" type="curve" smooth="yes"/>
      <point x="1331" y="1500" type="line" smooth="yes"/>
      <point x="1365" y="1500"/>
      <point x="1380" y="1499"/>
      <point x="1380" y="1461" type="curve" smooth="yes"/>
      <point x="1380" y="1257" type="line" smooth="yes"/>
      <point x="1380" y="1232"/>
      <point x="1369" y="1230"/>
      <point x="1343" y="1230" type="curve" smooth="yes"/>
      <point x="1307" y="1230" type="line" smooth="yes"/>
      <point x="1288" y="1230"/>
      <point x="1277.26" y="1222.621"/>
      <point x="1259" y="1188" type="curve" smooth="yes"/>
      <point x="980" y="659" type="line" smooth="yes"/>
      <point x="960.698" y="622.402"/>
      <point x="940" y="616"/>
      <point x="940" y="553" type="curve" smooth="yes"/>
      <point x="940" y="317" type="line" smooth="yes"/>
      <point x="940" y="279"/>
      <point x="943" y="270"/>
      <point x="980" y="270" type="curve" smooth="yes"/>
      <point x="1039" y="270" type="line" smooth="yes"/>
      <point x="1078" y="270"/>
      <point x="1080" y="261"/>
      <point x="1080" y="221" type="curve" smooth="yes"/>
      <point x="1080" y="39" type="line" smooth="yes"/>
      <point x="1080" y="8"/>
      <point x="1076" y="0"/>
      <point x="1046" y="0" type="curve" smooth="yes"/>
      <point x="382" y="0" type="line" smooth="yes"/>
      <point x="355" y="0"/>
      <point x="350" y="7"/>
    </contour>
  </outline>
</glyph>
<glyph name="Z" format="2">
  <advance width="1190"/>
  <unicode hex="005A"/>
  <anchor x="406" y="1500" name="Anchor-0"/>
  <anchor x="436" y="0" name="Anchor-1"/>
  <anchor x="436" y="0" name="Anchor-2"/>
  <outline>
    <contour>
      <point x="70" y="1500" type="curve" smooth="yes"/>
      <point x="1036" y="1500" type="line" smooth="yes"/>
      <point x="1085" y="1500"/>
      <point x="1100" y="1490"/>
      <point x="1100" y="1438" type="curve" smooth="yes"/>
      <point x="1100" y="1172" type="line" smooth="yes"/>
      <point x="1100" y="1102"/>
      <point x="1076.341" y="1061.604"/>
      <point x="1052" y="1024" type="curve" smooth="yes"/>
      <point x="632" y="367" type="line" smooth="yes"/>
      <point x="613.665" y="333.952"/>
      <point x="597" y="308"/>
      <point x="597" y="288" type="curve" smooth="yes"/>
      <point x="597" y="277"/>
      <point x="602" y="270"/>
      <point x="650" y="270" type="curve" smooth="yes"/>
      <point x="690" y="270" type="line" smooth="yes"/>
      <point x="890" y="270"/>
      <point x="908" y="386"/>
      <point x="919" y="626" type="curve" smooth="yes"/>
      <point x="921" y="681"/>
      <point x="924" y="690"/>
      <point x="980" y="690" type="curve" smooth="yes"/>
      <point x="1108" y="690" type="line" smooth="yes"/>
      <point x="1155" y="690"/>
      <point x="1160" y="656"/>
      <point x="1160" y="614" type="curve" smooth="yes"/>
      <point x="1160" y="62" type="line" smooth="yes"/>
      <point x="1160" y="4"/>
      <point x="1150" y="0"/>
      <point x="1094" y="0" type="curve" smooth="yes"/>
      <point x="78" y="0" type="line" smooth="yes"/>
      <point x="20" y="0"/>
      <point x="10" y="2"/>
      <point x="10" y="60" type="curve" smooth="yes"/>
      <point x="10" y="240" type="line" smooth="yes"/>
      <point x="10" y="307"/>
      <point x="31.919" y="337.741"/>
      <point x="56" y="374" type="curve" smooth="yes"/>
      <point x="532" y="1166" type="line" smooth="yes"/>
      <point x="546.572" y="1187.94"/>
      <point x="562" y="1198"/>
      <point x="562" y="1208" type="curve" smooth="yes"/>
      <point x="562" y="1224"/>
      <point x="545" y="1230"/>
      <point x="520" y="1230" type="curve" smooth="yes"/>
      <point x="500" y="1230" type="line" smooth="yes"/>
      <point x="350" y="1230"/>
      <point x="270" y="1103"/>
      <point x="261" y="896" type="curve" smooth="yes"/>
      <point x="259" y="850"/>
      <point x="260" y="850"/>
      <point x="212" y="850" type="curve" smooth="yes"/>
      <point x="56" y="850" type="line" smooth="yes"/>
      <point x="20" y="850"/>
      <point x="20" y="850"/>
      <point x="20" y="886" type="curve" smooth="yes"/>
      <point x="20" y="1456" type="line" smooth="yes"/>
      <point x="20" y="1498"/>
      <point x="28" y="1500"/>
    </contour>
  </outline>
</glyph>
<glyph name="bracketleft" format="2">
  <advance width="810"/>
  <unicode hex="005B"/>
  <outline>
    <contour>
      <point x="210" y="1560" type="curve" smooth="yes"/>
      <point x="701" y="1560" type="line" smooth="yes"/>
      <point x="744" y="1560"/>
      <point x="750" y="1555"/>
      <point x="750" y="1510" type="curve" smooth="yes"/>
      <point x="750" y="1386" type="line" smooth="yes"/>
      <point x="750" y="1342"/>
      <point x="746" y="1330"/>
      <point x="699" y="1330" type="curve" smooth="yes"/>
      <point x="597" y="1330" type="line" smooth="yes"/>
      <point x="540" y="1330"/>
      <point x="530" y="1329"/>
      <point x="530" y="1272" type="curve" smooth="yes"/>
      <point x="530" y="2" type="line" smooth="yes"/>
      <point x="530" y="-56"/>
      <point x="531" y="-70"/>
      <point x="589" y="-70" type="curve" smooth="yes"/>
      <point x="693" y="-70" type="line" smooth="yes"/>
      <point x="747" y="-70"/>
      <point x="750" y="-77"/>
      <point x="750" y="-132" type="curve" smooth="yes"/>
      <point x="750" y="-242" type="line" smooth="yes"/>
      <point x="750" y="-295"/>
      <point x="744" y="-300"/>
      <point x="693" y="-300" type="curve" smooth="yes"/>
      <point x="210" y="-300" type="line" smooth="yes"/>
      <point x="123" y="-300"/>
      <point x="110" y="-295"/>
      <point x="110" y="-205" type="curve" smooth="yes"/>
      <point x="110" y="1465" type="line" smooth="yes"/>
      <point x="110" y="1555"/>
      <point x="123" y="1560"/>
    </contour>
  </outline>
</glyph>
<glyph name="asciicircum" format="2">
  <advance width="1090"/>
  <unicode hex="005E"/>
  <outline>
    <contour>
      <point x="489" y="1252" type="curve" smooth="yes"/>
      <point x="252" y="1123" type="line" smooth="yes"/>
      <point x="222" y="1107"/>
      <point x="209" y="1102"/>
      <point x="176" y="1117" type="curve" smooth="yes"/>
      <point x="124" y="1145" type="line" smooth="yes"/>
      <point x="89" y="1165"/>
      <point x="88" y="1169"/>
      <point x="111" y="1193" type="curve" smooth="yes"/>
      <point x="413" y="1512" type="line" smooth="yes"/>
      <point x="429" y="1529"/>
      <point x="443" y="1540"/>
      <point x="478" y="1540" type="curve" smooth="yes"/>
      <point x="598" y="1540" type="line" smooth="yes"/>
      <point x="644" y="1540"/>
      <point x="658" y="1531"/>
      <point x="679" y="1509" type="curve" smooth="yes"/>
      <point x="971" y="1201" type="line" smooth="yes"/>
      <point x="996" y="1174"/>
      <point x="1005" y="1157"/>
      <point x="975" y="1143" type="curve" smooth="yes"/>
      <point x="923" y="1120" type="line" smooth="yes"/>
      <point x="884" y="1102"/>
      <point x="876" y="1102"/>
      <point x="839" y="1122" type="curve" smooth="yes"/>
      <point x="594" y="1256" type="line" smooth="yes"/>
      <point x="545" y="1282"/>
      <point x="537" y="1278"/>
    </contour>
  </outline>
</glyph>
<glyph name="b" format="2">
  <advance height="2310" width="1116"/>
  <unicode hex="0062"/>
  <anchor x="737" y="1040" name="Anchor-0"/>
  <anchor x="550" y="0" name="Anchor-1"/>
  <anchor x="550" y="0" name="Anchor-2"/>
  <outline>
    <contour>
      <point x="510" y="520" type="curve" smooth="yes"/>
      <point x="510" y="262"/>
      <point x="534" y="204"/>
      <point x="576" y="204" type="curve" smooth="yes"/>
      <point x="614" y="204"/>
      <point x="646" y="262"/>
      <point x="646" y="520" type="curve" smooth="yes"/>
      <point x="646" y="778"/>
      <point x="614" y="836"/>
      <point x="576" y="836" type="curve" smooth="yes"/>
      <point x="524" y="836"/>
      <point x="510" y="778"/>
    </contour>
    <contour>
      <point x="46" y="1350" type="line" smooth="yes"/>
      <point x="15" y="1350"/>
      <point x="10" y="1354"/>
      <point x="10" y="1384" type="curve" smooth="yes"/>
      <point x="10" y="1529" type="line" smooth="yes"/>
      <point x="10" y="1556"/>
      <point x="21" y="1560"/>
      <point x="46" y="1560" type="curve" smooth="yes"/>
      <point x="462" y="1560" type="line" smooth="yes"/>
      <point x="494" y="1560"/>
      <point x="510" y="1559"/>
      <point x="510" y="1524" type="curve" smooth="yes"/>
      <point x="510" y="943" type="line" smooth="yes"/>
      <point x="510" y="902"/>
      <point x="517.557" y="898.746"/>
      <point x="526" y="916" type="curve" smooth="yes"/>
      <point x="572" y="1010"/>
      <point x="608" y="1078"/>
      <point x="772" y="1078" type="curve" smooth="yes"/>
      <point x="1010" y="1078"/>
      <point x="1086" y="880"/>
      <point x="1086" y="520" type="curve" smooth="yes"/>
      <point x="1086" y="160"/>
      <point x="1000" y="-40"/>
      <point x="742" y="-40" type="curve" smooth="yes"/>
      <point x="608" y="-40"/>
      <point x="566" y="8"/>
      <point x="533" y="103" type="curve" smooth="yes"/>
      <point x="523.989" y="128.938"/>
      <point x="510" y="123"/>
      <point x="510" y="84" type="curve" smooth="yes"/>
      <point x="510" y="36" type="line" smooth="yes"/>
      <point x="510" y="2"/>
      <point x="497" y="0"/>
      <point x="466" y="0" type="curve" smooth="yes"/>
      <point x="44" y="0" type="line" smooth="yes"/>
      <point x="17" y="0"/>
      <point x="10" y="5"/>
      <point x="10" y="34" type="curve" smooth="yes"/>
      <point x="10" y="178" type="line" smooth="yes"/>
      <point x="10" y="207"/>
      <point x="23" y="210"/>
      <point x="50" y="210" type="curve" smooth="yes"/>
      <point x="52" y="210" type="line" smooth="yes"/>
      <point x="86" y="210"/>
      <point x="90" y="217"/>
      <point x="90" y="252" type="curve" smooth="yes"/>
      <point x="90" y="1323" type="line" smooth="yes"/>
      <point x="90" y="1343"/>
      <point x="87" y="1350"/>
      <point x="68" y="1350" type="curve" smooth="yes"/>
    </contour>
  </outline>
</glyph>
<glyph name="c" format="2">
  <advance height="2310" width="988"/>
  <unicode hex="0063"/>
  <anchor x="566" y="1040" name="Anchor-0"/>
  <anchor x="564" y="0" name="Anchor-1"/>
  <anchor x="564" y="0" name="Anchor-2"/>
  <outline>
    <contour>
      <point x="30" y="510" type="curve" smooth="yes"/>
      <point x="30" y="810"/>
      <point x="146" y="1080"/>
      <point x="558" y="1080" type="curve" smooth="yes"/>
      <point x="882" y="1080"/>
      <point x="958" y="918"/>
      <point x="958" y="744" type="curve" smooth="yes"/>
      <point x="958" y="588"/>
      <point x="830" y="500"/>
      <point x="692" y="500" type="curve" smooth="yes"/>
      <point x="558" y="500"/>
      <point x="508" y="552"/>
      <point x="508" y="666" type="curve" smooth="yes"/>
      <point x="508" y="788"/>
      <point x="590" y="788"/>
      <point x="590" y="852" type="curve" smooth="yes"/>
      <point x="590" y="878"/>
      <point x="574" y="898"/>
      <point x="548" y="898" type="curve" smooth="yes"/>
      <point x="478" y="898"/>
      <point x="470" y="788"/>
      <point x="470" y="510" type="curve" smooth="yes"/>
      <point x="470" y="212"/>
      <point x="492" y="166"/>
      <point x="560" y="166" type="curve" smooth="yes"/>
      <point x="608" y="166"/>
      <point x="625" y="238"/>
      <point x="633" y="321" type="curve" smooth="yes"/>
      <point x="635.104" y="342.831"/>
      <point x="651" y="346"/>
      <point x="682" y="346" type="curve" smooth="yes"/>
      <point x="928" y="346" type="line" smooth="yes"/>
      <point x="962" y="346"/>
      <point x="959.223" y="342.892"/>
      <point x="959" y="315" type="curve" smooth="yes"/>
      <point x="957" y="64"/>
      <point x="828" y="-40"/>
      <point x="526" y="-40" type="curve" smooth="yes"/>
      <point x="114" y="-40"/>
      <point x="30" y="230"/>
    </contour>
  </outline>
</glyph>
<glyph name="j" format="2">
  <advance height="2310" width="600"/>
  <unicode hex="006A"/>
  <anchor x="142" y="-565" name="Anchor-1"/>
  <anchor x="142" y="-565" name="Anchor-2"/>
  <outline>
    <contour>
      <point x="80" y="1380" type="curve" smooth="yes"/>
      <point x="80" y="1516"/>
      <point x="188" y="1590"/>
      <point x="320" y="1590" type="curve" smooth="yes"/>
      <point x="452" y="1590"/>
      <point x="560" y="1516"/>
      <point x="560" y="1380" type="curve" smooth="yes"/>
      <point x="560" y="1244"/>
      <point x="452" y="1170"/>
      <point x="320" y="1170" type="curve" smooth="yes"/>
      <point x="188" y="1170"/>
      <point x="80" y="1244"/>
    </contour>
    <contour>
      <point x="96" y="830" type="curve" smooth="yes"/>
      <point x="82" y="830" type="line" smooth="yes"/>
      <point x="45" y="830"/>
      <point x="40" y="836"/>
      <point x="40" y="875" type="curve" smooth="yes"/>
      <point x="40" y="989" type="line" smooth="yes"/>
      <point x="40" y="1035"/>
      <point x="46" y="1040"/>
      <point x="90" y="1040" type="curve" smooth="yes"/>
      <point x="504" y="1040" type="line" smooth="yes"/>
      <point x="537" y="1040"/>
      <point x="540" y="1033"/>
      <point x="540" y="999" type="curve" smooth="yes"/>
      <point x="540" y="-64" type="line" smooth="yes"/>
      <point x="540" y="-386"/>
      <point x="406" y="-520"/>
      <point x="106" y="-520" type="curve" smooth="yes"/>
      <point x="-136" y="-520"/>
      <point x="-330" y="-422"/>
      <point x="-330" y="-228" type="curve" smooth="yes"/>
      <point x="-330" y="-108"/>
      <point x="-230" y="-16"/>
      <point x="-106" y="-16" type="curve" smooth="yes"/>
      <point x="38" y="-16"/>
      <point x="134" y="-102"/>
      <point x="134" y="-192" type="curve" smooth="yes"/>
      <point x="134" y="-306"/>
      <point x="54" y="-302"/>
      <point x="54" y="-324" type="curve" smooth="yes"/>
      <point x="54" y="-340"/>
      <point x="76" y="-350"/>
      <point x="112" y="-350" type="curve" smooth="yes"/>
      <point x="312" y="-350"/>
      <point x="120" y="-84"/>
      <point x="120" y="190" type="curve" smooth="yes"/>
      <point x="120" y="797" type="line" smooth="yes"/>
      <point x="120" y="820"/>
      <point x="119" y="830"/>
    </contour>
  </outline>
</glyph>
<glyph name="m" format="2">
  <advance height="2310" width="1640"/>
  <unicode hex="006D"/>
  <anchor x="864" y="1040" name="Anchor-0"/>
  <anchor x="805" y="0" name="Anchor-1"/>
  <anchor x="805" y="0" name="Anchor-2"/>
  <outline>
    <contour>
      <point x="10" y="38" type="curve" smooth="yes"/>
      <point x="10" y="166" type="line" smooth="yes"/>
      <point x="10" y="194"/>
      <point x="12" y="210"/>
      <point x="43" y="210" type="curve" smooth="yes"/>
      <point x="59" y="210" type="line" smooth="yes"/>
      <point x="89" y="210"/>
      <point x="90" y="219"/>
      <point x="90" y="250" type="curve" smooth="yes"/>
      <point x="90" y="784" type="line" smooth="yes"/>
      <point x="90" y="827"/>
      <point x="83" y="830"/>
      <point x="69" y="830" type="curve" smooth="yes"/>
      <point x="54" y="830" type="line" smooth="yes"/>
      <point x="25" y="830"/>
      <point x="10" y="831"/>
      <point x="10" y="870" type="curve" smooth="yes"/>
      <point x="10" y="991" type="line" smooth="yes"/>
      <point x="10" y="1032"/>
      <point x="20" y="1040"/>
      <point x="59" y="1040" type="curve" smooth="yes"/>
      <point x="422" y="1040" type="line" smooth="yes"/>
      <point x="456" y="1040"/>
      <point x="470" y="1038"/>
      <point x="470" y="1004" type="curve" smooth="yes"/>
      <point x="470" y="938" type="line" smooth="yes"/>
      <point x="470" y="907"/>
      <point x="481.227" y="892.074"/>
      <point x="502" y="943" type="curve" smooth="yes"/>
      <point x="533" y="1019"/>
      <point x="603" y="1080"/>
      <point x="726" y="1080" type="curve" smooth="yes"/>
      <point x="829" y="1080"/>
      <point x="906.168" y="1042.162"/>
      <point x="942" y="971" type="curve" smooth="yes"/>
      <point x="957.979" y="939.267"/>
      <point x="970.453" y="928.185"/>
      <point x="995" y="962" type="curve" smooth="yes"/>
      <point x="1058.807" y="1049.898"/>
      <point x="1150" y="1080"/>
      <point x="1236" y="1080" type="curve" smooth="yes"/>
      <point x="1430" y="1080"/>
      <point x="1550" y="952"/>
      <point x="1550" y="738" type="curve" smooth="yes"/>
      <point x="1550" y="248" type="line" smooth="yes"/>
      <point x="1550" y="212"/>
      <point x="1558" y="210"/>
      <point x="1585" y="210" type="curve" smooth="yes"/>
      <point x="1595" y="210" type="line" smooth="yes"/>
      <point x="1620" y="210"/>
      <point x="1630" y="205"/>
      <point x="1630" y="168" type="curve" smooth="yes"/>
      <point x="1630" y="56" type="line" smooth="yes"/>
      <point x="1630" y="12"/>
      <point x="1629" y="0"/>
      <point x="1585" y="0" type="curve" smooth="yes"/>
      <point x="1142" y="0" type="line" smooth="yes"/>
      <point x="1101" y="0"/>
      <point x="1091" y="5"/>
      <point x="1091" y="44" type="curve" smooth="yes"/>
      <point x="1091" y="162" type="line" smooth="yes"/>
      <point x="1091" y="192"/>
      <point x="1090" y="210"/>
      <point x="1107" y="210" type="curve" smooth="yes"/>
      <point x="1114" y="210" type="line" smooth="yes"/>
      <point x="1123" y="210"/>
      <point x="1130" y="218"/>
      <point x="1130" y="248" type="curve" smooth="yes"/>
      <point x="1130" y="706" type="line" smooth="yes"/>
      <point x="1130" y="784"/>
      <point x="1107" y="816"/>
      <point x="1075" y="816" type="curve" smooth="yes"/>
      <point x="1049" y="816"/>
      <point x="1030" y="802"/>
      <point x="1030" y="646" type="curve" smooth="yes"/>
      <point x="1030" y="252" type="line" smooth="yes"/>
      <point x="1030" y="230"/>
      <point x="1031" y="210"/>
      <point x="1044" y="210" type="curve" smooth="yes"/>
      <point x="1048" y="210" type="line" smooth="yes"/>
      <point x="1063" y="210"/>
      <point x="1071" y="208"/>
      <point x="1071" y="184" type="curve" smooth="yes"/>
      <point x="1071" y="46" type="line" smooth="yes"/>
      <point x="1071" y="5"/>
      <point x="1062" y="0"/>
      <point x="1019" y="0" type="curve" smooth="yes"/>
      <point x="610" y="0" type="line" smooth="yes"/>
      <point x="574" y="0"/>
      <point x="571" y="7"/>
      <point x="571" y="44" type="curve" smooth="yes"/>
      <point x="571" y="176" type="line" smooth="yes"/>
      <point x="571" y="204"/>
      <point x="574" y="210"/>
      <point x="591" y="210" type="curve" smooth="yes"/>
      <point x="594" y="210" type="line" smooth="yes"/>
      <point x="609" y="210"/>
      <point x="610" y="222"/>
      <point x="610" y="250" type="curve" smooth="yes"/>
      <point x="610" y="706" type="line" smooth="yes"/>
      <point x="610" y="784"/>
      <point x="588" y="816"/>
      <point x="556" y="816" type="curve" smooth="yes"/>
      <point x="530" y="816"/>
      <point x="510" y="802"/>
      <point x="510" y="646" type="curve" smooth="yes"/>
      <point x="510" y="254" type="line" smooth="yes"/>
      <point x="510" y="220"/>
      <point x="511" y="210"/>
      <point x="525" y="210" type="curve" smooth="yes"/>
      <point x="531" y="210" type="line" smooth="yes"/>
      <point x="549" y="210"/>
      <point x="551" y="202"/>
      <point x="551" y="176" type="curve" smooth="yes"/>
      <point x="551" y="40" type="line" smooth="yes"/>
      <point x="551" y="9"/>
      <point x="547" y="0"/>
      <point x="514" y="0" type="curve" smooth="yes"/>
      <point x="59" y="0" type="line" smooth="yes"/>
      <point x="25" y="0"/>
      <point x="10" y="1"/>
    </contour>
  </outline>
</glyph>
<glyph name="o" format="2">
  <advance height="2310" width="1056"/>
  <unicode hex="006F"/>
  <anchor x="528" y="1040" name="Anchor-0"/>
  <anchor x="525" y="0" name="Anchor-1"/>
  <anchor x="525" y="0" name="Anchor-2"/>
  <outline>
    <contour>
      <point x="480" y="540" type="curve" smooth="yes"/>
      <point x="480" y="232"/>
      <point x="480" y="160"/>
      <point x="528" y="160" type="curve" smooth="yes"/>
      <point x="576" y="160"/>
      <point x="576" y="232"/>
      <point x="576" y="500" type="curve" smooth="yes"/>
      <point x="576" y="808"/>
      <point x="576" y="880"/>
      <point x="528" y="880" type="curve" smooth="yes"/>
      <point x="480" y="880"/>
      <point x="480" y="808"/>
    </contour>
    <contour>
      <point x="30" y="490" type="curve" smooth="yes"/>
      <point x="30" y="810"/>
      <point x="146" y="1080"/>
      <point x="528" y="1080" type="curve" smooth="yes"/>
      <point x="910" y="1080"/>
      <point x="1026" y="820"/>
      <point x="1026" y="540" type="curve" smooth="yes"/>
      <point x="1026" y="220"/>
      <point x="910" y="-40"/>
      <point x="528" y="-40" type="curve" smooth="yes"/>
      <point x="146" y="-40"/>
      <point x="30" y="210"/>
    </contour>
  </outline>
</glyph>
<glyph name="p" format="2">
  <advance height="2310" width="1116"/>
  <unicode hex="0070"/>
  <anchor x="653" y="1040" name="Anchor-0"/>
  <anchor x="692" y="0" name="Anchor-1"/>
  <anchor x="692" y="0" name="Anchor-2"/>
  <outline>
    <contour>
      <point x="510" y="522" type="curve" smooth="yes"/>
      <point x="510" y="234"/>
      <point x="524" y="206"/>
      <point x="566" y="206" type="curve" smooth="yes"/>
      <point x="604" y="206"/>
      <point x="646" y="234"/>
      <point x="646" y="522" type="curve" smooth="yes"/>
      <point x="646" y="810"/>
      <point x="604" y="838"/>
      <point x="566" y="838" type="curve" smooth="yes"/>
      <point x="524" y="838"/>
      <point x="510" y="810"/>
    </contour>
    <contour>
      <point x="10" y="882" type="curve" smooth="yes"/>
      <point x="10" y="995" type="line" smooth="yes"/>
      <point x="10" y="1036"/>
      <point x="20" y="1040"/>
      <point x="59" y="1040" type="curve" smooth="yes"/>
      <point x="465" y="1040" type="line" smooth="yes"/>
      <point x="493" y="1040"/>
      <point x="510" y="1035"/>
      <point x="510" y="1004" type="curve" smooth="yes"/>
      <point x="510" y="950" type="line" smooth="yes"/>
      <point x="510" y="920"/>
      <point x="524.662" y="920.702"/>
      <point x="543" y="954" type="curve" smooth="yes"/>
      <point x="581" y="1023"/>
      <point x="644" y="1080"/>
      <point x="762" y="1080" type="curve" smooth="yes"/>
      <point x="1000" y="1080"/>
      <point x="1086" y="882"/>
      <point x="1086" y="522" type="curve" smooth="yes"/>
      <point x="1086" y="162"/>
      <point x="980" y="-38"/>
      <point x="742" y="-38" type="curve" smooth="yes"/>
      <point x="632" y="-38"/>
      <point x="587" y="4"/>
      <point x="551" y="74" type="curve" smooth="yes"/>
      <point x="529.857" y="115.109"/>
      <point x="510" y="124"/>
      <point x="510" y="26" type="curve" smooth="yes"/>
      <point x="510" y="-258" type="line" smooth="yes"/>
      <point x="510" y="-301"/>
      <point x="514" y="-310"/>
      <point x="549" y="-310" type="curve" smooth="yes"/>
      <point x="555" y="-310" type="line" smooth="yes"/>
      <point x="581" y="-310"/>
      <point x="590" y="-314"/>
      <point x="590" y="-342" type="curve" smooth="yes"/>
      <point x="590" y="-478" type="line" smooth="yes"/>
      <point x="590" y="-518"/>
      <point x="582" y="-520"/>
      <point x="541" y="-520" type="curve" smooth="yes"/>
      <point x="55" y="-520" type="line" smooth="yes"/>
      <point x="15" y="-520"/>
      <point x="10" y="-514"/>
      <point x="10" y="-476" type="curve" smooth="yes"/>
      <point x="10" y="-348" type="line" smooth="yes"/>
      <point x="10" y="-318"/>
      <point x="15" y="-310"/>
      <point x="47" y="-310" type="curve" smooth="yes"/>
      <point x="51" y="-310" type="line" smooth="yes"/>
      <point x="85" y="-310"/>
      <point x="90" y="-303"/>
      <point x="90" y="-257" type="curve" smooth="yes"/>
      <point x="90" y="778" type="line" smooth="yes"/>
      <point x="90" y="825"/>
      <point x="80" y="830"/>
      <point x="55" y="830" type="curve" smooth="yes"/>
      <point x="45" y="830" type="line" smooth="yes"/>
      <point x="16" y="830"/>
      <point x="10" y="835"/>
    </contour>
  </outline>
</glyph>
<glyph name="r" format="2">
  <advance height="2310" width="966"/>
  <unicode hex="0072"/>
  <anchor x="500" y="1040" name="Anchor-0"/>
  <anchor x="282" y="0" name="Anchor-1"/>
  <anchor x="282" y="0" name="Anchor-2"/>
  <outline>
    <contour>
      <point x="90" y="787" type="line" smooth="yes"/>
      <point x="90" y="820"/>
      <point x="89" y="830"/>
      <point x="56" y="830" type="curve" smooth="yes"/>
      <point x="46" y="830" type="line" smooth="yes"/>
      <point x="17" y="830"/>
      <point x="10" y="833"/>
      <point x="10" y="861" type="curve" smooth="yes"/>
      <point x="10" y="1000" type="line" smooth="yes"/>
      <point x="10" y="1032"/>
      <point x="18" y="1040"/>
      <point x="48" y="1040" type="curve" smooth="yes"/>
      <point x="438" y="1040" type="line" smooth="yes"/>
      <point x="464" y="1040"/>
      <point x="470" y="1035"/>
      <point x="470" y="1007" type="curve" smooth="yes"/>
      <point x="470" y="976" type="line" smooth="yes"/>
      <point x="470" y="932"/>
      <point x="478.34" y="917.278"/>
      <point x="490" y="944" type="curve" smooth="yes"/>
      <point x="514" y="999"/>
      <point x="581" y="1080"/>
      <point x="710" y="1080" type="curve" smooth="yes"/>
      <point x="848" y="1080"/>
      <point x="966" y="988"/>
      <point x="966" y="812" type="curve" smooth="yes"/>
      <point x="966" y="708"/>
      <point x="892" y="560"/>
      <point x="722" y="560" type="curve" smooth="yes"/>
      <point x="594" y="560"/>
      <point x="550" y="600"/>
      <point x="550" y="702" type="curve" smooth="yes"/>
      <point x="550" y="766"/>
      <point x="590" y="772"/>
      <point x="590" y="816" type="curve" smooth="yes"/>
      <point x="590" y="826"/>
      <point x="584" y="842"/>
      <point x="565" y="842" type="curve" smooth="yes"/>
      <point x="519" y="842"/>
      <point x="510" y="802"/>
      <point x="510" y="656" type="curve" smooth="yes"/>
      <point x="510" y="245" type="line" smooth="yes"/>
      <point x="510" y="213"/>
      <point x="517" y="210"/>
      <point x="550" y="210" type="curve" smooth="yes"/>
      <point x="562" y="210" type="line" smooth="yes"/>
      <point x="587" y="210"/>
      <point x="590" y="203"/>
      <point x="590" y="177" type="curve" smooth="yes"/>
      <point x="590" y="40" type="line" smooth="yes"/>
      <point x="590" y="9"/>
      <point x="589" y="0"/>
      <point x="558" y="0" type="curve" smooth="yes"/>
      <point x="54" y="0" type="line" smooth="yes"/>
      <point x="21" y="0"/>
      <point x="10" y="9"/>
      <point x="10" y="43" type="curve" smooth="yes"/>
      <point x="10" y="180" type="line" smooth="yes"/>
      <point x="10" y="209"/>
      <point x="19" y="210"/>
      <point x="48" y="210" type="curve" smooth="yes"/>
      <point x="53" y="210" type="line" smooth="yes"/>
      <point x="87" y="210"/>
      <point x="90" y="213"/>
      <point x="90" y="246" type="curve" smooth="yes"/>
    </contour>
  </outline>
</glyph>
<glyph name="yen" format="2">
  <advance width="1380"/>
  <unicode hex="00A5"/>
  <anchor x="786" y="1500" name="Anchor-0"/>
  <anchor x="701" y="0" name="Anchor-1"/>
  <anchor x="701" y="0" name="Anchor-2"/>
  <outline>
    <contour>
      <point x="147" y="870" type="curve" smooth="yes"/>
      <point x="1210" y="870" type="line" smooth="yes"/>
      <point x="1264" y="870"/>
      <point x="1270" y="863"/>
      <point x="1270" y="831" type="curve" smooth="yes"/>
      <point x="1270" y="681" type="line" smooth="yes"/>
      <point x="1270" y="646"/>
      <point x="1268" y="640"/>
      <point x="1207" y="640" type="curve" smooth="yes"/>
      <point x="161" y="640" type="line" smooth="yes"/>
      <point x="98" y="640"/>
      <point x="88" y="645"/>
      <point x="88" y="680" type="curve" smooth="yes"/>
      <point x="88" y="829" type="line" smooth="yes"/>
      <point x="88" y="861"/>
      <point x="91" y="870"/>
    </contour>
    <contour>
      <point x="147" y="580" type="curve" smooth="yes"/>
      <point x="1209" y="580" type="line" smooth="yes"/>
      <point x="1263" y="580"/>
      <point x="1268" y="573"/>
      <point x="1268" y="541" type="curve" smooth="yes"/>
      <point x="1268" y="391" type="line" smooth="yes"/>
      <point x="1268" y="356"/>
      <point x="1267" y="350"/>
      <point x="1206" y="350" type="curve" smooth="yes"/>
      <point x="161" y="350" type="line" smooth="yes"/>
      <point x="99" y="350"/>
      <point x="88" y="355"/>
      <point x="88" y="390" type="curve" smooth="yes"/>
      <point x="88" y="539" type="line" smooth="yes"/>
      <point x="88" y="571"/>
      <point x="91" y="580"/>
    </contour>
    <component base="Y"/>
  </outline>
</glyph>
<glyph name="degree" format="2">
  <advance width="639"/>
  <unicode hex="00B0"/>
  <outline>
    <contour>
      <point x="320" y="1120" type="curve" smooth="yes"/>
      <point x="184" y="1120"/>
      <point x="80" y="1223"/>
      <point x="80" y="1359" type="curve" smooth="yes"/>
      <point x="80" y="1495"/>
      <point x="184" y="1600"/>
      <point x="320" y="1600" type="curve" smooth="yes"/>
      <point x="457" y="1600"/>
      <point x="561" y="1496"/>
      <point x="561" y="1359" type="curve" smooth="yes"/>
      <point x="561" y="1223"/>
      <point x="456" y="1120"/>
    </contour>
    <contour>
      <point x="320" y="1270" type="curve" smooth="yes"/>
      <point x="374" y="1270"/>
      <point x="410" y="1306"/>
      <point x="410" y="1359" type="curve" smooth="yes"/>
      <point x="410" y="1413"/>
      <point x="374" y="1450"/>
      <point x="320" y="1450" type="curve" smooth="yes"/>
      <point x="267" y="1450"/>
      <point x="229" y="1413"/>
      <point x="229" y="1359" type="curve" smooth="yes"/>
      <point x="229" y="1306"/>
      <point x="267" y="1270"/>
    </contour>
  </outline>
</glyph>
<glyph name="mu" format="2">
  <advance width="1120"/>
  <unicode hex="00B5"/>
  <anchor x="620" y="1040" name="Anchor-0"/>
  <anchor x="532" y="0" name="Anchor-1"/>
  <anchor x="532" y="0" name="Anchor-2"/>
  <anchor x="932" y="0" name="Anchor-3"/>
  <outline>
    <contour>
      <point x="302" y="847" type="line"/>
      <point x="302" y="-182" type="line" smooth="yes"/>
      <point x="302" y="-353"/>
      <point x="506" y="-383"/>
      <point x="524" y="-375" type="curve" smooth="yes"/>
      <point x="533" y="-371"/>
      <point x="471" y="-346"/>
      <point x="471" y="-252" type="curve" smooth="yes"/>
      <point x="471" y="-157"/>
      <point x="559" y="-86"/>
      <point x="694" y="-86" type="curve" smooth="yes"/>
      <point x="844" y="-86"/>
      <point x="917" y="-158"/>
      <point x="917" y="-280" type="curve" smooth="yes"/>
      <point x="917" y="-401"/>
      <point x="810" y="-520"/>
      <point x="550" y="-520" type="curve" smooth="yes"/>
      <point x="268" y="-520"/>
      <point x="90" y="-409"/>
      <point x="90" y="-182" type="curve" smooth="yes"/>
      <point x="90" y="847" type="line"/>
    </contour>
    <component base="u"/>
  </outline>
</glyph>
<glyph name="onehalf" format="2">
  <advance width="2000"/>
  <unicode hex="00BD"/>
  <outline>
    <contour>
      <point x="1492" y="1450" type="line"/>
      <point x="1620" y="1450" type="line"/>
      <point x="698" y="-50" type="line"/>
      <point x="560" y="-50" type="line"/>
    </contour>
    <component base="one" xScale="0.6" yScale="0.6" xOffset="214.0" yOffset="622.0"/>
    <component base="two" xScale="0.6" yScale="0.6" xOffset="1152.0" yOffset="-16.0"/>
  </outline>
</glyph>
<glyph name="threequarters" format="2">
  <advance width="2000"/>
  <unicode hex="00BE"/>
  <outline>
    <contour>
      <point x="1432" y="1400" type="line"/>
      <point x="1560" y="1400" type="line"/>
      <point x="638" y="-100" type="line"/>
      <point x="500" y="-100" type="line"/>
    </contour>
    <component base="three" xScale="0.6" yScale="0.6" xOffset="130.0" yOffset="614.0"/>
    <component base="four" xScale="0.6" yScale="0.6" xOffset="1070.0" yOffset="-36.0"/>
  </outline>
</glyph>
<glyph name="Eth" format="2">
  <advance width="1320"/>
  <unicode hex="00D0"/>
  <anchor x="694" y="1500" name="Anchor-0"/>
  <anchor x="693" y="0" name="Anchor-1"/>
  <anchor x="693" y="0" name="Anchor-2"/>
  <outline>
    <contour>
      <point x="57" y="900" type="curve" smooth="yes"/>
      <point x="682" y="900" type="line" smooth="yes"/>
      <point x="720" y="900"/>
      <point x="723" y="893"/>
      <point x="723" y="861" type="curve" smooth="yes"/>
      <point x="723" y="711" type="line" smooth="yes"/>
      <point x="723" y="676"/>
      <point x="723" y="670"/>
      <point x="680" y="670" type="curve" smooth="yes"/>
      <point x="67" y="670" type="line" smooth="yes"/>
      <point x="23" y="670"/>
      <point x="16" y="675"/>
      <point x="16" y="710" type="curve" smooth="yes"/>
      <point x="16" y="859" type="line" smooth="yes"/>
      <point x="16" y="891"/>
      <point x="18" y="900"/>
    </contour>
    <component base="D"/>
  </outline>
</glyph>
<glyph name="ae" format="2">
  <advance height="2310" width="1478"/>
  <unicode hex="00E6"/>
  <outline>
    <contour>
      <point x="996" y="658" type="curve" smooth="yes"/>
      <point x="1032" y="658" type="line" smooth="yes"/>
      <point x="1060" y="658"/>
      <point x="1057.017" y="657.944"/>
      <point x="1058" y="685" type="curve" smooth="yes"/>
      <point x="1062" y="795"/>
      <point x="1056" y="882"/>
      <point x="1018" y="882" type="curve" smooth="yes"/>
      <point x="972" y="882"/>
      <point x="974" y="806"/>
      <point x="970" y="695" type="curve" smooth="yes"/>
      <point x="968.945" y="665.744"/>
      <point x="961" y="658"/>
    </contour>
    <contour>
      <point x="551.656" y="410" type="line" smooth="yes"/>
      <point x="551.656" y="427"/>
      <point x="545.656" y="437"/>
      <point x="533.656" y="437" type="curve" smooth="yes"/>
      <point x="520.656" y="437" type="line" smooth="yes"/>
      <point x="498.656" y="437"/>
      <point x="463.656" y="420"/>
      <point x="463.656" y="316" type="curve" smooth="yes"/>
      <point x="463.656" y="232"/>
      <point x="489.656" y="199"/>
      <point x="509.656" y="199" type="curve" smooth="yes"/>
      <point x="531.656" y="199"/>
      <point x="551.656" y="250"/>
      <point x="551.656" y="342" type="curve" smooth="yes"/>
    </contour>
    <contour>
      <point x="9.656" y="256" type="curve" smooth="yes"/>
      <point x="9.656" y="484"/>
      <point x="193.656" y="588"/>
      <point x="467.656" y="588" type="curve" smooth="yes"/>
      <point x="515.656" y="588" type="line" smooth="yes"/>
      <point x="538.656" y="588"/>
      <point x="541.656" y="590"/>
      <point x="541.656" y="614" type="curve" smooth="yes"/>
      <point x="541.656" y="664" type="line" smooth="yes"/>
      <point x="541.656" y="768"/>
      <point x="582.656" y="898"/>
      <point x="502.656" y="898" type="curve" smooth="yes"/>
      <point x="472.656" y="898"/>
      <point x="440.656" y="880"/>
      <point x="440.656" y="868" type="curve" smooth="yes"/>
      <point x="440.656" y="845"/>
      <point x="487.656" y="844"/>
      <point x="487.656" y="756" type="curve" smooth="yes"/>
      <point x="487.656" y="658"/>
      <point x="395.656" y="600"/>
      <point x="287.656" y="600" type="curve" smooth="yes"/>
      <point x="165.656" y="600"/>
      <point x="69.656" y="678"/>
      <point x="69.656" y="786" type="curve" smooth="yes"/>
      <point x="69.656" y="940"/>
      <point x="233.656" y="1070"/>
      <point x="475.656" y="1070" type="curve" smooth="yes"/>
      <point x="624.416" y="1070"/>
      <point x="680.04" y="1010.521"/>
      <point x="708" y="953.559" type="curve" smooth="yes"/>
      <point x="738.721" y="890.971"/>
      <point x="767.859" y="889.748"/>
      <point x="804" y="950.748" type="curve" smooth="yes"/>
      <point x="840.514" y="1012.377"/>
      <point x="916.773" y="1080"/>
      <point x="1070" y="1080" type="curve" smooth="yes"/>
      <point x="1380" y="1080"/>
      <point x="1448" y="816"/>
      <point x="1448" y="490" type="curve" smooth="yes"/>
      <point x="1448" y="459"/>
      <point x="1444" y="452"/>
      <point x="1414" y="452" type="curve" smooth="yes"/>
      <point x="988" y="452" type="line" smooth="yes"/>
      <point x="960" y="452"/>
      <point x="964.823" y="447.079"/>
      <point x="965" y="422" type="curve" smooth="yes"/>
      <point x="966" y="280"/>
      <point x="967" y="166"/>
      <point x="1040" y="166" type="curve" smooth="yes"/>
      <point x="1109" y="166"/>
      <point x="1116" y="218"/>
      <point x="1124" y="322" type="curve" smooth="yes"/>
      <point x="1125.27" y="338.504"/>
      <point x="1136" y="346"/>
      <point x="1160" y="346" type="curve" smooth="yes"/>
      <point x="1412" y="346" type="line" smooth="yes"/>
      <point x="1440" y="346"/>
      <point x="1441.764" y="342.492"/>
      <point x="1440" y="320" type="curve" smooth="yes"/>
      <point x="1420" y="65"/>
      <point x="1340" y="-40"/>
      <point x="1056" y="-40" type="curve" smooth="yes"/>
      <point x="906.813" y="-40"/>
      <point x="812.541" y="18.217"/>
      <point x="758.656" y="88" type="curve" smooth="yes"/>
      <point x="742.748" y="108.602"/>
      <point x="731.854" y="112.801"/>
      <point x="709.656" y="91" type="curve" smooth="yes"/>
      <point x="653.656" y="36"/>
      <point x="600.656" y="-20"/>
      <point x="389.656" y="-20" type="curve" smooth="yes"/>
      <point x="111.656" y="-20"/>
      <point x="9.656" y="78"/>
    </contour>
  </outline>
</glyph>
<glyph name="Dcroat" format="2">
  <advance width="1320"/>
  <unicode hex="0110"/>
  <anchor x="694" y="1500" name="Anchor-0"/>
  <anchor x="693" y="0" name="Anchor-1"/>
  <anchor x="693" y="0" name="Anchor-2"/>
  <outline>
    <contour>
      <point x="51" y="900" type="curve" smooth="yes"/>
      <point x="672" y="900" type="line" smooth="yes"/>
      <point x="710" y="900"/>
      <point x="713" y="893"/>
      <point x="713" y="861" type="curve" smooth="yes"/>
      <point x="713" y="711" type="line" smooth="yes"/>
      <point x="713" y="676"/>
      <point x="713" y="670"/>
      <point x="670" y="670" type="curve" smooth="yes"/>
      <point x="61" y="670" type="line" smooth="yes"/>
      <point x="17" y="670"/>
      <point x="10" y="675"/>
      <point x="10" y="710" type="curve" smooth="yes"/>
      <point x="10" y="859" type="line" smooth="yes"/>
      <point x="10" y="891"/>
      <point x="12" y="900"/>
    </contour>
    <component base="D"/>
  </outline>
</glyph>
<glyph name="dcroat" format="2">
  <advance height="2309" width="1116"/>
  <unicode hex="0111"/>
  <anchor x="401" y="1040" name="Anchor-0"/>
  <anchor x="1289" y="1040" name="Anchor-1"/>
  <anchor x="522" y="0" name="Anchor-2"/>
  <anchor x="1289" y="1040" name="Anchor-3"/>
  <outline>
    <contour>
      <point x="547" y="1290" type="curve" smooth="yes"/>
      <point x="1070" y="1290" type="line" smooth="yes"/>
      <point x="1103" y="1290"/>
      <point x="1106" y="1283"/>
      <point x="1106" y="1251" type="curve" smooth="yes"/>
      <point x="1106" y="1101" type="line" smooth="yes"/>
      <point x="1106" y="1066"/>
      <point x="1105" y="1060"/>
      <point x="1068" y="1060" type="curve" smooth="yes"/>
      <point x="556" y="1060" type="line" smooth="yes"/>
      <point x="518" y="1060"/>
      <point x="511" y="1065"/>
      <point x="511" y="1100" type="curve" smooth="yes"/>
      <point x="511" y="1249" type="line" smooth="yes"/>
      <point x="511" y="1281"/>
      <point x="513" y="1290"/>
    </contour>
    <component base="d"/>
  </outline>
</glyph>
<glyph name="lslash" format="2">
  <advance height="2309" width="600"/>
  <unicode hex="0142"/>
  <anchor x="298" y="1696" name="Anchor-0"/>
  <anchor x="761" y="1040" name="Anchor-1"/>
  <anchor x="305" y="0" name="Anchor-2"/>
  <anchor x="761" y="1040" name="Anchor-3"/>
  <outline>
    <contour>
      <point x="35" y="850" type="curve" smooth="yes"/>
      <point x="555" y="1105" type="line" smooth="yes"/>
      <point x="577" y="1115"/>
      <point x="579" y="1105"/>
      <point x="579" y="1068" type="curve" smooth="yes"/>
      <point x="579" y="958" type="line" smooth="yes"/>
      <point x="579" y="921"/>
      <point x="575" y="920"/>
      <point x="553" y="906" type="curve" smooth="yes"/>
      <point x="43" y="657" type="line" smooth="yes"/>
      <point x="23" y="648"/>
      <point x="19" y="655"/>
      <point x="19" y="691" type="curve" smooth="yes"/>
      <point x="19" y="815" type="line" smooth="yes"/>
      <point x="19" y="839"/>
      <point x="21" y="841"/>
    </contour>
    <component base="l"/>
  </outline>
</glyph>
<glyph name="Eng" format="2">
  <advance height="2310" width="1344"/>
  <unicode hex="014A"/>
  <outline>
    <contour>
      <point x="78" y="1230" type="curve" smooth="yes"/>
      <point x="60" y="1230" type="line" smooth="yes"/>
      <point x="15" y="1230"/>
      <point x="10" y="1237"/>
      <point x="10" y="1281" type="curve" smooth="yes"/>
      <point x="10" y="1447" type="line" smooth="yes"/>
      <point x="10" y="1493"/>
      <point x="35" y="1500"/>
      <point x="76" y="1500" type="curve" smooth="yes"/>
      <point x="498" y="1500" type="line" smooth="yes"/>
      <point x="529" y="1500"/>
      <point x="554" y="1492"/>
      <point x="554" y="1450" type="curve" smooth="yes"/>
      <point x="554" y="1414" type="line" smooth="yes"/>
      <point x="554" y="1365"/>
      <point x="582.659" y="1345.246"/>
      <point x="605" y="1382" type="curve" smooth="yes"/>
      <point x="667" y="1484"/>
      <point x="761" y="1540"/>
      <point x="900" y="1540" type="curve" smooth="yes"/>
      <point x="1194" y="1540"/>
      <point x="1304" y="1372"/>
      <point x="1304" y="1128" type="curve" smooth="yes"/>
      <point x="1304" y="-64" type="line" smooth="yes"/>
      <point x="1304" y="-386"/>
      <point x="1019" y="-520"/>
      <point x="719" y="-520" type="curve" smooth="yes"/>
      <point x="477" y="-520"/>
      <point x="283" y="-422"/>
      <point x="283" y="-228" type="curve" smooth="yes"/>
      <point x="283" y="-108"/>
      <point x="383" y="-16"/>
      <point x="507" y="-16" type="curve" smooth="yes"/>
      <point x="651" y="-16"/>
      <point x="747" y="-102"/>
      <point x="747" y="-192" type="curve" smooth="yes"/>
      <point x="747" y="-306"/>
      <point x="667" y="-302"/>
      <point x="667" y="-324" type="curve" smooth="yes"/>
      <point x="667" y="-340"/>
      <point x="679" y="-350"/>
      <point x="715" y="-350" type="curve" smooth="yes"/>
      <point x="915" y="-350"/>
      <point x="834" y="-134"/>
      <point x="834" y="140" type="curve" smooth="yes"/>
      <point x="834" y="1126" type="line" smooth="yes"/>
      <point x="834" y="1234"/>
      <point x="796" y="1306"/>
      <point x="734" y="1306" type="curve" smooth="yes"/>
      <point x="628" y="1306"/>
      <point x="594" y="1232"/>
      <point x="594" y="1026" type="curve" smooth="yes"/>
      <point x="594" y="309" type="line" smooth="yes"/>
      <point x="594" y="279"/>
      <point x="598" y="270"/>
      <point x="630" y="270" type="curve" smooth="yes"/>
      <point x="654" y="270" type="line" smooth="yes"/>
      <point x="685" y="270"/>
      <point x="694" y="266"/>
      <point x="694" y="233" type="curve" smooth="yes"/>
      <point x="694" y="37" type="line" smooth="yes"/>
      <point x="694" y="2"/>
      <point x="676" y="0"/>
      <point x="644" y="0" type="curve" smooth="yes"/>
      <point x="42" y="0" type="line" smooth="yes"/>
      <point x="11" y="0"/>
      <point x="10" y="9"/>
      <point x="10" y="41" type="curve" smooth="yes"/>
      <point x="10" y="228" type="line" smooth="yes"/>
      <point x="10" y="264"/>
      <point x="15" y="270"/>
      <point x="50" y="270" type="curve" smooth="yes"/>
      <point x="74" y="270" type="line" smooth="yes"/>
      <point x="115" y="270"/>
      <point x="124" y="271"/>
      <point x="124" y="312" type="curve" smooth="yes"/>
      <point x="124" y="1184" type="line" smooth="yes"/>
      <point x="124" y="1225"/>
      <point x="118" y="1230"/>
    </contour>
  </outline>
</glyph>
<glyph name="eng" format="2">
  <advance height="2310" width="1040"/>
  <unicode hex="014B"/>
  <outline>
    <contour>
      <point x="64" y="830" type="curve" smooth="yes"/>
      <point x="60" y="830" type="line" smooth="yes"/>
      <point x="15" y="830"/>
      <point x="10" y="837"/>
      <point x="10" y="881" type="curve" smooth="yes"/>
      <point x="10" y="987" type="line" smooth="yes"/>
      <point x="10" y="1033"/>
      <point x="35" y="1040"/>
      <point x="76" y="1040" type="curve" smooth="yes"/>
      <point x="414" y="1040" type="line" smooth="yes"/>
      <point x="445" y="1040"/>
      <point x="470" y="1032"/>
      <point x="470" y="990" type="curve" smooth="yes"/>
      <point x="470" y="954" type="line" smooth="yes"/>
      <point x="470" y="905"/>
      <point x="495.542" y="882.389"/>
      <point x="511" y="922" type="curve" smooth="yes"/>
      <point x="543" y="1004"/>
      <point x="607" y="1080"/>
      <point x="736" y="1080" type="curve" smooth="yes"/>
      <point x="940" y="1080"/>
      <point x="1000" y="952"/>
      <point x="1000" y="738" type="curve" smooth="yes"/>
      <point x="1000" y="-64" type="line" smooth="yes"/>
      <point x="1000" y="-386"/>
      <point x="765" y="-520"/>
      <point x="465" y="-520" type="curve" smooth="yes"/>
      <point x="223" y="-520"/>
      <point x="29" y="-422"/>
      <point x="29" y="-228" type="curve" smooth="yes"/>
      <point x="29" y="-108"/>
      <point x="129" y="-16"/>
      <point x="253" y="-16" type="curve" smooth="yes"/>
      <point x="397" y="-16"/>
      <point x="493" y="-102"/>
      <point x="493" y="-192" type="curve" smooth="yes"/>
      <point x="493" y="-306"/>
      <point x="413" y="-302"/>
      <point x="413" y="-324" type="curve" smooth="yes"/>
      <point x="413" y="-340"/>
      <point x="425" y="-350"/>
      <point x="461" y="-350" type="curve" smooth="yes"/>
      <point x="661" y="-350"/>
      <point x="580" y="-134"/>
      <point x="580" y="140" type="curve" smooth="yes"/>
      <point x="580" y="706" type="line" smooth="yes"/>
      <point x="580" y="814"/>
      <point x="572" y="846"/>
      <point x="540" y="846" type="curve" smooth="yes"/>
      <point x="514" y="846"/>
      <point x="510" y="772"/>
      <point x="510" y="566" type="curve" smooth="yes"/>
      <point x="510" y="249" type="line" smooth="yes"/>
      <point x="510" y="219"/>
      <point x="510" y="210"/>
      <point x="532" y="210" type="curve" smooth="yes"/>
      <point x="536" y="210" type="line" smooth="yes"/>
      <point x="557" y="210"/>
      <point x="560" y="206"/>
      <point x="560" y="173" type="curve" smooth="yes"/>
      <point x="560" y="37" type="line" smooth="yes"/>
      <point x="560" y="2"/>
      <point x="542" y="0"/>
      <point x="510" y="0" type="curve" smooth="yes"/>
      <point x="42" y="0" type="line" smooth="yes"/>
      <point x="11" y="0"/>
      <point x="10" y="9"/>
      <point x="10" y="41" type="curve" smooth="yes"/>
      <point x="10" y="168" type="line" smooth="yes"/>
      <point x="10" y="204"/>
      <point x="15" y="210"/>
      <point x="50" y="210" type="curve" smooth="yes"/>
      <point x="55" y="210" type="line" smooth="yes"/>
      <point x="86" y="210"/>
      <point x="90" y="211"/>
      <point x="90" y="252" type="curve" smooth="yes"/>
      <point x="90" y="784" type="line" smooth="yes"/>
      <point x="90" y="825"/>
      <point x="84" y="830"/>
    </contour>
  </outline>
</glyph>
<glyph name="OE" format="2">
  <advance width="1779"/>
  <unicode hex="0152"/>
  <anchor x="1312.834" y="1500.0" name="Anchor-0"/>
  <anchor x="1284.834" y="0.0" name="Anchor-1"/>
  <anchor x="1284.834" y="0.0" name="Anchor-2"/>
  <anchor x="1594.834" y="50.0" name="Anchor-3"/>
  <outline>
    <contour>
      <point x="850" y="1500" type="line"/>
      <point x="850" y="1230" type="line"/>
      <point x="700" y="1230" type="line" smooth="yes"/>
      <point x="622" y="1230"/>
      <point x="540" y="1114"/>
      <point x="540" y="750" type="curve" smooth="yes"/>
      <point x="540" y="386"/>
      <point x="642" y="270"/>
      <point x="700" y="270" type="curve" smooth="yes"/>
      <point x="850" y="270" type="line"/>
      <point x="850" y="0" type="line"/>
      <point x="630" y="0" type="line" smooth="yes"/>
      <point x="134" y="0"/>
      <point x="10" y="324"/>
      <point x="10" y="750" type="curve" smooth="yes"/>
      <point x="10" y="1176"/>
      <point x="154" y="1500"/>
      <point x="630" y="1500" type="curve" smooth="yes"/>
    </contour>
    <component base="E" xOffset="608.999"/>
  </outline>
</glyph>
<glyph name="tbar" format="2">
  <advance height="2309" width="717"/>
  <unicode hex="0167"/>
  <anchor x="416.853" y="1277.0" name="Anchor-0"/>
  <anchor x="606.853" y="1153.0" name="Anchor-1"/>
  <anchor x="429.853" y="0.0" name="Anchor-2"/>
  <anchor x="606.853" y="1153.0" name="Anchor-3"/>
  <outline>
    <contour>
      <point x="49" y="657" type="curve" smooth="yes"/>
      <point x="670" y="657" type="line" smooth="yes"/>
      <point x="709" y="657"/>
      <point x="713" y="650"/>
      <point x="713" y="618" type="curve" smooth="yes"/>
      <point x="713" y="468" type="line" smooth="yes"/>
      <point x="713" y="433"/>
      <point x="712" y="427"/>
      <point x="668" y="427" type="curve" smooth="yes"/>
      <point x="59" y="427" type="line" smooth="yes"/>
      <point x="14" y="427"/>
      <point x="6" y="432"/>
      <point x="6" y="467" type="curve" smooth="yes"/>
      <point x="6" y="616" type="line" smooth="yes"/>
      <point x="6" y="648"/>
      <point x="9" y="657"/>
    </contour>
    <component base="t"/>
  </outline>
</glyph>
<glyph name="longs" format="2">
  <advance height="2310" width="700"/>
  <unicode hex="017F"/>
  <outline>
    <contour>
      <point x="510" y="248" type="line" smooth="yes"/>
      <point x="510" y="215"/>
      <point x="516" y="210"/>
      <point x="551" y="210" type="curve" smooth="yes"/>
      <point x="593" y="210" type="line" smooth="yes"/>
      <point x="632" y="210"/>
      <point x="650" y="206"/>
      <point x="650" y="163" type="curve" smooth="yes"/>
      <point x="650" y="46" type="line" smooth="yes"/>
      <point x="650" y="3"/>
      <point x="643" y="0"/>
      <point x="599" y="0" type="curve" smooth="yes"/>
      <point x="67" y="0" type="line" smooth="yes"/>
      <point x="25" y="0"/>
      <point x="10" y="6"/>
      <point x="10" y="51" type="curve" smooth="yes"/>
      <point x="10" y="155" type="line" smooth="yes"/>
      <point x="10" y="196"/>
      <point x="12" y="210"/>
      <point x="43" y="210" type="curve" smooth="yes"/>
      <point x="51" y="210" type="line" smooth="yes"/>
      <point x="71" y="210"/>
      <point x="90" y="212"/>
      <point x="90" y="252" type="curve" smooth="yes"/>
      <point x="90" y="1144" type="line" smooth="yes"/>
      <point x="90" y="1366"/>
      <point x="194" y="1600"/>
      <point x="554" y="1600" type="curve" smooth="yes"/>
      <point x="856" y="1600"/>
      <point x="950" y="1462"/>
      <point x="950" y="1308" type="curve" smooth="yes"/>
      <point x="950" y="1148"/>
      <point x="840" y="1086"/>
      <point x="716" y="1086" type="curve" smooth="yes"/>
      <point x="592" y="1086"/>
      <point x="526" y="1162"/>
      <point x="526" y="1272" type="curve" smooth="yes"/>
      <point x="526" y="1366"/>
      <point x="578" y="1380"/>
      <point x="578" y="1402" type="curve" smooth="yes"/>
      <point x="578" y="1416"/>
      <point x="560" y="1426"/>
      <point x="540" y="1426" type="curve" smooth="yes"/>
      <point x="430" y="1426"/>
      <point x="510" y="1234"/>
      <point x="510" y="1100" type="curve" smooth="yes"/>
    </contour>
  </outline>
</glyph>
<glyph name="dotaccent" format="2">
  <advance width="1000"/>
  <unicode hex="02D9"/>
  <anchor x="497" y="1040" name="_Anchor-0"/>
  <outline>
    <contour>
      <point x="501" y="1269" type="curve" smooth="yes"/>
      <point x="395" y="1269"/>
      <point x="309" y="1355"/>
      <point x="309" y="1461" type="curve" smooth="yes"/>
      <point x="309" y="1567"/>
      <point x="395" y="1653"/>
      <point x="501" y="1653" type="curve" smooth="yes"/>
      <point x="607" y="1653"/>
      <point x="693" y="1567"/>
      <point x="693" y="1461" type="curve" smooth="yes"/>
      <point x="693" y="1355"/>
      <point x="607" y="1269"/>
    </contour>
  </outline>
</glyph>
<glyph name="Be-cy" format="2">
  <advance width="1205"/>
  <unicode hex="0411"/>
  <outline>
    <contour>
      <point x="610" y="570" type="line" smooth="yes"/>
      <point x="568" y="570"/>
      <point x="560" y="568"/>
      <point x="560" y="526" type="curve" smooth="yes"/>
      <point x="560" y="309" type="line" smooth="yes"/>
      <point x="560" y="282"/>
      <point x="563" y="270"/>
      <point x="589" y="270" type="curve" smooth="yes"/>
      <point x="620" y="270" type="line" smooth="yes"/>
      <point x="682" y="270"/>
      <point x="730" y="322"/>
      <point x="730" y="430" type="curve" smooth="yes"/>
      <point x="730" y="538"/>
      <point x="682" y="570"/>
      <point x="620" y="570" type="curve" smooth="yes"/>
    </contour>
    <contour>
      <point x="98" y="270" type="line" smooth="yes"/>
      <point x="122" y="270"/>
      <point x="130" y="273"/>
      <point x="130" y="296" type="curve" smooth="yes"/>
      <point x="130" y="1182" type="line" smooth="yes"/>
      <point x="130" y="1220"/>
      <point x="125" y="1230"/>
      <point x="84" y="1230" type="curve" smooth="yes"/>
      <point x="42" y="1230" type="line" smooth="yes"/>
      <point x="17" y="1230"/>
      <point x="10" y="1234"/>
      <point x="10" y="1258" type="curve" smooth="yes"/>
      <point x="10" y="1454" type="line" smooth="yes"/>
      <point x="10" y="1498"/>
      <point x="23" y="1500"/>
      <point x="64" y="1500" type="curve" smooth="yes"/>
      <point x="1111" y="1500" type="line" smooth="yes"/>
      <point x="1132" y="1500"/>
      <point x="1135" y="1493"/>
      <point x="1135" y="1471" type="curve" smooth="yes"/>
      <point x="1135" y="890" type="line" smooth="yes"/>
      <point x="1135" y="871"/>
      <point x="1126" y="870"/>
      <point x="1107" y="870" type="curve" smooth="yes"/>
      <point x="900" y="870" type="line" smooth="yes"/>
      <point x="880" y="870"/>
      <point x="880" y="875"/>
      <point x="880" y="894" type="curve" smooth="yes"/>
      <point x="877" y="1153"/>
      <point x="809" y="1230"/>
      <point x="680" y="1230" type="curve" smooth="yes"/>
      <point x="618" y="1230" type="line" smooth="yes"/>
      <point x="564" y="1230"/>
      <point x="560" y="1222"/>
      <point x="560" y="1167" type="curve" smooth="yes"/>
      <point x="560" y="886" type="line" smooth="yes"/>
      <point x="560" y="831"/>
      <point x="569" y="830"/>
      <point x="624" y="830" type="curve" smooth="yes"/>
      <point x="670" y="830" type="line" smooth="yes"/>
      <point x="1052" y="830"/>
      <point x="1205" y="710"/>
      <point x="1205" y="420" type="curve" smooth="yes"/>
      <point x="1205" y="160"/>
      <point x="1072" y="0"/>
      <point x="670" y="0" type="curve" smooth="yes"/>
      <point x="47" y="0" type="line" smooth="yes"/>
      <point x="18" y="0"/>
      <point x="10" y="5"/>
      <point x="10" y="36" type="curve" smooth="yes"/>
      <point x="10" y="237" type="line" smooth="yes"/>
      <point x="10" y="261"/>
      <point x="11" y="270"/>
      <point x="35" y="270" type="curve" smooth="yes"/>
    </contour>
  </outline>
</glyph>
<glyph name="Iishort-cy" format="2">
  <advance width="1440"/>
  <unicode hex="0419"/>
  <anchor x="721" y="1500" name="Anchor-0"/>
  <anchor x="716" y="0" name="Anchor-1"/>
  <anchor x="716" y="0" name="Anchor-2"/>
  <outline>
    <contour>
      <point x="957" y="2061" type="curve" smooth="yes"/>
      <point x="1078" y="2061"/>
      <point x="1170" y="1972"/>
      <point x="1170" y="1861" type="curve" smooth="yes"/>
      <point x="1170" y="1686"/>
      <point x="1005" y="1587"/>
      <point x="723" y="1587" type="curve" smooth="yes"/>
      <point x="439" y="1587"/>
      <point x="275" y="1686"/>
      <point x="275" y="1863" type="curve" smooth="yes"/>
      <point x="275" y="1972"/>
      <point x="367" y="2061"/>
      <point x="488" y="2061" type="curve" smooth="yes"/>
      <point x="588" y="2061"/>
      <point x="654" y="1990"/>
      <point x="654" y="1906" type="curve" smooth="yes"/>
      <point x="654" y="1807"/>
      <point x="537" y="1809"/>
      <point x="537" y="1777" type="curve" smooth="yes"/>
      <point x="537" y="1744"/>
      <point x="604" y="1730"/>
      <point x="731" y="1730" type="curve" smooth="yes"/>
      <point x="845" y="1730"/>
      <point x="908" y="1746"/>
      <point x="908" y="1777" type="curve" smooth="yes"/>
      <point x="908" y="1810"/>
      <point x="791" y="1806"/>
      <point x="791" y="1906" type="curve" smooth="yes"/>
      <point x="791" y="1990"/>
      <point x="857" y="2061"/>
    </contour>
    <component base="Ii-cy"/>
  </outline>
</glyph>
<glyph name="Ef-cy" format="2">
  <advance height="2080" width="1620"/>
  <unicode hex="0424"/>
  <outline>
    <contour>
      <point x="575" y="1166" type="curve" smooth="yes"/>
      <point x="575" y="1198" type="line" smooth="yes"/>
      <point x="575" y="1224"/>
      <point x="575" y="1232"/>
      <point x="545" y="1232" type="curve" smooth="yes"/>
      <point x="469" y="1232" type="line" smooth="yes"/>
      <point x="443" y="1232"/>
      <point x="435" y="1241"/>
      <point x="435" y="1262" type="curve" smooth="yes"/>
      <point x="435" y="1476" type="line" smooth="yes"/>
      <point x="435" y="1502"/>
      <point x="442" y="1502"/>
      <point x="465" y="1502" type="curve" smooth="yes"/>
      <point x="1149" y="1502" type="line" smooth="yes"/>
      <point x="1179" y="1502"/>
      <point x="1185" y="1499"/>
      <point x="1185" y="1468" type="curve" smooth="yes"/>
      <point x="1185" y="1274" type="line" smooth="yes"/>
      <point x="1185" y="1239"/>
      <point x="1168" y="1232"/>
      <point x="1143" y="1232" type="curve" smooth="yes"/>
      <point x="1083" y="1232" type="line" smooth="yes"/>
      <point x="1051" y="1232"/>
      <point x="1045" y="1229"/>
      <point x="1045" y="1196" type="curve" smooth="yes"/>
      <point x="1045" y="1168" type="line" smooth="yes"/>
      <point x="1045" y="1142"/>
      <point x="1053.025" y="1147.47"/>
      <point x="1076" y="1146" type="curve" smooth="yes"/>
      <point x="1373" y="1127"/>
      <point x="1630" y="1090"/>
      <point x="1630" y="750" type="curve" smooth="yes"/>
      <point x="1630" y="410"/>
      <point x="1357" y="374"/>
      <point x="1072" y="355" type="curve" smooth="yes"/>
      <point x="1052.02" y="353.668"/>
      <point x="1045" y="357"/>
      <point x="1045" y="334" type="curve" smooth="yes"/>
      <point x="1045" y="296" type="line" smooth="yes"/>
      <point x="1045" y="273"/>
      <point x="1054" y="272"/>
      <point x="1083" y="272" type="curve" smooth="yes"/>
      <point x="1163" y="272" type="line" smooth="yes"/>
      <point x="1182" y="272"/>
      <point x="1185" y="259"/>
      <point x="1185" y="240" type="curve" smooth="yes"/>
      <point x="1185" y="34" type="line" smooth="yes"/>
      <point x="1185" y="10"/>
      <point x="1173" y="2"/>
      <point x="1145" y="2" type="curve" smooth="yes"/>
      <point x="475" y="2" type="line" smooth="yes"/>
      <point x="447" y="2"/>
      <point x="435" y="9"/>
      <point x="435" y="34" type="curve" smooth="yes"/>
      <point x="435" y="244" type="line" smooth="yes"/>
      <point x="435" y="265"/>
      <point x="443" y="272"/>
      <point x="481" y="272" type="curve" smooth="yes"/>
      <point x="507" y="272" type="line" smooth="yes"/>
      <point x="542" y="272"/>
      <point x="575" y="274"/>
      <point x="575" y="302" type="curve" smooth="yes"/>
      <point x="575" y="334" type="line" smooth="yes"/>
      <point x="575" y="357"/>
      <point x="567.988" y="352.793"/>
      <point x="548" y="354" type="curve" smooth="yes"/>
      <point x="250" y="372"/>
      <point x="-10" y="409"/>
      <point x="-10" y="750" type="curve" smooth="yes"/>
      <point x="-10" y="1093"/>
      <point x="252" y="1129"/>
      <point x="552" y="1146" type="curve" smooth="yes"/>
      <point x="570.996" y="1147.076"/>
      <point x="575" y="1145"/>
    </contour>
    <contour>
      <point x="575" y="630" type="curve" smooth="yes"/>
      <point x="575" y="876" type="line" smooth="yes"/>
      <point x="575" y="902"/>
      <point x="568.948" y="906.836"/>
      <point x="546" y="905" type="curve" smooth="yes"/>
      <point x="496" y="901"/>
      <point x="460" y="877"/>
      <point x="460" y="750" type="curve" smooth="yes"/>
      <point x="460" y="613"/>
      <point x="495" y="600"/>
      <point x="544" y="595" type="curve" smooth="yes"/>
      <point x="570.879" y="592.257"/>
      <point x="575" y="600"/>
    </contour>
    <contour>
      <point x="1074" y="594" type="curve" smooth="yes"/>
      <point x="1128" y="597"/>
      <point x="1160" y="611"/>
      <point x="1160" y="750" type="curve" smooth="yes"/>
      <point x="1160" y="877"/>
      <point x="1115" y="900"/>
      <point x="1076" y="905" type="curve" smooth="yes"/>
      <point x="1053.165" y="907.928"/>
      <point x="1045" y="903"/>
      <point x="1045" y="876" type="curve" smooth="yes"/>
      <point x="1045" y="634" type="line" smooth="yes"/>
      <point x="1045" y="603"/>
      <point x="1045.045" y="592.392"/>
    </contour>
  </outline>
</glyph>
<glyph name="Tse-cy" format="2">
  <advance width="1440"/>
  <unicode hex="0426"/>
  <anchor x="721" y="1500" name="Anchor-0"/>
  <anchor x="726" y="0" name="Anchor-1"/>
  <anchor x="726" y="0" name="Anchor-2"/>
  <outline>
    <contour>
      <point x="600" y="322" type="line" smooth="yes"/>
      <point x="600" y="280"/>
      <point x="601" y="270"/>
      <point x="643" y="270" type="curve" smooth="yes"/>
      <point x="801" y="270" type="line" smooth="yes"/>
      <point x="835" y="270"/>
      <point x="840" y="277"/>
      <point x="840" y="313" type="curve" smooth="yes"/>
      <point x="840" y="1190" type="line" smooth="yes"/>
      <point x="840" y="1221"/>
      <point x="835" y="1230"/>
      <point x="802" y="1230" type="curve" smooth="yes"/>
      <point x="773" y="1230" type="line" smooth="yes"/>
      <point x="746" y="1230"/>
      <point x="740" y="1235"/>
      <point x="740" y="1264" type="curve" smooth="yes"/>
      <point x="740" y="1450" type="line" smooth="yes"/>
      <point x="740" y="1495"/>
      <point x="746" y="1500"/>
      <point x="790" y="1500" type="curve" smooth="yes"/>
      <point x="1390" y="1500" type="line" smooth="yes"/>
      <point x="1423" y="1500"/>
      <point x="1430" y="1495"/>
      <point x="1430" y="1460" type="curve" smooth="yes"/>
      <point x="1430" y="1272" type="line" smooth="yes"/>
      <point x="1430" y="1236"/>
      <point x="1424" y="1230"/>
      <point x="1389" y="1230" type="curve" smooth="yes"/>
      <point x="1351" y="1230" type="line" smooth="yes"/>
      <point x="1319" y="1230"/>
      <point x="1310" y="1228"/>
      <point x="1310" y="1196" type="curve" smooth="yes"/>
      <point x="1310" y="309" type="line" smooth="yes"/>
      <point x="1310" y="277"/>
      <point x="1319" y="270"/>
      <point x="1349" y="270" type="curve" smooth="yes"/>
      <point x="1395" y="270" type="line" smooth="yes"/>
      <point x="1429" y="270"/>
      <point x="1430" y="259"/>
      <point x="1430" y="224" type="curve" smooth="yes"/>
      <point x="1430" y="-369" type="line" smooth="yes"/>
      <point x="1430" y="-398"/>
      <point x="1422" y="-400"/>
      <point x="1392" y="-400" type="curve" smooth="yes"/>
      <point x="1228" y="-400" type="line" smooth="yes"/>
      <point x="1191" y="-400"/>
      <point x="1190" y="-385"/>
      <point x="1189" y="-353" type="curve" smooth="yes"/>
      <point x="1182" y="-76"/>
      <point x="1110" y="0"/>
      <point x="850" y="0" type="curve" smooth="yes"/>
      <point x="50" y="0" type="line" smooth="yes"/>
      <point x="18" y="0"/>
      <point x="10" y="4"/>
      <point x="10" y="38" type="curve" smooth="yes"/>
      <point x="10" y="236" type="line" smooth="yes"/>
      <point x="10" y="264"/>
      <point x="19" y="270"/>
      <point x="49" y="270" type="curve" smooth="yes"/>
      <point x="75" y="270" type="line" smooth="yes"/>
      <point x="119" y="270"/>
      <point x="130" y="272"/>
      <point x="130" y="316" type="curve" smooth="yes"/>
      <point x="130" y="1196" type="line" smooth="yes"/>
      <point x="130" y="1224"/>
      <point x="123" y="1230"/>
      <point x="93" y="1230" type="curve" smooth="yes"/>
      <point x="49" y="1230" type="line" smooth="yes"/>
      <point x="22" y="1230"/>
      <point x="10" y="1233"/>
      <point x="10" y="1262" type="curve" smooth="yes"/>
      <point x="10" y="1456" type="line" smooth="yes"/>
      <point x="10" y="1498"/>
      <point x="21" y="1500"/>
      <point x="60" y="1500" type="curve" smooth="yes"/>
      <point x="660" y="1500" type="line" smooth="yes"/>
      <point x="696" y="1500"/>
      <point x="700" y="1493"/>
      <point x="700" y="1456" type="curve" smooth="yes"/>
      <point x="700" y="1266" type="line" smooth="yes"/>
      <point x="700" y="1238"/>
      <point x="698" y="1230"/>
      <point x="671" y="1230" type="curve" smooth="yes"/>
      <point x="642" y="1230" type="line" smooth="yes"/>
      <point x="603" y="1230"/>
      <point x="600" y="1217"/>
      <point x="600" y="1180" type="curve" smooth="yes"/>
    </contour>
  </outline>
</glyph>
<glyph name="Shcha-cy" format="2">
  <advance height="2080" width="2060"/>
  <unicode hex="0429"/>
  <anchor x="1011" y="1500" name="Anchor-0"/>
  <anchor x="1007" y="0" name="Anchor-1"/>
  <anchor x="1007" y="0" name="Anchor-2"/>
  <anchor x="1007" y="0" name="Anchor-3"/>
  <outline>
    <contour>
      <point x="600" y="1194" type="curve" smooth="yes"/>
      <point x="600" y="314" type="line" smooth="yes"/>
      <point x="600" y="281"/>
      <point x="609" y="270"/>
      <point x="638" y="270" type="curve" smooth="yes"/>
      <point x="717" y="270" type="line" smooth="yes"/>
      <point x="752" y="270"/>
      <point x="785" y="274"/>
      <point x="785" y="320" type="curve" smooth="yes"/>
      <point x="785" y="1196" type="line" smooth="yes"/>
      <point x="785" y="1222"/>
      <point x="784" y="1230"/>
      <point x="760" y="1230" type="curve" smooth="yes"/>
      <point x="754" y="1230" type="line" smooth="yes"/>
      <point x="738" y="1230"/>
      <point x="725" y="1239"/>
      <point x="725" y="1260" type="curve" smooth="yes"/>
      <point x="725" y="1474" type="line" smooth="yes"/>
      <point x="725" y="1500"/>
      <point x="732" y="1500"/>
      <point x="755" y="1500" type="curve" smooth="yes"/>
      <point x="1299" y="1500" type="line" smooth="yes"/>
      <point x="1329" y="1500"/>
      <point x="1335" y="1497"/>
      <point x="1335" y="1466" type="curve" smooth="yes"/>
      <point x="1335" y="1272" type="line" smooth="yes"/>
      <point x="1335" y="1237"/>
      <point x="1320" y="1230"/>
      <point x="1295" y="1230" type="curve" smooth="yes"/>
      <point x="1293" y="1230" type="line" smooth="yes"/>
      <point x="1261" y="1230"/>
      <point x="1255" y="1227"/>
      <point x="1255" y="1194" type="curve" smooth="yes"/>
      <point x="1255" y="314" type="line" smooth="yes"/>
      <point x="1255" y="281"/>
      <point x="1264" y="270"/>
      <point x="1293" y="270" type="curve" smooth="yes"/>
      <point x="1372" y="270" type="line" smooth="yes"/>
      <point x="1407" y="270"/>
      <point x="1440" y="274"/>
      <point x="1440" y="320" type="curve" smooth="yes"/>
      <point x="1440" y="1196" type="line" smooth="yes"/>
      <point x="1440" y="1222"/>
      <point x="1440" y="1230"/>
      <point x="1410" y="1230" type="curve" smooth="yes"/>
      <point x="1409" y="1230" type="line" smooth="yes"/>
      <point x="1383" y="1230"/>
      <point x="1380" y="1239"/>
      <point x="1380" y="1260" type="curve" smooth="yes"/>
      <point x="1380" y="1474" type="line" smooth="yes"/>
      <point x="1380" y="1500"/>
      <point x="1387" y="1500"/>
      <point x="1410" y="1500" type="curve" smooth="yes"/>
      <point x="2014" y="1500" type="line" smooth="yes"/>
      <point x="2044" y="1500"/>
      <point x="2050" y="1497"/>
      <point x="2050" y="1466" type="curve" smooth="yes"/>
      <point x="2050" y="1272" type="line" smooth="yes"/>
      <point x="2050" y="1237"/>
      <point x="2033" y="1230"/>
      <point x="2008" y="1230" type="curve" smooth="yes"/>
      <point x="1948" y="1230" type="line" smooth="yes"/>
      <point x="1916" y="1230"/>
      <point x="1910" y="1227"/>
      <point x="1910" y="1194" type="curve" smooth="yes"/>
      <point x="1910" y="314" type="line" smooth="yes"/>
      <point x="1910" y="281"/>
      <point x="1919" y="270"/>
      <point x="1948" y="270" type="curve" smooth="yes"/>
      <point x="2028" y="270" type="line" smooth="yes"/>
      <point x="2047" y="270"/>
      <point x="2050" y="257"/>
      <point x="2050" y="238" type="curve" smooth="yes"/>
      <point x="2050" y="-369" type="line" smooth="yes"/>
      <point x="2050" y="-398"/>
      <point x="2042" y="-400"/>
      <point x="2012" y="-400" type="curve" smooth="yes"/>
      <point x="1848" y="-400" type="line" smooth="yes"/>
      <point x="1811" y="-400"/>
      <point x="1810" y="-385"/>
      <point x="1809" y="-353" type="curve" smooth="yes"/>
      <point x="1802" y="-76"/>
      <point x="1730" y="0"/>
      <point x="1470" y="0" type="curve" smooth="yes"/>
      <point x="50" y="0" type="line" smooth="yes"/>
      <point x="22" y="0"/>
      <point x="10" y="7"/>
      <point x="10" y="32" type="curve" smooth="yes"/>
      <point x="10" y="242" type="line" smooth="yes"/>
      <point x="10" y="263"/>
      <point x="18" y="270"/>
      <point x="56" y="270" type="curve" smooth="yes"/>
      <point x="62" y="270" type="line" smooth="yes"/>
      <point x="97" y="270"/>
      <point x="130" y="274"/>
      <point x="130" y="320" type="curve" smooth="yes"/>
      <point x="130" y="1196" type="line" smooth="yes"/>
      <point x="130" y="1222"/>
      <point x="130" y="1230"/>
      <point x="100" y="1230" type="curve" smooth="yes"/>
      <point x="44" y="1230" type="line" smooth="yes"/>
      <point x="18" y="1230"/>
      <point x="10" y="1239"/>
      <point x="10" y="1260" type="curve" smooth="yes"/>
      <point x="10" y="1474" type="line" smooth="yes"/>
      <point x="10" y="1500"/>
      <point x="17" y="1500"/>
      <point x="40" y="1500" type="curve" smooth="yes"/>
      <point x="644" y="1500" type="line" smooth="yes"/>
      <point x="674" y="1500"/>
      <point x="680" y="1497"/>
      <point x="680" y="1466" type="curve" smooth="yes"/>
      <point x="680" y="1272" type="line" smooth="yes"/>
      <point x="680" y="1237"/>
      <point x="663" y="1230"/>
      <point x="638" y="1230" type="curve" smooth="yes"/>
      <point x="633" y="1230" type="line" smooth="yes"/>
      <point x="607" y="1230"/>
      <point x="600" y="1227"/>
    </contour>
  </outline>
</glyph>
<glyph name="Ereversed-cy" format="2">
  <advance width="1229"/>
  <unicode hex="042D"/>
  <anchor x="643" y="1500" name="Anchor-0"/>
  <anchor x="552" y="0" name="Anchor-1"/>
  <anchor x="552" y="0" name="Anchor-2"/>
  <outline>
    <contour>
      <point x="15" y="450" type="curve" smooth="yes"/>
      <point x="15" y="624"/>
      <point x="103" y="750"/>
      <point x="263" y="750" type="curve" smooth="yes"/>
      <point x="427" y="750"/>
      <point x="491" y="648"/>
      <point x="491" y="522" type="curve" smooth="yes"/>
      <point x="491" y="342"/>
      <point x="385" y="354"/>
      <point x="385" y="298" type="curve" smooth="yes"/>
      <point x="385" y="264"/>
      <point x="415" y="228"/>
      <point x="459" y="228" type="curve"/>
      <point x="519" y="-40" type="line"/>
      <point x="205" y="-40"/>
      <point x="15" y="160"/>
    </contour>
    <contour>
      <point x="1199" y="750" type="curve" smooth="yes"/>
      <point x="1199" y="264"/>
      <point x="1035" y="-40"/>
      <point x="519" y="-40" type="curve"/>
      <point x="459" y="228" type="line"/>
      <point x="601" y="228"/>
      <point x="651" y="347"/>
      <point x="667" y="578" type="curve" smooth="yes"/>
      <point x="670.841" y="633.446"/>
      <point x="669" y="630"/>
      <point x="609" y="630" type="curve" smooth="yes"/>
      <point x="553" y="630" type="line" smooth="yes"/>
      <point x="512" y="630"/>
      <point x="500" y="634"/>
      <point x="500" y="678" type="curve" smooth="yes"/>
      <point x="500" y="823" type="line" smooth="yes"/>
      <point x="500" y="871"/>
      <point x="502" y="880"/>
      <point x="550" y="880" type="curve" smooth="yes"/>
      <point x="619" y="880" type="line" smooth="yes"/>
      <point x="685" y="880"/>
      <point x="672.614" y="899.952"/>
      <point x="669" y="952" type="curve" smooth="yes"/>
      <point x="654" y="1168"/>
      <point x="612" y="1284"/>
      <point x="529" y="1284" type="curve" smooth="yes"/>
      <point x="419" y="1284"/>
      <point x="425" y="1157"/>
      <point x="380" y="977" type="curve" smooth="yes"/>
      <point x="371" y="941"/>
      <point x="365" y="930"/>
      <point x="317" y="930" type="curve" smooth="yes"/>
      <point x="104" y="930" type="line" smooth="yes"/>
      <point x="64" y="930"/>
      <point x="59" y="936"/>
      <point x="59" y="974" type="curve" smooth="yes"/>
      <point x="59" y="1452" type="line" smooth="yes"/>
      <point x="59" y="1501"/>
      <point x="60" y="1510"/>
      <point x="109" y="1510" type="curve" smooth="yes"/>
      <point x="249" y="1510" type="line" smooth="yes"/>
      <point x="286" y="1510"/>
      <point x="292" y="1507"/>
      <point x="307" y="1488" type="curve" smooth="yes"/>
      <point x="330" y="1454" type="line" smooth="yes"/>
      <point x="364" y="1411"/>
      <point x="376.983" y="1408.328"/>
      <point x="413" y="1445" type="curve" smooth="yes"/>
      <point x="468" y="1501"/>
      <point x="509" y="1540"/>
      <point x="649" y="1540" type="curve" smooth="yes"/>
      <point x="1045" y="1540"/>
      <point x="1199" y="1196"/>
    </contour>
  </outline>
</glyph>
<glyph name="Yu-cy" format="2">
  <advance width="1985"/>
  <unicode hex="042E"/>
  <outline>
    <contour>
      <point x="1260" y="750" type="curve" smooth="yes"/>
      <point x="1260" y="326"/>
      <point x="1287" y="220"/>
      <point x="1365" y="220" type="curve" smooth="yes"/>
      <point x="1463" y="220"/>
      <point x="1470" y="326"/>
      <point x="1470" y="750" type="curve" smooth="yes"/>
      <point x="1470" y="1174"/>
      <point x="1443" y="1280"/>
      <point x="1365" y="1280" type="curve" smooth="yes"/>
      <point x="1287" y="1280"/>
      <point x="1260" y="1174"/>
    </contour>
    <contour>
      <point x="657" y="880" type="curve" smooth="yes"/>
      <point x="715" y="880" type="line" smooth="yes"/>
      <point x="784.663" y="880"/>
      <point x="778.317" y="909.721"/>
      <point x="783.4" y="968" type="curve" smooth="yes"/>
      <point x="818.848" y="1374.348"/>
      <point x="972.861" y="1540"/>
      <point x="1365" y="1540" type="curve" smooth="yes"/>
      <point x="1821" y="1540"/>
      <point x="1955" y="1316"/>
      <point x="1955" y="750" type="curve" smooth="yes"/>
      <point x="1955" y="184"/>
      <point x="1801" y="-40"/>
      <point x="1365" y="-40" type="curve" smooth="yes"/>
      <point x="965.858" y="-40"/>
      <point x="813.423" y="131.622"/>
      <point x="781.614" y="554" type="curve" smooth="yes"/>
      <point x="778.119" y="600.414"/>
      <point x="775.216" y="610"/>
      <point x="723" y="610" type="curve" smooth="yes"/>
      <point x="669" y="610" type="line" smooth="yes"/>
      <point x="621" y="610"/>
      <point x="620" y="611"/>
      <point x="620" y="562" type="curve" smooth="yes"/>
      <point x="620" y="314" type="line" smooth="yes"/>
      <point x="620" y="271"/>
      <point x="630" y="270"/>
      <point x="674" y="270" type="curve" smooth="yes"/>
      <point x="712" y="270" type="line" smooth="yes"/>
      <point x="745" y="270"/>
      <point x="760" y="269"/>
      <point x="760" y="236" type="curve" smooth="yes"/>
      <point x="760" y="50" type="line" smooth="yes"/>
      <point x="760" y="5"/>
      <point x="754" y="0"/>
      <point x="710" y="0" type="curve" smooth="yes"/>
      <point x="60" y="0" type="line" smooth="yes"/>
      <point x="14" y="0"/>
      <point x="10" y="9"/>
      <point x="10" y="56" type="curve" smooth="yes"/>
      <point x="10" y="221" type="line" smooth="yes"/>
      <point x="10" y="266"/>
      <point x="23" y="270"/>
      <point x="65" y="270" type="curve" smooth="yes"/>
      <point x="103" y="270" type="line" smooth="yes"/>
      <point x="141" y="270"/>
      <point x="150" y="276"/>
      <point x="150" y="317" type="curve" smooth="yes"/>
      <point x="150" y="1176" type="line" smooth="yes"/>
      <point x="150" y="1219"/>
      <point x="148" y="1230"/>
      <point x="105" y="1230" type="curve" smooth="yes"/>
      <point x="63" y="1230" type="line" smooth="yes"/>
      <point x="22" y="1230"/>
      <point x="10" y="1234"/>
      <point x="10" y="1278" type="curve" smooth="yes"/>
      <point x="10" y="1443" type="line" smooth="yes"/>
      <point x="10" y="1491"/>
      <point x="12" y="1500"/>
      <point x="60" y="1500" type="curve" smooth="yes"/>
      <point x="706" y="1500" type="line" smooth="yes"/>
      <point x="754" y="1500"/>
      <point x="760" y="1489"/>
      <point x="760" y="1444" type="curve" smooth="yes"/>
      <point x="760" y="1284" type="line" smooth="yes"/>
      <point x="760" y="1236"/>
      <point x="753" y="1230"/>
      <point x="707" y="1230" type="curve" smooth="yes"/>
      <point x="670" y="1230" type="line" smooth="yes"/>
      <point x="626" y="1230"/>
      <point x="620" y="1220"/>
      <point x="620" y="1178" type="curve" smooth="yes"/>
      <point x="620" y="920" type="line" smooth="yes"/>
      <point x="620" y="882"/>
      <point x="618" y="880"/>
    </contour>
  </outline>
</glyph>
<glyph name="ve-cy" format="2">
  <advance height="2234" width="1040"/>
  <unicode hex="0432"/>
  <outline>
    <contour>
      <point x="66" y="830" type="curve" smooth="yes"/>
      <point x="31" y="830" type="line" smooth="yes"/>
      <point x="11" y="830"/>
      <point x="10" y="834"/>
      <point x="10" y="854" type="curve" smooth="yes"/>
      <point x="10" y="1014" type="line" smooth="yes"/>
      <point x="10" y="1034"/>
      <point x="15" y="1040"/>
      <point x="34" y="1040" type="curve" smooth="yes"/>
      <point x="605" y="1040" type="line" smooth="yes"/>
      <point x="867" y="1040"/>
      <point x="1005" y="980"/>
      <point x="1005" y="780" type="curve" smooth="yes"/>
      <point x="1005" y="647"/>
      <point x="957" y="575"/>
      <point x="798" y="553" type="curve" smooth="yes"/>
      <point x="768.135" y="548.868"/>
      <point x="772.021" y="530.119"/>
      <point x="796" y="526" type="curve" smooth="yes"/>
      <point x="959" y="498"/>
      <point x="1030" y="420"/>
      <point x="1030" y="270" type="curve" smooth="yes"/>
      <point x="1030" y="90"/>
      <point x="937" y="0"/>
      <point x="675" y="0" type="curve" smooth="yes"/>
      <point x="41" y="0" type="line" smooth="yes"/>
      <point x="18" y="0"/>
      <point x="10" y="2"/>
      <point x="10" y="24" type="curve" smooth="yes"/>
      <point x="10" y="180" type="line" smooth="yes"/>
      <point x="10" y="206"/>
      <point x="19" y="210"/>
      <point x="43" y="210" type="curve" smooth="yes"/>
      <point x="67" y="210" type="line" smooth="yes"/>
      <point x="89" y="210"/>
      <point x="90" y="216"/>
      <point x="90" y="238" type="curve" smooth="yes"/>
      <point x="90" y="806" type="line" smooth="yes"/>
      <point x="90" y="826"/>
      <point x="84" y="830"/>
    </contour>
    <contour>
      <point x="510" y="798" type="curve" smooth="yes"/>
      <point x="510" y="694" type="line" smooth="yes"/>
      <point x="510" y="658"/>
      <point x="513" y="650"/>
      <point x="538" y="650" type="curve" smooth="yes"/>
      <point x="545" y="650" type="line" smooth="yes"/>
      <point x="567" y="650"/>
      <point x="575" y="682"/>
      <point x="575" y="740" type="curve" smooth="yes"/>
      <point x="575" y="798"/>
      <point x="567" y="830"/>
      <point x="545" y="830" type="curve" smooth="yes"/>
      <point x="538" y="830" type="line" smooth="yes"/>
      <point x="514" y="830"/>
      <point x="510" y="823"/>
    </contour>
    <contour>
      <point x="510" y="398" type="curve" smooth="yes"/>
      <point x="510" y="255" type="line" smooth="yes"/>
      <point x="510" y="216"/>
      <point x="512" y="210"/>
      <point x="526" y="210" type="curve" smooth="yes"/>
      <point x="535" y="210" type="line" smooth="yes"/>
      <point x="562" y="210"/>
      <point x="575" y="232"/>
      <point x="575" y="320" type="curve" smooth="yes"/>
      <point x="575" y="428"/>
      <point x="562" y="440"/>
      <point x="535" y="440" type="curve" smooth="yes"/>
      <point x="528" y="440" type="line" smooth="yes"/>
      <point x="515" y="440"/>
      <point x="510" y="438"/>
    </contour>
  </outline>
</glyph>
<glyph name="ge-cy" format="2">
  <advance height="2234" width="890"/>
  <unicode hex="0433"/>
  <outline>
    <contour>
      <point x="61" y="830" type="curve" smooth="yes"/>
      <point x="34" y="830" type="line" smooth="yes"/>
      <point x="15" y="830"/>
      <point x="10" y="832"/>
      <point x="10" y="852" type="curve" smooth="yes"/>
      <point x="10" y="1021" type="line" smooth="yes"/>
      <point x="10" y="1035"/>
      <point x="11" y="1040"/>
      <point x="25" y="1040" type="curve" smooth="yes"/>
      <point x="846" y="1040" type="line" smooth="yes"/>
      <point x="867" y="1040"/>
      <point x="870" y="1033"/>
      <point x="870" y="1011" type="curve" smooth="yes"/>
      <point x="870" y="620" type="line" smooth="yes"/>
      <point x="870" y="601"/>
      <point x="861" y="600"/>
      <point x="842" y="600" type="curve" smooth="yes"/>
      <point x="640" y="600" type="line" smooth="yes"/>
      <point x="620" y="600"/>
      <point x="620" y="605"/>
      <point x="620" y="624" type="curve" smooth="yes"/>
      <point x="617" y="753"/>
      <point x="599" y="830"/>
      <point x="550" y="830" type="curve" smooth="yes"/>
      <point x="544" y="830" type="line" smooth="yes"/>
      <point x="519" y="830"/>
      <point x="510" y="816"/>
      <point x="510" y="793" type="curve" smooth="yes"/>
      <point x="510" y="250" type="line" smooth="yes"/>
      <point x="510" y="218"/>
      <point x="524" y="210"/>
      <point x="558" y="210" type="curve" smooth="yes"/>
      <point x="562" y="210" type="line" smooth="yes"/>
      <point x="581" y="210"/>
      <point x="590" y="209"/>
      <point x="590" y="190" type="curve" smooth="yes"/>
      <point x="590" y="30" type="line" smooth="yes"/>
      <point x="590" y="4"/>
      <point x="581" y="0"/>
      <point x="557" y="0" type="curve" smooth="yes"/>
      <point x="35" y="0" type="line" smooth="yes"/>
      <point x="15" y="0"/>
      <point x="10" y="0"/>
      <point x="10" y="20" type="curve" smooth="yes"/>
      <point x="10" y="192" type="line" smooth="yes"/>
      <point x="10" y="209"/>
      <point x="19" y="210"/>
      <point x="37" y="210" type="curve" smooth="yes"/>
      <point x="63" y="210" type="line" smooth="yes"/>
      <point x="85" y="210"/>
      <point x="90" y="217"/>
      <point x="90" y="240" type="curve" smooth="yes"/>
      <point x="90" y="800" type="line" smooth="yes"/>
      <point x="90" y="827"/>
      <point x="87" y="830"/>
    </contour>
  </outline>
</glyph>
<glyph name="iishort-cy" format="2">
  <advance height="2310" width="1120"/>
  <unicode hex="0439"/>
  <outline>
    <contour>
      <point x="788" y="1611" type="curve" smooth="yes"/>
      <point x="909" y="1611"/>
      <point x="1001" y="1522"/>
      <point x="1001" y="1411" type="curve" smooth="yes"/>
      <point x="1001" y="1236"/>
      <point x="836" y="1137"/>
      <point x="554" y="1137" type="curve" smooth="yes"/>
      <point x="270" y="1137"/>
      <point x="106" y="1236"/>
      <point x="106" y="1413" type="curve" smooth="yes"/>
      <point x="106" y="1522"/>
      <point x="198" y="1611"/>
      <point x="319" y="1611" type="curve" smooth="yes"/>
      <point x="419" y="1611"/>
      <point x="485" y="1540"/>
      <point x="485" y="1456" type="curve" smooth="yes"/>
      <point x="485" y="1357"/>
      <point x="368" y="1359"/>
      <point x="368" y="1327" type="curve" smooth="yes"/>
      <point x="368" y="1294"/>
      <point x="435" y="1280"/>
      <point x="562" y="1280" type="curve" smooth="yes"/>
      <point x="676" y="1280"/>
      <point x="739" y="1296"/>
      <point x="739" y="1327" type="curve" smooth="yes"/>
      <point x="739" y="1360"/>
      <point x="622" y="1356"/>
      <point x="622" y="1456" type="curve" smooth="yes"/>
      <point x="622" y="1540"/>
      <point x="688" y="1611"/>
    </contour>
    <component base="ii-cy"/>
  </outline>
</glyph>
<glyph name="te-cy" format="2">
  <advance height="2234" width="1030"/>
  <unicode hex="0442"/>
  <outline>
    <contour>
      <point x="240" y="41" type="curve" smooth="yes"/>
      <point x="240" y="175" type="line" smooth="yes"/>
      <point x="240" y="207"/>
      <point x="242" y="210"/>
      <point x="272" y="210" type="curve" smooth="yes"/>
      <point x="276" y="210" type="line" smooth="yes"/>
      <point x="294" y="210"/>
      <point x="300" y="215"/>
      <point x="300" y="265" type="curve" smooth="yes"/>
      <point x="300" y="785" type="line" smooth="yes"/>
      <point x="300" y="823"/>
      <point x="298" y="830"/>
      <point x="286" y="830" type="curve" smooth="yes"/>
      <point x="285" y="830" type="line" smooth="yes"/>
      <point x="263" y="830"/>
      <point x="246" y="762"/>
      <point x="240" y="631" type="curve" smooth="yes"/>
      <point x="239" y="600"/>
      <point x="236" y="590"/>
      <point x="202" y="590" type="curve" smooth="yes"/>
      <point x="64" y="590" type="line" smooth="yes"/>
      <point x="30" y="590"/>
      <point x="30" y="611"/>
      <point x="30" y="641" type="curve" smooth="yes"/>
      <point x="30" y="987" type="line" smooth="yes"/>
      <point x="30" y="1033"/>
      <point x="33" y="1040"/>
      <point x="78" y="1040" type="curve" smooth="yes"/>
      <point x="958" y="1040" type="line" smooth="yes"/>
      <point x="997" y="1040"/>
      <point x="1000" y="1033"/>
      <point x="1000" y="993" type="curve" smooth="yes"/>
      <point x="1000" y="621" type="line" smooth="yes"/>
      <point x="1000" y="592"/>
      <point x="992" y="590"/>
      <point x="962" y="590" type="curve" smooth="yes"/>
      <point x="828" y="590" type="line" smooth="yes"/>
      <point x="791" y="590"/>
      <point x="791" y="605"/>
      <point x="789" y="637" type="curve" smooth="yes"/>
      <point x="782" y="764"/>
      <point x="755" y="830"/>
      <point x="735" y="830" type="curve" smooth="yes"/>
      <point x="733" y="830" type="line" smooth="yes"/>
      <point x="722" y="830"/>
      <point x="720" y="823"/>
      <point x="720" y="787" type="curve" smooth="yes"/>
      <point x="720" y="267" type="line" smooth="yes"/>
      <point x="720" y="216"/>
      <point x="721" y="210"/>
      <point x="749" y="210" type="curve" smooth="yes"/>
      <point x="753" y="210" type="line" smooth="yes"/>
      <point x="779" y="210"/>
      <point x="780" y="202"/>
      <point x="780" y="161" type="curve" smooth="yes"/>
      <point x="780" y="42" type="line" smooth="yes"/>
      <point x="780" y="2"/>
      <point x="758" y="0"/>
      <point x="722" y="0" type="curve" smooth="yes"/>
      <point x="286" y="0" type="line" smooth="yes"/>
      <point x="247" y="0"/>
      <point x="240" y="3"/>
    </contour>
  </outline>
</glyph>
<glyph name="tse-cy" format="2">
  <advance height="2310" width="1120"/>
  <unicode hex="0446"/>
  <outline>
    <contour>
      <point x="610" y="789" type="line" smooth="yes"/>
      <point x="610" y="820"/>
      <point x="610" y="830"/>
      <point x="589" y="830" type="curve" smooth="yes"/>
      <point x="585" y="830" type="line" smooth="yes"/>
      <point x="572" y="830"/>
      <point x="571" y="835"/>
      <point x="571" y="864" type="curve" smooth="yes"/>
      <point x="571" y="1010" type="line" smooth="yes"/>
      <point x="571" y="1034"/>
      <point x="576" y="1040"/>
      <point x="599" y="1040" type="curve" smooth="yes"/>
      <point x="1082" y="1040" type="line" smooth="yes"/>
      <point x="1106" y="1040"/>
      <point x="1110" y="1033"/>
      <point x="1110" y="1008" type="curve" smooth="yes"/>
      <point x="1110" y="862" type="line" smooth="yes"/>
      <point x="1110" y="834"/>
      <point x="1100" y="830"/>
      <point x="1074" y="830" type="curve" smooth="yes"/>
      <point x="1064" y="830" type="line" smooth="yes"/>
      <point x="1038" y="830"/>
      <point x="1030" y="827"/>
      <point x="1030" y="802" type="curve" smooth="yes"/>
      <point x="1030" y="255" type="line" smooth="yes"/>
      <point x="1030" y="220"/>
      <point x="1031" y="210"/>
      <point x="1066" y="210" type="curve" smooth="yes"/>
      <point x="1084" y="210" type="line" smooth="yes"/>
      <point x="1106" y="210"/>
      <point x="1110" y="203"/>
      <point x="1110" y="180" type="curve" smooth="yes"/>
      <point x="1110" y="-293" type="line" smooth="yes"/>
      <point x="1110" y="-311"/>
      <point x="1109" y="-320"/>
      <point x="1091" y="-320" type="curve" smooth="yes"/>
      <point x="899" y="-320" type="line" smooth="yes"/>
      <point x="880" y="-320"/>
      <point x="881" y="-315"/>
      <point x="880" y="-297" type="curve" smooth="yes"/>
      <point x="873" y="-153"/>
      <point x="836" y="0"/>
      <point x="640" y="0" type="curve" smooth="yes"/>
      <point x="38" y="0" type="line" smooth="yes"/>
      <point x="14" y="0"/>
      <point x="10" y="7"/>
      <point x="10" y="32" type="curve" smooth="yes"/>
      <point x="10" y="178" type="line" smooth="yes"/>
      <point x="10" y="206"/>
      <point x="20" y="210"/>
      <point x="46" y="210" type="curve" smooth="yes"/>
      <point x="56" y="210" type="line" smooth="yes"/>
      <point x="82" y="210"/>
      <point x="90" y="213"/>
      <point x="90" y="238" type="curve" smooth="yes"/>
      <point x="90" y="785" type="line" smooth="yes"/>
      <point x="90" y="820"/>
      <point x="89" y="830"/>
      <point x="54" y="830" type="curve" smooth="yes"/>
      <point x="36" y="830" type="line" smooth="yes"/>
      <point x="14" y="830"/>
      <point x="10" y="837"/>
      <point x="10" y="860" type="curve" smooth="yes"/>
      <point x="10" y="1018" type="line" smooth="yes"/>
      <point x="10" y="1040"/>
      <point x="19" y="1040"/>
      <point x="41" y="1040" type="curve" smooth="yes"/>
      <point x="528" y="1040" type="line" smooth="yes"/>
      <point x="549" y="1040"/>
      <point x="550" y="1031"/>
      <point x="550" y="1009" type="curve" smooth="yes"/>
      <point x="550" y="859" type="line" smooth="yes"/>
      <point x="550" y="837"/>
      <point x="543" y="830"/>
      <point x="530" y="830" type="curve" smooth="yes"/>
      <point x="529" y="830" type="line" smooth="yes"/>
      <point x="514" y="830"/>
      <point x="510" y="826"/>
      <point x="510" y="791" type="curve" smooth="yes"/>
      <point x="510" y="251" type="line" smooth="yes"/>
      <point x="510" y="220"/>
      <point x="521" y="210"/>
      <point x="552" y="210" type="curve" smooth="yes"/>
      <point x="570" y="210" type="line" smooth="yes"/>
      <point x="602" y="210"/>
      <point x="610" y="214"/>
      <point x="610" y="249" type="curve" smooth="yes"/>
    </contour>
  </outline>
</glyph>
<glyph name="yeru-cy" format="2">
  <advance height="2234" width="1673"/>
  <unicode hex="044B"/>
  <outline>
    <contour>
      <point x="1163" y="249" type="curve" smooth="yes"/>
      <point x="1163" y="785" type="line" smooth="yes"/>
      <point x="1163" y="818"/>
      <point x="1154" y="830"/>
      <point x="1121" y="830" type="curve" smooth="yes"/>
      <point x="1109" y="830" type="line" smooth="yes"/>
      <point x="1087" y="830"/>
      <point x="1083" y="837"/>
      <point x="1083" y="860" type="curve" smooth="yes"/>
      <point x="1083" y="1018" type="line" smooth="yes"/>
      <point x="1083" y="1040"/>
      <point x="1092" y="1040"/>
      <point x="1114" y="1040" type="curve" smooth="yes"/>
      <point x="1635" y="1040" type="line" smooth="yes"/>
      <point x="1659" y="1040"/>
      <point x="1663" y="1033"/>
      <point x="1663" y="1008" type="curve" smooth="yes"/>
      <point x="1663" y="862" type="line" smooth="yes"/>
      <point x="1663" y="834"/>
      <point x="1653" y="830"/>
      <point x="1627" y="830" type="curve" smooth="yes"/>
      <point x="1623" y="830" type="line" smooth="yes"/>
      <point x="1591" y="830"/>
      <point x="1583" y="826"/>
      <point x="1583" y="791" type="curve" smooth="yes"/>
      <point x="1583" y="255" type="line" smooth="yes"/>
      <point x="1583" y="222"/>
      <point x="1592" y="210"/>
      <point x="1625" y="210" type="curve" smooth="yes"/>
      <point x="1637" y="210" type="line" smooth="yes"/>
      <point x="1659" y="210"/>
      <point x="1663" y="203"/>
      <point x="1663" y="180" type="curve" smooth="yes"/>
      <point x="1663" y="22" type="line" smooth="yes"/>
      <point x="1663" y="0"/>
      <point x="1654" y="0"/>
      <point x="1632" y="0" type="curve" smooth="yes"/>
      <point x="1111" y="0" type="line" smooth="yes"/>
      <point x="1087" y="0"/>
      <point x="1083" y="7"/>
      <point x="1083" y="32" type="curve" smooth="yes"/>
      <point x="1083" y="178" type="line" smooth="yes"/>
      <point x="1083" y="206"/>
      <point x="1093" y="210"/>
      <point x="1119" y="210" type="curve" smooth="yes"/>
      <point x="1123" y="210" type="line" smooth="yes"/>
      <point x="1155" y="210"/>
      <point x="1163" y="214"/>
    </contour>
    <contour>
      <point x="33" y="0" type="line" smooth="yes"/>
      <point x="12" y="0"/>
      <point x="10" y="4"/>
      <point x="10" y="26" type="curve" smooth="yes"/>
      <point x="10" y="188" type="line" smooth="yes"/>
      <point x="10" y="208"/>
      <point x="20" y="210"/>
      <point x="38" y="210" type="curve" smooth="yes"/>
      <point x="68" y="210" type="line" smooth="yes"/>
      <point x="89" y="210"/>
      <point x="90" y="217"/>
      <point x="90" y="237" type="curve" smooth="yes"/>
      <point x="90" y="796" type="line" smooth="yes"/>
      <point x="90" y="821"/>
      <point x="89" y="830"/>
      <point x="64" y="830" type="curve" smooth="yes"/>
      <point x="35" y="830" type="line" smooth="yes"/>
      <point x="15" y="830"/>
      <point x="10" y="832"/>
      <point x="10" y="854" type="curve" smooth="yes"/>
      <point x="10" y="1016" type="line" smooth="yes"/>
      <point x="10" y="1037"/>
      <point x="17" y="1040"/>
      <point x="37" y="1040" type="curve" smooth="yes"/>
      <point x="564" y="1040" type="line" smooth="yes"/>
      <point x="591" y="1040"/>
      <point x="590" y="1039"/>
      <point x="590" y="1010" type="curve" smooth="yes"/>
      <point x="590" y="859" type="line" smooth="yes"/>
      <point x="590" y="831"/>
      <point x="597" y="830"/>
      <point x="569" y="830" type="curve" smooth="yes"/>
      <point x="535" y="830" type="line" smooth="yes"/>
      <point x="513" y="830"/>
      <point x="510" y="823"/>
      <point x="510" y="800" type="curve" smooth="yes"/>
      <point x="510" y="675" type="line" smooth="yes"/>
      <point x="510" y="651"/>
      <point x="519" y="650"/>
      <point x="544" y="650" type="curve" smooth="yes"/>
      <point x="593" y="650" type="line" smooth="yes"/>
      <point x="865" y="650"/>
      <point x="1043" y="550"/>
      <point x="1043" y="310" type="curve" smooth="yes"/>
      <point x="1043" y="70"/>
      <point x="865" y="0"/>
      <point x="593" y="0" type="curve" smooth="yes"/>
    </contour>
    <contour>
      <point x="528" y="210" type="line" smooth="yes"/>
      <point x="560" y="210"/>
      <point x="578" y="222"/>
      <point x="578" y="320" type="curve" smooth="yes"/>
      <point x="578" y="418"/>
      <point x="560" y="440"/>
      <point x="528" y="440" type="curve" smooth="yes"/>
      <point x="524" y="440" type="line" smooth="yes"/>
      <point x="510" y="440"/>
      <point x="510" y="432"/>
      <point x="510" y="384" type="curve" smooth="yes"/>
      <point x="510" y="246" type="line" smooth="yes"/>
      <point x="510" y="214"/>
      <point x="511" y="210"/>
      <point x="523" y="210" type="curve" smooth="yes"/>
    </contour>
  </outline>
</glyph>
<glyph name="softsign-cy" format="2">
  <advance height="2234" width="1043"/>
  <unicode hex="044C"/>
  <outline>
    <contour>
      <point x="33" y="0" type="line" smooth="yes"/>
      <point x="12" y="0"/>
      <point x="10" y="4"/>
      <point x="10" y="26" type="curve" smooth="yes"/>
      <point x="10" y="188" type="line" smooth="yes"/>
      <point x="10" y="208"/>
      <point x="20" y="210"/>
      <point x="38" y="210" type="curve" smooth="yes"/>
      <point x="68" y="210" type="line" smooth="yes"/>
      <point x="89" y="210"/>
      <point x="90" y="217"/>
      <point x="90" y="237" type="curve" smooth="yes"/>
      <point x="90" y="796" type="line" smooth="yes"/>
      <point x="90" y="821"/>
      <point x="89" y="830"/>
      <point x="64" y="830" type="curve" smooth="yes"/>
      <point x="35" y="830" type="line" smooth="yes"/>
      <point x="15" y="830"/>
      <point x="10" y="832"/>
      <point x="10" y="854" type="curve" smooth="yes"/>
      <point x="10" y="1016" type="line" smooth="yes"/>
      <point x="10" y="1037"/>
      <point x="17" y="1040"/>
      <point x="37" y="1040" type="curve" smooth="yes"/>
      <point x="564" y="1040" type="line" smooth="yes"/>
      <point x="591" y="1040"/>
      <point x="590" y="1039"/>
      <point x="590" y="1010" type="curve" smooth="yes"/>
      <point x="590" y="859" type="line" smooth="yes"/>
      <point x="590" y="831"/>
      <point x="597" y="830"/>
      <point x="569" y="830" type="curve" smooth="yes"/>
      <point x="535" y="830" type="line" smooth="yes"/>
      <point x="513" y="830"/>
      <point x="510" y="823"/>
      <point x="510" y="800" type="curve" smooth="yes"/>
      <point x="510" y="675" type="line" smooth="yes"/>
      <point x="510" y="651"/>
      <point x="519" y="650"/>
      <point x="544" y="650" type="curve" smooth="yes"/>
      <point x="593" y="650" type="line" smooth="yes"/>
      <point x="865" y="650"/>
      <point x="1043" y="550"/>
      <point x="1043" y="310" type="curve" smooth="yes"/>
      <point x="1043" y="70"/>
      <point x="865" y="0"/>
      <point x="593" y="0" type="curve" smooth="yes"/>
    </contour>
    <contour>
      <point x="528" y="210" type="line" smooth="yes"/>
      <point x="560" y="210"/>
      <point x="578" y="222"/>
      <point x="578" y="320" type="curve" smooth="yes"/>
      <point x="578" y="418"/>
      <point x="560" y="440"/>
      <point x="528" y="440" type="curve" smooth="yes"/>
      <point x="524" y="440" type="line" smooth="yes"/>
      <point x="510" y="440"/>
      <point x="510" y="432"/>
      <point x="510" y="384" type="curve" smooth="yes"/>
      <point x="510" y="246" type="line" smooth="yes"/>
      <point x="510" y="214"/>
      <point x="511" y="210"/>
      <point x="523" y="210" type="curve" smooth="yes"/>
    </contour>
  </outline>
</glyph>
<glyph name="ereversed-cy" format="2">
  <advance height="2310" width="988"/>
  <unicode hex="044D"/>
  <outline>
    <contour>
      <point x="958" y="540" type="curve" smooth="yes"/>
      <point x="958" y="240"/>
      <point x="852" y="-40"/>
      <point x="430" y="-40" type="curve" smooth="yes"/>
      <point x="106" y="-40"/>
      <point x="30" y="122"/>
      <point x="30" y="296" type="curve" smooth="yes"/>
      <point x="30" y="442"/>
      <point x="138" y="520"/>
      <point x="226" y="520" type="curve" smooth="yes"/>
      <point x="330" y="520"/>
      <point x="420" y="438"/>
      <point x="420" y="344" type="curve" smooth="yes"/>
      <point x="420" y="242"/>
      <point x="363" y="222"/>
      <point x="363" y="188" type="curve" smooth="yes"/>
      <point x="363" y="162"/>
      <point x="384" y="142"/>
      <point x="420" y="142" type="curve" smooth="yes"/>
      <point x="503" y="142"/>
      <point x="514" y="223"/>
      <point x="521" y="369" type="curve" smooth="yes"/>
      <point x="522.396" y="398.121"/>
      <point x="517" y="401"/>
      <point x="494" y="401" type="curve" smooth="yes"/>
      <point x="451" y="401" type="line" smooth="yes"/>
      <point x="429" y="401"/>
      <point x="425" y="408"/>
      <point x="425" y="431" type="curve" smooth="yes"/>
      <point x="425" y="588" type="line" smooth="yes"/>
      <point x="425" y="610"/>
      <point x="434" y="610"/>
      <point x="456" y="610" type="curve" smooth="yes"/>
      <point x="495" y="610" type="line" smooth="yes"/>
      <point x="526" y="610"/>
      <point x="522.243" y="612.862"/>
      <point x="521" y="640" type="curve" smooth="yes"/>
      <point x="515" y="771"/>
      <point x="511" y="874"/>
      <point x="438" y="874" type="curve" smooth="yes"/>
      <point x="384" y="874"/>
      <point x="352" y="812"/>
      <point x="315" y="649" type="curve" smooth="yes"/>
      <point x="310" y="628"/>
      <point x="317" y="620"/>
      <point x="291" y="620" type="curve" smooth="yes"/>
      <point x="90" y="620" type="line" smooth="yes"/>
      <point x="67" y="620"/>
      <point x="61" y="624"/>
      <point x="61" y="646" type="curve" smooth="yes"/>
      <point x="61" y="1031" type="line" smooth="yes"/>
      <point x="61" y="1047"/>
      <point x="64" y="1050"/>
      <point x="81" y="1050" type="curve" smooth="yes"/>
      <point x="238" y="1050" type="line" smooth="yes"/>
      <point x="257" y="1050"/>
      <point x="255" y="1046"/>
      <point x="259" y="1032" type="curve" smooth="yes"/>
      <point x="265" y="1019" type="line" smooth="yes"/>
      <point x="276" y="982"/>
      <point x="284" y="982"/>
      <point x="304" y="1003" type="curve" smooth="yes"/>
      <point x="355" y="1059"/>
      <point x="419" y="1080"/>
      <point x="512" y="1080" type="curve" smooth="yes"/>
      <point x="814" y="1080"/>
      <point x="958" y="850"/>
    </contour>
  </outline>
</glyph>
<glyph name="ya-cy" format="2">
  <advance height="2234" width="1158"/>
  <unicode hex="044F"/>
  <outline>
    <contour>
      <point x="629" y="600" type="line" smooth="yes"/>
      <point x="645" y="600"/>
      <point x="648" y="608"/>
      <point x="648" y="656" type="curve" smooth="yes"/>
      <point x="648" y="794" type="line" smooth="yes"/>
      <point x="648" y="826"/>
      <point x="642" y="830"/>
      <point x="625" y="830" type="curve" smooth="yes"/>
      <point x="620" y="830" type="line" smooth="yes"/>
      <point x="588" y="830"/>
      <point x="560" y="818"/>
      <point x="560" y="720" type="curve" smooth="yes"/>
      <point x="560" y="622"/>
      <point x="588" y="600"/>
      <point x="620" y="600" type="curve" smooth="yes"/>
    </contour>
    <contour>
      <point x="-23" y="330" type="curve" smooth="yes"/>
      <point x="-23.238" y="348.026"/>
      <point x="-20.563" y="362.068"/>
      <point x="-1" y="363" type="curve" smooth="yes"/>
      <point x="81" y="365" type="line" smooth="yes"/>
      <point x="104.358" y="366.112"/>
      <point x="106.913" y="361.058"/>
      <point x="108" y="351" type="curve" smooth="yes"/>
      <point x="112.885" y="305.797"/>
      <point x="113" y="287"/>
      <point x="130" y="287" type="curve" smooth="yes"/>
      <point x="171" y="287"/>
      <point x="103" y="412"/>
      <point x="181" y="474" type="curve" smooth="yes"/>
      <point x="205.915" y="493.805"/>
      <point x="251" y="515"/>
      <point x="212" y="526" type="curve" smooth="yes"/>
      <point x="82" y="562"/>
      <point x="30" y="642"/>
      <point x="30" y="750" type="curve" smooth="yes"/>
      <point x="30" y="940"/>
      <point x="133" y="1040"/>
      <point x="405" y="1040" type="curve" smooth="yes"/>
      <point x="1125" y="1040" type="line" smooth="yes"/>
      <point x="1146" y="1040"/>
      <point x="1148" y="1036"/>
      <point x="1148" y="1014" type="curve" smooth="yes"/>
      <point x="1148" y="852" type="line" smooth="yes"/>
      <point x="1148" y="832"/>
      <point x="1138" y="830"/>
      <point x="1120" y="830" type="curve" smooth="yes"/>
      <point x="1090" y="830" type="line" smooth="yes"/>
      <point x="1069" y="830"/>
      <point x="1068" y="823"/>
      <point x="1068" y="803" type="curve" smooth="yes"/>
      <point x="1068" y="244" type="line" smooth="yes"/>
      <point x="1068" y="219"/>
      <point x="1069" y="210"/>
      <point x="1094" y="210" type="curve" smooth="yes"/>
      <point x="1123" y="210" type="line" smooth="yes"/>
      <point x="1143" y="210"/>
      <point x="1148" y="208"/>
      <point x="1148" y="186" type="curve" smooth="yes"/>
      <point x="1148" y="24" type="line" smooth="yes"/>
      <point x="1148" y="3"/>
      <point x="1141" y="0"/>
      <point x="1121" y="0" type="curve" smooth="yes"/>
      <point x="624" y="0" type="line" smooth="yes"/>
      <point x="597" y="0"/>
      <point x="588" y="1"/>
      <point x="588" y="30" type="curve" smooth="yes"/>
      <point x="588" y="181" type="line" smooth="yes"/>
      <point x="588" y="209"/>
      <point x="611" y="210"/>
      <point x="629" y="210" type="curve" smooth="yes"/>
      <point x="633" y="210" type="line" smooth="yes"/>
      <point x="645" y="210"/>
      <point x="648" y="217"/>
      <point x="648" y="240" type="curve" smooth="yes"/>
      <point x="648" y="395" type="line" smooth="yes"/>
      <point x="648" y="419"/>
      <point x="639" y="420"/>
      <point x="614" y="420" type="curve" smooth="yes"/>
      <point x="612" y="420" type="line" smooth="yes"/>
      <point x="519" y="420"/>
      <point x="653" y="-40"/>
      <point x="257" y="-40" type="curve" smooth="yes"/>
      <point x="13" y="-40"/>
      <point x="-21" y="179"/>
    </contour>
  </outline>
</glyph>
<glyph name="e-cy" format="2">
  <advance height="2310" width="988"/>
  <unicode hex="0454"/>
  <outline>
    <contour>
      <point x="30" y="510" type="curve" smooth="yes"/>
      <point x="30" y="810"/>
      <point x="146" y="1080"/>
      <point x="558" y="1080" type="curve" smooth="yes"/>
      <point x="882" y="1080"/>
      <point x="958" y="918"/>
      <point x="958" y="744" type="curve" smooth="yes"/>
      <point x="958" y="588"/>
      <point x="885" y="500"/>
      <point x="747" y="500" type="curve" smooth="yes"/>
      <point x="633" y="500"/>
      <point x="578" y="552"/>
      <point x="578" y="666" type="curve" smooth="yes"/>
      <point x="578" y="788"/>
      <point x="610" y="788"/>
      <point x="610" y="852" type="curve" smooth="yes"/>
      <point x="610" y="878"/>
      <point x="574" y="898"/>
      <point x="548" y="898" type="curve" smooth="yes"/>
      <point x="493" y="898"/>
      <point x="477" y="831"/>
      <point x="472" y="668" type="curve" smooth="yes"/>
      <point x="471" y="649"/>
      <point x="476" y="639"/>
      <point x="498" y="639" type="curve" smooth="yes"/>
      <point x="544" y="639" type="line" smooth="yes"/>
      <point x="566" y="639"/>
      <point x="570" y="632"/>
      <point x="570" y="609" type="curve" smooth="yes"/>
      <point x="570" y="452" type="line" smooth="yes"/>
      <point x="570" y="430"/>
      <point x="561" y="430"/>
      <point x="539" y="430" type="curve" smooth="yes"/>
      <point x="504" y="430" type="line" smooth="yes"/>
      <point x="470" y="430"/>
      <point x="470" y="429"/>
      <point x="471" y="396" type="curve" smooth="yes"/>
      <point x="477" y="200"/>
      <point x="502" y="166"/>
      <point x="560" y="166" type="curve" smooth="yes"/>
      <point x="608" y="166"/>
      <point x="625" y="238"/>
      <point x="633" y="321" type="curve" smooth="yes"/>
      <point x="635" y="343"/>
      <point x="651" y="346"/>
      <point x="682" y="346" type="curve" smooth="yes"/>
      <point x="928" y="346" type="line" smooth="yes"/>
      <point x="962" y="346"/>
      <point x="959" y="343"/>
      <point x="959" y="315" type="curve" smooth="yes"/>
      <point x="957" y="64"/>
      <point x="828" y="-40"/>
      <point x="526" y="-40" type="curve" smooth="yes"/>
      <point x="114" y="-40"/>
      <point x="30" y="230"/>
    </contour>
  </outline>
</glyph>
<glyph name="yi-cy" format="2">
  <advance width="600"/>
  <unicode hex="0457"/>
  <outline>
    <contour>
      <point x="568" y="1230" type="curve" smooth="yes"/>
      <point x="462" y="1230"/>
      <point x="376" y="1316"/>
      <point x="376" y="1422" type="curve" smooth="yes"/>
      <point x="376" y="1528"/>
      <point x="462" y="1614"/>
      <point x="568" y="1614" type="curve" smooth="yes"/>
      <point x="674" y="1614"/>
      <point x="760" y="1528"/>
      <point x="760" y="1422" type="curve" smooth="yes"/>
      <point x="760" y="1316"/>
      <point x="674" y="1230"/>
    </contour>
    <contour>
      <point x="8" y="1230" type="curve" smooth="yes"/>
      <point x="-98" y="1230"/>
      <point x="-184" y="1316"/>
      <point x="-184" y="1422" type="curve" smooth="yes"/>
      <point x="-184" y="1528"/>
      <point x="-98" y="1614"/>
      <point x="8" y="1614" type="curve" smooth="yes"/>
      <point x="114" y="1614"/>
      <point x="200" y="1528"/>
      <point x="200" y="1422" type="curve" smooth="yes"/>
      <point x="200" y="1316"/>
      <point x="114" y="1230"/>
    </contour>
    <contour>
      <point x="71" y="830" type="curve" smooth="yes"/>
      <point x="36" y="830" type="line" smooth="yes"/>
      <point x="18" y="830"/>
      <point x="10" y="833"/>
      <point x="10" y="850" type="curve" smooth="yes"/>
      <point x="10" y="1012" type="line" smooth="yes"/>
      <point x="10" y="1035"/>
      <point x="18" y="1040"/>
      <point x="40" y="1040" type="curve" smooth="yes"/>
      <point x="485" y="1040" type="line" smooth="yes"/>
      <point x="504" y="1040"/>
      <point x="510" y="1039"/>
      <point x="510" y="1020" type="curve" smooth="yes"/>
      <point x="510" y="235" type="line" smooth="yes"/>
      <point x="510" y="215"/>
      <point x="511" y="210"/>
      <point x="531" y="210" type="curve" smooth="yes"/>
      <point x="562" y="210" type="line" smooth="yes"/>
      <point x="585" y="210"/>
      <point x="590" y="209"/>
      <point x="590" y="186" type="curve" smooth="yes"/>
      <point x="590" y="31" type="line" smooth="yes"/>
      <point x="590" y="2"/>
      <point x="582" y="0"/>
      <point x="552" y="0" type="curve" smooth="yes"/>
      <point x="34" y="0" type="line" smooth="yes"/>
      <point x="14" y="0"/>
      <point x="10" y="4"/>
      <point x="10" y="25" type="curve" smooth="yes"/>
      <point x="10" y="181" type="line" smooth="yes"/>
      <point x="10" y="206"/>
      <point x="13" y="210"/>
      <point x="37" y="210" type="curve" smooth="yes"/>
      <point x="64" y="210" type="line" smooth="yes"/>
      <point x="85" y="210"/>
      <point x="90" y="211"/>
      <point x="90" y="232" type="curve" smooth="yes"/>
      <point x="90" y="804" type="line" smooth="yes"/>
      <point x="90" y="821"/>
      <point x="87" y="830"/>
    </contour>
  </outline>
</glyph>
<glyph name="Yat-cy" format="2">
  <advance width="1330"/>
  <unicode hex="0462"/>
  <outline>
    <contour>
      <point x="55" y="1190" type="curve" smooth="yes"/>
      <point x="827" y="1190" type="line" smooth="yes"/>
      <point x="855" y="1190"/>
      <point x="858" y="1186"/>
      <point x="858" y="1162" type="curve" smooth="yes"/>
      <point x="858" y="1013" type="line" smooth="yes"/>
      <point x="858" y="989"/>
      <point x="856" y="980"/>
      <point x="824" y="980" type="curve" smooth="yes"/>
      <point x="53" y="980" type="line" smooth="yes"/>
      <point x="23" y="980"/>
      <point x="21" y="984"/>
      <point x="21" y="1010" type="curve" smooth="yes"/>
      <point x="21" y="1162" type="line" smooth="yes"/>
      <point x="21" y="1185"/>
      <point x="29" y="1190"/>
    </contour>
    <component base="Softsign-cy" xOffset="5"/>
  </outline>
</glyph>
<glyph name="Geupturn-cy" format="2">
  <advance width="1120"/>
  <unicode hex="0490"/>
  <anchor x="624" y="1500" name="Anchor-0"/>
  <anchor x="256" y="0" name="Anchor-1"/>
  <anchor x="256" y="0" name="Anchor-2"/>
  <outline>
    <contour>
      <point x="91" y="1230" type="curve" smooth="yes"/>
      <point x="44" y="1230" type="line" smooth="yes"/>
      <point x="25" y="1230"/>
      <point x="10" y="1242"/>
      <point x="10" y="1262" type="curve" smooth="yes"/>
      <point x="10" y="1471" type="line" smooth="yes"/>
      <point x="10" y="1485"/>
      <point x="21" y="1500"/>
      <point x="35" y="1500" type="curve" smooth="yes"/>
      <point x="560" y="1500" type="line" smooth="yes"/>
      <point x="789" y="1500"/>
      <point x="857" y="1577"/>
      <point x="860" y="1836" type="curve" smooth="yes"/>
      <point x="860" y="1855"/>
      <point x="860" y="1860"/>
      <point x="880" y="1860" type="curve" smooth="yes"/>
      <point x="1092" y="1860" type="line" smooth="yes"/>
      <point x="1111" y="1860"/>
      <point x="1120" y="1859"/>
      <point x="1120" y="1840" type="curve" smooth="yes"/>
      <point x="1120" y="1259" type="line" smooth="yes"/>
      <point x="1120" y="1237"/>
      <point x="1117" y="1230"/>
      <point x="1096" y="1230" type="curve" smooth="yes"/>
      <point x="629" y="1230" type="line" smooth="yes"/>
      <point x="604" y="1230"/>
      <point x="595" y="1216"/>
      <point x="595" y="1193" type="curve" smooth="yes"/>
      <point x="595" y="310" type="line" smooth="yes"/>
      <point x="595" y="278"/>
      <point x="599" y="270"/>
      <point x="633" y="270" type="curve" smooth="yes"/>
      <point x="707" y="270" type="line" smooth="yes"/>
      <point x="726" y="270"/>
      <point x="735" y="259"/>
      <point x="735" y="240" type="curve" smooth="yes"/>
      <point x="735" y="40" type="line" smooth="yes"/>
      <point x="735" y="14"/>
      <point x="716" y="0"/>
      <point x="692" y="0" type="curve" smooth="yes"/>
      <point x="45" y="0" type="line" smooth="yes"/>
      <point x="25" y="0"/>
      <point x="10" y="10"/>
      <point x="10" y="30" type="curve" smooth="yes"/>
      <point x="10" y="242" type="line" smooth="yes"/>
      <point x="10" y="259"/>
      <point x="19" y="270"/>
      <point x="37" y="270" type="curve" smooth="yes"/>
      <point x="103" y="270" type="line" smooth="yes"/>
      <point x="125" y="270"/>
      <point x="130" y="277"/>
      <point x="130" y="300" type="curve" smooth="yes"/>
      <point x="130" y="1200" type="line" smooth="yes"/>
      <point x="130" y="1227"/>
      <point x="117" y="1230"/>
    </contour>
  </outline>
</glyph>
<glyph name="geupturn-cy" format="2">
  <advance height="2234" width="870"/>
  <unicode hex="0491"/>
  <outline>
    <contour>
      <point x="61" y="830" type="curve" smooth="yes"/>
      <point x="34" y="830" type="line" smooth="yes"/>
      <point x="15" y="830"/>
      <point x="10" y="832"/>
      <point x="10" y="852" type="curve" smooth="yes"/>
      <point x="10" y="1021" type="line" smooth="yes"/>
      <point x="10" y="1035"/>
      <point x="11" y="1040"/>
      <point x="25" y="1040" type="curve" smooth="yes"/>
      <point x="345" y="1040" type="line" smooth="yes"/>
      <point x="544" y="1040"/>
      <point x="612" y="1117"/>
      <point x="615" y="1296" type="curve" smooth="yes"/>
      <point x="615" y="1315"/>
      <point x="615" y="1320"/>
      <point x="635" y="1320" type="curve" smooth="yes"/>
      <point x="837" y="1320" type="line" smooth="yes"/>
      <point x="856" y="1320"/>
      <point x="865" y="1319"/>
      <point x="865" y="1300" type="curve" smooth="yes"/>
      <point x="865" y="859" type="line" smooth="yes"/>
      <point x="865" y="837"/>
      <point x="862" y="830"/>
      <point x="841" y="830" type="curve" smooth="yes"/>
      <point x="554" y="830" type="line" smooth="yes"/>
      <point x="529" y="830"/>
      <point x="510" y="816"/>
      <point x="510" y="793" type="curve" smooth="yes"/>
      <point x="510" y="250" type="line" smooth="yes"/>
      <point x="510" y="218"/>
      <point x="524" y="210"/>
      <point x="558" y="210" type="curve" smooth="yes"/>
      <point x="562" y="210" type="line" smooth="yes"/>
      <point x="581" y="210"/>
      <point x="590" y="209"/>
      <point x="590" y="190" type="curve" smooth="yes"/>
      <point x="590" y="30" type="line" smooth="yes"/>
      <point x="590" y="4"/>
      <point x="581" y="0"/>
      <point x="557" y="0" type="curve" smooth="yes"/>
      <point x="35" y="0" type="line" smooth="yes"/>
      <point x="15" y="0"/>
      <point x="10" y="0"/>
      <point x="10" y="20" type="curve" smooth="yes"/>
      <point x="10" y="192" type="line" smooth="yes"/>
      <point x="10" y="209"/>
      <point x="19" y="210"/>
      <point x="37" y="210" type="curve" smooth="yes"/>
      <point x="63" y="210" type="line" smooth="yes"/>
      <point x="85" y="210"/>
      <point x="90" y="217"/>
      <point x="90" y="240" type="curve" smooth="yes"/>
      <point x="90" y="800" type="line" smooth="yes"/>
      <point x="90" y="827"/>
      <point x="87" y="830"/>
    </contour>
  </outline>
</glyph>
<glyph name="endash" format="2">
  <advance width="1432"/>
  <unicode hex="2013"/>
  <outline>
    <contour>
      <point x="180" y="890" type="curve" smooth="yes"/>
      <point x="1253" y="890" type="line" smooth="yes"/>
      <point x="1307" y="890"/>
      <point x="1312" y="883"/>
      <point x="1312" y="851" type="curve" smooth="yes"/>
      <point x="1312" y="701" type="line" smooth="yes"/>
      <point x="1312" y="666"/>
      <point x="1310" y="660"/>
      <point x="1249" y="660" type="curve" smooth="yes"/>
      <point x="194" y="660" type="line" smooth="yes"/>
      <point x="131" y="660"/>
      <point x="120" y="665"/>
      <point x="120" y="700" type="curve" smooth="yes"/>
      <point x="120" y="849" type="line" smooth="yes"/>
      <point x="120" y="881"/>
      <point x="124" y="890"/>
    </contour>
  </outline>
</glyph>
<glyph name="numero" format="2">
  <advance width="2136"/>
  <unicode hex="2116"/>
  <anchor x="806" y="1500" name="Anchor-0"/>
  <anchor x="606" y="0" name="Anchor-1"/>
  <anchor x="606" y="0" name="Anchor-2"/>
  <outline>
    <contour>
      <point x="1338" y="318" type="curve" smooth="yes"/>
      <point x="1964" y="318" type="line" smooth="yes"/>
      <point x="1987" y="318"/>
      <point x="2010" y="304"/>
      <point x="2010" y="280" type="curve" smooth="yes"/>
      <point x="2010" y="131" type="line" smooth="yes"/>
      <point x="2010" y="107"/>
      <point x="1988" y="88"/>
      <point x="1962" y="88" type="curve" smooth="yes"/>
      <point x="1336" y="88" type="line" smooth="yes"/>
      <point x="1311" y="88"/>
      <point x="1290" y="102"/>
      <point x="1290" y="128" type="curve" smooth="yes"/>
      <point x="1290" y="280" type="line" smooth="yes"/>
      <point x="1290" y="303"/>
      <point x="1317" y="318"/>
    </contour>
    <contour>
      <point x="1580" y="910" type="curve" smooth="yes"/>
      <point x="1580" y="672"/>
      <point x="1600" y="630"/>
      <point x="1648" y="630" type="curve" smooth="yes"/>
      <point x="1696" y="630"/>
      <point x="1716" y="672"/>
      <point x="1716" y="870" type="curve" smooth="yes"/>
      <point x="1716" y="1108"/>
      <point x="1696" y="1150"/>
      <point x="1648" y="1150" type="curve" smooth="yes"/>
      <point x="1600" y="1150"/>
      <point x="1580" y="1108"/>
    </contour>
    <contour>
      <point x="1220" y="870" type="curve" smooth="yes"/>
      <point x="1220" y="1150"/>
      <point x="1356" y="1360"/>
      <point x="1648" y="1360" type="curve" smooth="yes"/>
      <point x="1940" y="1360"/>
      <point x="2076" y="1150"/>
      <point x="2076" y="910" type="curve" smooth="yes"/>
      <point x="2076" y="630"/>
      <point x="1940" y="420"/>
      <point x="1648" y="420" type="curve" smooth="yes"/>
      <point x="1356" y="420"/>
      <point x="1220" y="630"/>
    </contour>
    <component base="N"/>
  </outline>
</glyph>
<glyph name="b.sc" format="2">
  <advance width="1390"/>
  <anchor x="646" y="1040" name="Anchor-0"/>
  <anchor x="668" y="0" name="Anchor-1"/>
  <outline>
    <contour>
      <point x="780" y="0" type="curve" smooth="yes"/>
      <point x="67" y="0" type="line" smooth="yes"/>
      <point x="32" y="0"/>
      <point x="35" y="22"/>
      <point x="35" y="59" type="curve" smooth="yes"/>
      <point x="35" y="214" type="line" smooth="yes"/>
      <point x="35" y="235"/>
      <point x="40" y="241"/>
      <point x="59" y="241" type="curve" smooth="yes"/>
      <point x="155" y="241" type="line" smooth="yes"/>
      <point x="184" y="241"/>
      <point x="188" y="249"/>
      <point x="188" y="277" type="curve" smooth="yes"/>
      <point x="188" y="769" type="line" smooth="yes"/>
      <point x="188" y="791"/>
      <point x="182" y="799"/>
      <point x="159" y="799" type="curve" smooth="yes"/>
      <point x="65" y="799" type="line" smooth="yes"/>
      <point x="37" y="799"/>
      <point x="35" y="806"/>
      <point x="35" y="836" type="curve" smooth="yes"/>
      <point x="35" y="994" type="line" smooth="yes"/>
      <point x="35" y="1026"/>
      <point x="38" y="1040"/>
      <point x="67" y="1040" type="curve" smooth="yes"/>
      <point x="727" y="1040" type="line" smooth="yes"/>
      <point x="922" y="1040"/>
      <point x="1064" y="1021"/>
      <point x="1152" y="984" type="curve" smooth="yes"/>
      <point x="1240" y="947"/>
      <point x="1284" y="880"/>
      <point x="1284" y="783" type="curve" smooth="yes"/>
      <point x="1284" y="671"/>
      <point x="1202" y="596"/>
      <point x="1038" y="558" type="curve" smooth="yes"/>
      <point x="1021" y="554"/>
      <point x="1012" y="549"/>
      <point x="1012" y="542" type="curve" smooth="yes"/>
      <point x="1012" y="535"/>
      <point x="1022" y="530"/>
      <point x="1043" y="527" type="curve" smooth="yes"/>
      <point x="1142" y="511"/>
      <point x="1219" y="483"/>
      <point x="1274" y="444" type="curve" smooth="yes"/>
      <point x="1329" y="405"/>
      <point x="1356" y="354"/>
      <point x="1356" y="291" type="curve" smooth="yes"/>
      <point x="1356" y="157"/>
      <point x="1292" y="88"/>
      <point x="1189" y="49" type="curve" smooth="yes"/>
      <point x="1079" y="8"/>
      <point x="956" y="0"/>
    </contour>
    <contour>
      <point x="618" y="655" type="curve" smooth="yes"/>
      <point x="714" y="655" type="line" smooth="yes"/>
      <point x="757" y="655"/>
      <point x="792" y="662"/>
      <point x="817" y="674" type="curve" smooth="yes"/>
      <point x="842" y="686"/>
      <point x="855" y="705"/>
      <point x="855" y="732" type="curve" smooth="yes"/>
      <point x="855" y="759"/>
      <point x="844" y="777"/>
      <point x="822" y="786" type="curve" smooth="yes"/>
      <point x="800" y="795"/>
      <point x="764" y="799"/>
      <point x="714" y="799" type="curve" smooth="yes"/>
      <point x="614" y="799" type="line" smooth="yes"/>
      <point x="596" y="799"/>
      <point x="578" y="801"/>
      <point x="578" y="785" type="curve" smooth="yes"/>
      <point x="578" y="682" type="line" smooth="yes"/>
      <point x="578" y="657"/>
      <point x="589" y="655"/>
    </contour>
    <contour>
      <point x="747" y="241" type="line" smooth="yes"/>
      <point x="810" y="241"/>
      <point x="854" y="250"/>
      <point x="876" y="267" type="curve" smooth="yes"/>
      <point x="898" y="284"/>
      <point x="909" y="307"/>
      <point x="909" y="334" type="curve" smooth="yes"/>
      <point x="909" y="361"/>
      <point x="894" y="381"/>
      <point x="864" y="394" type="curve" smooth="yes"/>
      <point x="834" y="407"/>
      <point x="796" y="413"/>
      <point x="747" y="413" type="curve" smooth="yes"/>
      <point x="608" y="413" type="line" smooth="yes"/>
      <point x="588" y="413"/>
      <point x="578" y="406"/>
      <point x="578" y="393" type="curve" smooth="yes"/>
      <point x="578" y="267" type="line" smooth="yes"/>
      <point x="578" y="245"/>
      <point x="585" y="241"/>
      <point x="611" y="241" type="curve" smooth="yes"/>
    </contour>
  </outline>
</glyph>
<glyph name="eight.osf" format="2">
  <advance height="2310" width="1050"/>
  <outline>
    <contour>
      <point x="430" y="444" type="curve" smooth="yes"/>
      <point x="430" y="216"/>
      <point x="472" y="170"/>
      <point x="520" y="170" type="curve" smooth="yes"/>
      <point x="568" y="170"/>
      <point x="600" y="216"/>
      <point x="600" y="444" type="curve" smooth="yes"/>
      <point x="600" y="662"/>
      <point x="568" y="720"/>
      <point x="520" y="720" type="curve" smooth="yes"/>
      <point x="472" y="720"/>
      <point x="430" y="662"/>
    </contour>
    <contour>
      <point x="60" y="1150" type="curve" smooth="yes"/>
      <point x="60" y="1370"/>
      <point x="198" y="1520"/>
      <point x="520" y="1520" type="curve" smooth="yes"/>
      <point x="852" y="1520"/>
      <point x="990" y="1370"/>
      <point x="990" y="1150" type="curve" smooth="yes"/>
      <point x="990" y="1004"/>
      <point x="888" y="897"/>
      <point x="765" y="842" type="curve" smooth="yes"/>
      <point x="734" y="828"/>
      <point x="709" y="824"/>
      <point x="709" y="810" type="curve" smooth="yes"/>
      <point x="709" y="798"/>
      <point x="735" y="792"/>
      <point x="764" y="780" type="curve" smooth="yes"/>
      <point x="918" y="716"/>
      <point x="1020" y="591"/>
      <point x="1020" y="420" type="curve" smooth="yes"/>
      <point x="1020" y="160"/>
      <point x="882" y="-20"/>
      <point x="520" y="-20" type="curve" smooth="yes"/>
      <point x="158" y="-20"/>
      <point x="30" y="160"/>
      <point x="30" y="420" type="curve" smooth="yes"/>
      <point x="30" y="600"/>
      <point x="134" y="731"/>
      <point x="302" y="790" type="curve" smooth="yes"/>
      <point x="323" y="797"/>
      <point x="336" y="797"/>
      <point x="336" y="812" type="curve" smooth="yes"/>
      <point x="336" y="826"/>
      <point x="313" y="827"/>
      <point x="299" y="832" type="curve" smooth="yes"/>
      <point x="164" y="884"/>
      <point x="60" y="994"/>
    </contour>
    <contour>
      <point x="450" y="1105" type="curve" smooth="yes"/>
      <point x="450" y="957"/>
      <point x="482" y="900"/>
      <point x="520" y="900" type="curve" smooth="yes"/>
      <point x="578" y="900"/>
      <point x="590" y="957"/>
      <point x="590" y="1105" type="curve" smooth="yes"/>
      <point x="590" y="1253"/>
      <point x="574" y="1330"/>
      <point x="526" y="1330" type="curve" smooth="yes"/>
      <point x="478" y="1330"/>
      <point x="450" y="1253"/>
    </contour>
  </outline>
</glyph>
<glyph name="eight.tosf" format="2">
  <advance height="2310" width="1100"/>
  <outline>
    <contour>
      <point x="455" y="444" type="curve" smooth="yes"/>
      <point x="455" y="216"/>
      <point x="497" y="170"/>
      <point x="545" y="170" type="curve" smooth="yes"/>
      <point x="593" y="170"/>
      <point x="625" y="216"/>
      <point x="625" y="444" type="curve" smooth="yes"/>
      <point x="625" y="662"/>
      <point x="593" y="720"/>
      <point x="545" y="720" type="curve" smooth="yes"/>
      <point x="497" y="720"/>
      <point x="455" y="662"/>
    </contour>
    <contour>
      <point x="85" y="1150" type="curve" smooth="yes"/>
      <point x="85" y="1370"/>
      <point x="223" y="1520"/>
      <point x="545" y="1520" type="curve" smooth="yes"/>
      <point x="877" y="1520"/>
      <point x="1015" y="1370"/>
      <point x="1015" y="1150" type="curve" smooth="yes"/>
      <point x="1015" y="1004"/>
      <point x="913" y="897"/>
      <point x="790" y="842" type="curve" smooth="yes"/>
      <point x="759" y="828"/>
      <point x="734" y="824"/>
      <point x="734" y="810" type="curve" smooth="yes"/>
      <point x="734" y="798"/>
      <point x="760" y="792"/>
      <point x="789" y="780" type="curve" smooth="yes"/>
      <point x="943" y="716"/>
      <point x="1045" y="591"/>
      <point x="1045" y="420" type="curve" smooth="yes"/>
      <point x="1045" y="160"/>
      <point x="907" y="-20"/>
      <point x="545" y="-20" type="curve" smooth="yes"/>
      <point x="183" y="-20"/>
      <point x="55" y="160"/>
      <point x="55" y="420" type="curve" smooth="yes"/>
      <point x="55" y="600"/>
      <point x="159" y="731"/>
      <point x="327" y="790" type="curve" smooth="yes"/>
      <point x="348" y="797"/>
      <point x="361" y="797"/>
      <point x="361" y="812" type="curve" smooth="yes"/>
      <point x="361" y="826"/>
      <point x="338" y="827"/>
      <point x="324" y="832" type="curve" smooth="yes"/>
      <point x="189" y="884"/>
      <point x="85" y="994"/>
    </contour>
    <contour>
      <point x="475" y="1105" type="curve" smooth="yes"/>
      <point x="475" y="957"/>
      <point x="507" y="900"/>
      <point x="545" y="900" type="curve" smooth="yes"/>
      <point x="603" y="900"/>
      <point x="615" y="957"/>
      <point x="615" y="1105" type="curve" smooth="yes"/>
      <point x="615" y="1253"/>
      <point x="599" y="1330"/>
      <point x="551" y="1330" type="curve" smooth="yes"/>
      <point x="503" y="1330"/>
      <point x="475" y="1253"/>
    </contour>
  </outline>
</glyph>
<glyph name="f_f_l.liga" format="2">
  <advance height="2310" width="1710"/>
  <outline>
    <contour>
      <point x="538" y="1040" type="curve" smooth="yes"/>
      <point x="616" y="1040" type="line" smooth="yes"/>
      <point x="631" y="1040"/>
      <point x="640" y="1041"/>
      <point x="640" y="1056" type="curve" smooth="yes"/>
      <point x="640" y="1058" type="line" smooth="yes"/>
      <point x="640" y="1062"/>
      <point x="636.699" y="1063.234"/>
      <point x="629" y="1068" type="curve" smooth="yes"/>
      <point x="566" y="1107"/>
      <point x="526" y="1132"/>
      <point x="526" y="1232" type="curve" smooth="yes"/>
      <point x="526" y="1326"/>
      <point x="578" y="1338"/>
      <point x="578" y="1360" type="curve" smooth="yes"/>
      <point x="578" y="1374"/>
      <point x="560" y="1386"/>
      <point x="540" y="1386" type="curve" smooth="yes"/>
      <point x="434" y="1386"/>
      <point x="510" y="1204"/>
      <point x="510" y="1070" type="curve" smooth="yes"/>
      <point x="510" y="1046"/>
      <point x="515" y="1040"/>
    </contour>
    <contour>
      <point x="10" y="40" type="curve" smooth="yes"/>
      <point x="10" y="174" type="line" smooth="yes"/>
      <point x="10" y="202"/>
      <point x="15" y="210"/>
      <point x="45" y="210" type="curve" smooth="yes"/>
      <point x="50" y="210" type="line" smooth="yes"/>
      <point x="83" y="210"/>
      <point x="90" y="214"/>
      <point x="90" y="246" type="curve" smooth="yes"/>
      <point x="90" y="790" type="line" smooth="yes"/>
      <point x="90" y="825"/>
      <point x="69" y="830"/>
      <point x="38" y="830" type="curve" smooth="yes"/>
      <point x="56" y="830" type="line" smooth="yes"/>
      <point x="15" y="830"/>
      <point x="10" y="837"/>
      <point x="10" y="877" type="curve" smooth="yes"/>
      <point x="10" y="999" type="line" smooth="yes"/>
      <point x="10" y="1031"/>
      <point x="12" y="1040"/>
      <point x="44" y="1040" type="curve" smooth="yes"/>
      <point x="56" y="1040" type="line" smooth="yes"/>
      <point x="88" y="1040"/>
      <point x="90" y="1048"/>
      <point x="90" y="1081" type="curve" smooth="yes"/>
      <point x="90" y="1104" type="line" smooth="yes"/>
      <point x="90" y="1326"/>
      <point x="204" y="1560"/>
      <point x="534" y="1560" type="curve" smooth="yes"/>
      <point x="635" y="1560"/>
      <point x="692.73" y="1548.781"/>
      <point x="758" y="1521" type="curve" smooth="yes"/>
      <point x="778.085" y="1512.452"/>
      <point x="788" y="1508"/>
      <point x="803" y="1517" type="curve" smooth="yes"/>
      <point x="912.88" y="1582.928"/>
      <point x="986" y="1600"/>
      <point x="1104" y="1600" type="curve" smooth="yes"/>
      <point x="1267" y="1600"/>
      <point x="1324" y="1574"/>
      <point x="1405" y="1520" type="curve" smooth="yes"/>
      <point x="1420" y="1510"/>
      <point x="1437.115" y="1502.787"/>
      <point x="1471" y="1521" type="curve" smooth="yes"/>
      <point x="1551" y="1564" type="line" smooth="yes"/>
      <point x="1593" y="1586"/>
      <point x="1620" y="1585"/>
      <point x="1620" y="1506" type="curve" smooth="yes"/>
      <point x="1620" y="243" type="line" smooth="yes"/>
      <point x="1620" y="218"/>
      <point x="1625" y="210"/>
      <point x="1652" y="210" type="curve" smooth="yes"/>
      <point x="1665" y="210" type="line" smooth="yes"/>
      <point x="1695" y="210"/>
      <point x="1700" y="204"/>
      <point x="1700" y="172" type="curve" smooth="yes"/>
      <point x="1700" y="33" type="line" smooth="yes"/>
      <point x="1700" y="1"/>
      <point x="1691" y="0"/>
      <point x="1659" y="0" type="curve" smooth="yes"/>
      <point x="1163" y="0" type="line" smooth="yes"/>
      <point x="1133" y="0"/>
      <point x="1130" y="7"/>
      <point x="1130" y="38" type="curve" smooth="yes"/>
      <point x="1130" y="176" type="line" smooth="yes"/>
      <point x="1130" y="202"/>
      <point x="1135" y="210"/>
      <point x="1163" y="210" type="curve" smooth="yes"/>
      <point x="1159" y="210" type="line" smooth="yes"/>
      <point x="1191" y="210"/>
      <point x="1200" y="212"/>
      <point x="1200" y="244" type="curve" smooth="yes"/>
      <point x="1200" y="1068" type="line" smooth="yes"/>
      <point x="1200" y="1098"/>
      <point x="1184.857" y="1095.79"/>
      <point x="1165" y="1107" type="curve" smooth="yes"/>
      <point x="1103" y="1142"/>
      <point x="1076" y="1187"/>
      <point x="1076" y="1272" type="curve" smooth="yes"/>
      <point x="1076" y="1366"/>
      <point x="1128" y="1378"/>
      <point x="1128" y="1400" type="curve" smooth="yes"/>
      <point x="1128" y="1414"/>
      <point x="1110" y="1426"/>
      <point x="1090" y="1426" type="curve" smooth="yes"/>
      <point x="980" y="1426"/>
      <point x="1060" y="1244"/>
      <point x="1060" y="1100" type="curve" smooth="yes"/>
      <point x="1060" y="1079" type="line" smooth="yes"/>
      <point x="1060" y="1046"/>
      <point x="1064" y="1040"/>
      <point x="1096" y="1040" type="curve" smooth="yes"/>
      <point x="1117" y="1040" type="line" smooth="yes"/>
      <point x="1142" y="1040"/>
      <point x="1150" y="1038"/>
      <point x="1150" y="1014" type="curve" smooth="yes"/>
      <point x="1150" y="867" type="line" smooth="yes"/>
      <point x="1150" y="838"/>
      <point x="1147" y="830"/>
      <point x="1119" y="830" type="curve" smooth="yes"/>
      <point x="1110" y="830" type="line" smooth="yes"/>
      <point x="1077" y="830"/>
      <point x="1060" y="826"/>
      <point x="1060" y="790" type="curve" smooth="yes"/>
      <point x="1060" y="252" type="line" smooth="yes"/>
      <point x="1060" y="212"/>
      <point x="1068" y="210"/>
      <point x="1109" y="210" type="curve" smooth="yes"/>
      <point x="1059" y="210" type="line" smooth="yes"/>
      <point x="1097" y="210"/>
      <point x="1110" y="208"/>
      <point x="1110" y="167" type="curve" smooth="yes"/>
      <point x="1110" y="43" type="line" smooth="yes"/>
      <point x="1110" y="3"/>
      <point x="1099" y="0"/>
      <point x="1061" y="0" type="curve" smooth="yes"/>
      <point x="615" y="0" type="line" smooth="yes"/>
      <point x="584" y="0"/>
      <point x="580" y="7"/>
      <point x="580" y="39" type="curve" smooth="yes"/>
      <point x="580" y="171" type="line" smooth="yes"/>
      <point x="580" y="204"/>
      <point x="584" y="210"/>
      <point x="606" y="210" type="curve" smooth="yes"/>
      <point x="608" y="210" type="line" smooth="yes"/>
      <point x="638" y="210"/>
      <point x="640" y="225"/>
      <point x="640" y="252" type="curve" smooth="yes"/>
      <point x="640" y="787" type="line" smooth="yes"/>
      <point x="640" y="829"/>
      <point x="625" y="830"/>
      <point x="586" y="830" type="curve" smooth="yes"/>
      <point x="550" y="830" type="line" smooth="yes"/>
      <point x="516" y="830"/>
      <point x="510" y="826"/>
      <point x="510" y="793" type="curve" smooth="yes"/>
      <point x="510" y="239" type="line" smooth="yes"/>
      <point x="510" y="211"/>
      <point x="511" y="210"/>
      <point x="530" y="210" type="curve" smooth="yes"/>
      <point x="532" y="210" type="line" smooth="yes"/>
      <point x="548" y="210"/>
      <point x="550" y="204"/>
      <point x="550" y="176" type="curve" smooth="yes"/>
      <point x="550" y="34" type="line" smooth="yes"/>
      <point x="550" y="8"/>
      <point x="547" y="0"/>
      <point x="522" y="0" type="curve" smooth="yes"/>
      <point x="46" y="0" type="line" smooth="yes"/>
      <point x="14" y="0"/>
      <point x="10" y="7"/>
    </contour>
  </outline>
</glyph>
<glyph name="four.osf" format="2">
  <advance height="2310" width="984"/>
  <outline>
    <contour>
      <point x="936" y="-296" type="curve" smooth="yes"/>
      <point x="936" y="-424" type="line" smooth="yes"/>
      <point x="936" y="-457"/>
      <point x="928" y="-460"/>
      <point x="894" y="-460" type="curve" smooth="yes"/>
      <point x="362" y="-460" type="line" smooth="yes"/>
      <point x="315" y="-460"/>
      <point x="306" y="-459"/>
      <point x="306" y="-412" type="curve" smooth="yes"/>
      <point x="306" y="-295" type="line" smooth="yes"/>
      <point x="306" y="-259"/>
      <point x="313" y="-250"/>
      <point x="350" y="-250" type="curve" smooth="yes"/>
      <point x="399" y="-250" type="line" smooth="yes"/>
      <point x="443" y="-250"/>
      <point x="446" y="-243"/>
      <point x="446" y="-198" type="curve" smooth="yes"/>
      <point x="446" y="-53" type="line" smooth="yes"/>
      <point x="446" y="1"/>
      <point x="446" y="1"/>
      <point x="392" y="1" type="curve" smooth="yes"/>
      <point x="94" y="1" type="line" smooth="yes"/>
      <point x="51" y="1"/>
      <point x="51" y="9"/>
      <point x="37" y="35" type="curve" smooth="yes"/>
      <point x="6" y="93" type="line" smooth="yes"/>
      <point x="-6" y="114"/>
      <point x="1" y="123"/>
      <point x="12" y="145" type="curve" smooth="yes"/>
      <point x="169" y="459"/>
      <point x="381" y="588"/>
      <point x="484" y="984" type="curve" smooth="yes"/>
      <point x="495" y="1026"/>
      <point x="496" y="1040"/>
      <point x="552" y="1040" type="curve" smooth="yes"/>
      <point x="822" y="1040" type="line" smooth="yes"/>
      <point x="875" y="1040"/>
      <point x="884" y="1035"/>
      <point x="876" y="988" type="curve" smooth="yes"/>
      <point x="812" y="602"/>
      <point x="533" y="481"/>
      <point x="337" y="262" type="curve" smooth="yes"/>
      <point x="310" y="232"/>
      <point x="285" y="211"/>
      <point x="363" y="211" type="curve" smooth="yes"/>
      <point x="408" y="211" type="line" smooth="yes"/>
      <point x="443" y="211"/>
      <point x="446" y="217"/>
      <point x="446" y="243" type="curve" smooth="yes"/>
      <point x="446" y="250" type="line" smooth="yes"/>
      <point x="446" y="297"/>
      <point x="457" y="294"/>
      <point x="488" y="311" type="curve" smooth="yes"/>
      <point x="554" y="346"/>
      <point x="643" y="394"/>
      <point x="684" y="480" type="curve" smooth="yes"/>
      <point x="693" y="500"/>
      <point x="699" y="510"/>
      <point x="730" y="510" type="curve" smooth="yes"/>
      <point x="796" y="510" type="line" smooth="yes"/>
      <point x="827" y="510"/>
      <point x="836" y="509"/>
      <point x="836" y="478" type="curve" smooth="yes"/>
      <point x="836" y="269" type="line" smooth="yes"/>
      <point x="836" y="236"/>
      <point x="845" y="211"/>
      <point x="882" y="211" type="curve" smooth="yes"/>
      <point x="930" y="211" type="line" smooth="yes"/>
      <point x="962" y="211"/>
      <point x="966" y="203"/>
      <point x="966" y="173" type="curve" smooth="yes"/>
      <point x="966" y="57" type="line" smooth="yes"/>
      <point x="966" y="11"/>
      <point x="966" y="1"/>
      <point x="920" y="1" type="curve" smooth="yes"/>
      <point x="890" y="1" type="line" smooth="yes"/>
      <point x="849" y="1"/>
      <point x="836" y="-3"/>
      <point x="836" y="-47" type="curve" smooth="yes"/>
      <point x="836" y="-198" type="line" smooth="yes"/>
      <point x="836" y="-243"/>
      <point x="841" y="-250"/>
      <point x="888" y="-250" type="curve" smooth="yes"/>
      <point x="892" y="-250" type="line" smooth="yes"/>
      <point x="931" y="-250"/>
      <point x="936" y="-256"/>
    </contour>
  </outline>
</glyph>
<glyph name="hyphen.sc" format="2">
  <advance width="920"/>
  <outline>
    <contour>
      <point x="154" y="650" type="curve" smooth="yes"/>
      <point x="766" y="650" type="line" smooth="yes"/>
      <point x="781" y="650"/>
      <point x="790" y="647"/>
      <point x="794" y="642" type="curve" smooth="yes"/>
      <point x="798" y="637"/>
      <point x="800" y="627"/>
      <point x="800" y="611" type="curve" smooth="yes"/>
      <point x="800" y="461" type="line" smooth="yes"/>
      <point x="800" y="444"/>
      <point x="798" y="433"/>
      <point x="795" y="428" type="curve" smooth="yes"/>
      <point x="792" y="423"/>
      <point x="781" y="420"/>
      <point x="764" y="420" type="curve" smooth="yes"/>
      <point x="162" y="420" type="line" smooth="yes"/>
      <point x="144" y="420"/>
      <point x="133" y="422"/>
      <point x="128" y="427" type="curve" smooth="yes"/>
      <point x="123" y="432"/>
      <point x="120" y="443"/>
      <point x="120" y="460" type="curve" smooth="yes"/>
      <point x="120" y="609" type="line" smooth="yes"/>
      <point x="120" y="625"/>
      <point x="122" y="636"/>
      <point x="125" y="642" type="curve" smooth="yes"/>
      <point x="128" y="648"/>
      <point x="138" y="650"/>
    </contour>
  </outline>
</glyph>
<glyph name="one.osf" format="2">
  <advance height="2310" width="920"/>
  <outline>
    <contour>
      <point x="70" y="65" type="curve" smooth="yes"/>
      <point x="70" y="166" type="line" smooth="yes"/>
      <point x="70" y="208"/>
      <point x="80" y="210"/>
      <point x="123" y="210" type="curve" smooth="yes"/>
      <point x="215" y="210" type="line" smooth="yes"/>
      <point x="264" y="210"/>
      <point x="270" y="217"/>
      <point x="270" y="264" type="curve" smooth="yes"/>
      <point x="270" y="563" type="line" smooth="yes"/>
      <point x="270" y="603"/>
      <point x="261" y="610"/>
      <point x="223" y="610" type="curve" smooth="yes"/>
      <point x="149" y="610" type="line" smooth="yes"/>
      <point x="116" y="610"/>
      <point x="104" y="613"/>
      <point x="104" y="649" type="curve" smooth="yes"/>
      <point x="104" y="769" type="line" smooth="yes"/>
      <point x="104" y="823"/>
      <point x="136.043" y="818.764"/>
      <point x="183" y="821" type="curve" smooth="yes"/>
      <point x="267" y="825"/>
      <point x="356" y="850"/>
      <point x="449" y="1025" type="curve" smooth="yes"/>
      <point x="466" y="1057"/>
      <point x="471" y="1070"/>
      <point x="523" y="1070" type="curve" smooth="yes"/>
      <point x="609" y="1070" type="line" smooth="yes"/>
      <point x="652" y="1070"/>
      <point x="660" y="1065"/>
      <point x="660" y="1024" type="curve" smooth="yes"/>
      <point x="660" y="266" type="line" smooth="yes"/>
      <point x="660" y="212"/>
      <point x="670" y="210"/>
      <point x="725" y="210" type="curve" smooth="yes"/>
      <point x="797" y="210" type="line" smooth="yes"/>
      <point x="830" y="210"/>
      <point x="850" y="206"/>
      <point x="850" y="170" type="curve" smooth="yes"/>
      <point x="850" y="59" type="line" smooth="yes"/>
      <point x="850" y="10"/>
      <point x="848" y="0"/>
      <point x="799" y="0" type="curve" smooth="yes"/>
      <point x="135" y="0" type="line" smooth="yes"/>
      <point x="77" y="0"/>
      <point x="70" y="5"/>
    </contour>
  </outline>
</glyph>
<glyph name="one.tosf" format="2">
  <advance height="2310" width="1100"/>
  <outline>
    <contour>
      <point x="160" y="65" type="curve" smooth="yes"/>
      <point x="160" y="166" type="line" smooth="yes"/>
      <point x="160" y="208"/>
      <point x="170" y="210"/>
      <point x="213" y="210" type="curve" smooth="yes"/>
      <point x="305" y="210" type="line" smooth="yes"/>
      <point x="354" y="210"/>
      <point x="360" y="217"/>
      <point x="360" y="264" type="curve" smooth="yes"/>
      <point x="360" y="563" type="line" smooth="yes"/>
      <point x="360" y="603"/>
      <point x="351" y="610"/>
      <point x="313" y="610" type="curve" smooth="yes"/>
      <point x="239" y="610" type="line" smooth="yes"/>
      <point x="206" y="610"/>
      <point x="194" y="613"/>
      <point x="194" y="649" type="curve" smooth="yes"/>
      <point x="194" y="769" type="line" smooth="yes"/>
      <point x="194" y="823"/>
      <point x="226.043" y="818.764"/>
      <point x="273" y="821" type="curve" smooth="yes"/>
      <point x="357" y="825"/>
      <point x="446" y="850"/>
      <point x="539" y="1025" type="curve" smooth="yes"/>
      <point x="556" y="1057"/>
      <point x="561" y="1070"/>
      <point x="613" y="1070" type="curve" smooth="yes"/>
      <point x="699" y="1070" type="line" smooth="yes"/>
      <point x="742" y="1070"/>
      <point x="750" y="1065"/>
      <point x="750" y="1024" type="curve" smooth="yes"/>
      <point x="750" y="266" type="line" smooth="yes"/>
      <point x="750" y="212"/>
      <point x="760" y="210"/>
      <point x="815" y="210" type="curve" smooth="yes"/>
      <point x="887" y="210" type="line" smooth="yes"/>
      <point x="920" y="210"/>
      <point x="940" y="206"/>
      <point x="940" y="170" type="curve" smooth="yes"/>
      <point x="940" y="59" type="line" smooth="yes"/>
      <point x="940" y="10"/>
      <point x="938" y="0"/>
      <point x="889" y="0" type="curve" smooth="yes"/>
      <point x="225" y="0" type="line" smooth="yes"/>
      <point x="167" y="0"/>
      <point x="160" y="5"/>
    </contour>
  </outline>
</glyph>
<glyph name="q.sc" format="2">
  <advance width="1490"/>
  <anchor x="733" y="1036" name="Anchor-0"/>
  <outline>
    <contour>
      <point x="49" y="519" type="curve" smooth="yes"/>
      <point x="49" y="892"/>
      <point x="353" y="1070"/>
      <point x="736" y="1070" type="curve" smooth="yes"/>
      <point x="1119" y="1070"/>
      <point x="1423" y="894"/>
      <point x="1423" y="522" type="curve" smooth="yes"/>
      <point x="1423" y="297"/>
      <point x="1283" y="150"/>
      <point x="1121" y="69" type="curve" smooth="yes"/>
      <point x="1079" y="47"/>
      <point x="1075" y="43"/>
      <point x="1120" y="20" type="curve" smooth="yes"/>
      <point x="1137" y="11"/>
      <point x="1157" y="7"/>
      <point x="1178" y="7" type="curve" smooth="yes"/>
      <point x="1260" y="7"/>
      <point x="1304" y="57"/>
      <point x="1314" y="135" type="curve" smooth="yes"/>
      <point x="1315" y="140"/>
      <point x="1322" y="143"/>
      <point x="1337" y="143" type="curve" smooth="yes"/>
      <point x="1453" y="143" type="line" smooth="yes"/>
      <point x="1496" y="143"/>
      <point x="1513" y="139"/>
      <point x="1507" y="97" type="curve" smooth="yes"/>
      <point x="1486" y="-82"/>
      <point x="1404" y="-299"/>
      <point x="1207" y="-299" type="curve" smooth="yes"/>
      <point x="1034" y="-299"/>
      <point x="978" y="-172"/>
      <point x="926" y="-50" type="curve" smooth="yes"/>
      <point x="916" y="-26"/>
      <point x="910" y="-17"/>
      <point x="877" y="-21" type="curve" smooth="yes"/>
      <point x="833" y="-29"/>
      <point x="787" y="-33"/>
      <point x="739" y="-33" type="curve" smooth="yes"/>
      <point x="355" y="-33"/>
      <point x="49" y="146"/>
    </contour>
    <contour>
      <point x="941" y="332" type="curve" smooth="yes"/>
      <point x="952" y="383"/>
      <point x="958" y="441"/>
      <point x="958" y="504" type="curve" smooth="yes"/>
      <point x="958" y="689"/>
      <point x="910" y="846"/>
      <point x="736" y="846" type="curve" smooth="yes"/>
      <point x="565" y="846"/>
      <point x="514" y="700"/>
      <point x="514" y="520" type="curve" smooth="yes"/>
      <point x="514" y="485"/>
      <point x="515" y="450"/>
      <point x="520" y="420" type="curve" smooth="yes"/>
      <point x="526" y="380"/>
      <point x="525" y="391"/>
      <point x="551" y="416" type="curve" smooth="yes"/>
      <point x="586" y="451"/>
      <point x="645" y="475"/>
      <point x="717" y="475" type="curve" smooth="yes"/>
      <point x="810" y="475"/>
      <point x="863" y="413"/>
      <point x="902" y="353" type="curve" smooth="yes"/>
      <point x="916" y="331"/>
      <point x="933" y="286"/>
    </contour>
    <contour>
      <point x="673" y="277" type="curve" smooth="yes"/>
      <point x="647" y="277"/>
      <point x="625" y="274"/>
      <point x="607" y="266" type="curve" smooth="yes"/>
      <point x="580" y="254"/>
      <point x="576" y="240"/>
      <point x="596" y="223" type="curve" smooth="yes"/>
      <point x="631" y="195"/>
      <point x="673" y="176"/>
      <point x="734" y="176" type="curve" smooth="yes"/>
      <point x="753" y="176"/>
      <point x="769" y="177"/>
      <point x="785" y="180" type="curve" smooth="yes"/>
      <point x="811" y="187"/>
      <point x="816" y="199"/>
      <point x="800" y="218" type="curve" smooth="yes"/>
      <point x="772" y="252"/>
      <point x="733" y="277"/>
    </contour>
  </outline>
</glyph>
<glyph name="seven.osf" format="2">
  <advance height="2310" width="1027"/>
  <outline>
    <contour>
      <point x="0.463" y="522" type="curve" smooth="yes"/>
      <point x="10.463" y="887"/>
      <point x="119.463" y="1060"/>
      <point x="320.463" y="1060" type="curve" smooth="yes"/>
      <point x="514.463" y="1060"/>
      <point x="534.463" y="940"/>
      <point x="700.463" y="940" type="curve" smooth="yes"/>
      <point x="768.463" y="940"/>
      <point x="801.463" y="967"/>
      <point x="821.463" y="1011" type="curve" smooth="yes"/>
      <point x="829.463" y="1029"/>
      <point x="832.463" y="1040"/>
      <point x="860.463" y="1040" type="curve" smooth="yes"/>
      <point x="989.463" y="1040" type="line" smooth="yes"/>
      <point x="1024.463" y="1040"/>
      <point x="1030.463" y="1033"/>
      <point x="1025.463" y="1000" type="curve" smooth="yes"/>
      <point x="1002.463" y="845"/>
      <point x="841.463" y="533"/>
      <point x="696.463" y="296" type="curve" smooth="yes"/>
      <point x="592.696" y="126.396"/>
      <point x="548.463" y="72"/>
      <point x="548.463" y="4" type="curve" smooth="yes"/>
      <point x="548.463" y="-92"/>
      <point x="724.463" y="-92"/>
      <point x="724.463" y="-244" type="curve" smooth="yes"/>
      <point x="724.463" y="-358"/>
      <point x="654.463" y="-480"/>
      <point x="496.463" y="-480" type="curve" smooth="yes"/>
      <point x="348.463" y="-480"/>
      <point x="234.463" y="-386"/>
      <point x="234.463" y="-208" type="curve" smooth="yes"/>
      <point x="234.463" y="-30"/>
      <point x="331.146" y="80.104"/>
      <point x="458.463" y="302" type="curve" smooth="yes"/>
      <point x="528.463" y="424"/>
      <point x="568.463" y="505"/>
      <point x="664.463" y="640" type="curve" smooth="yes"/>
      <point x="693.463" y="681"/>
      <point x="718.463" y="716"/>
      <point x="708.463" y="726" type="curve" smooth="yes"/>
      <point x="693.463" y="741"/>
      <point x="663.061" y="705.315"/>
      <point x="640.463" y="676" type="curve" smooth="yes"/>
      <point x="603.463" y="628"/>
      <point x="564.463" y="616"/>
      <point x="510.463" y="616" type="curve" smooth="yes"/>
      <point x="420.463" y="616"/>
      <point x="420.463" y="674"/>
      <point x="338.463" y="674" type="curve" smooth="yes"/>
      <point x="271.463" y="674"/>
      <point x="186.463" y="622"/>
      <point x="176.463" y="520" type="curve" smooth="yes"/>
      <point x="174.463" y="497"/>
      <point x="181.463" y="486"/>
      <point x="153.463" y="486" type="curve" smooth="yes"/>
      <point x="37.463" y="486" type="line" smooth="yes"/>
      <point x="7.463" y="486"/>
      <point x="-0.537" y="494"/>
    </contour>
  </outline>
</glyph>
<glyph name="six.osf" format="2">
  <advance height="2310" width="1010"/>
  <outline>
    <contour>
      <point x="586" y="1342" type="curve" smooth="yes"/>
      <point x="586" y="1358"/>
      <point x="576" y="1366"/>
      <point x="558" y="1366" type="curve" smooth="yes"/>
      <point x="460" y="1366"/>
      <point x="454" y="1197"/>
      <point x="434" y="864" type="curve" smooth="yes"/>
      <point x="432" y="829"/>
      <point x="427" y="815"/>
      <point x="434" y="811" type="curve" smooth="yes"/>
      <point x="443" y="806"/>
      <point x="453.004" y="817.422"/>
      <point x="467" y="842" type="curve" smooth="yes"/>
      <point x="508" y="914"/>
      <point x="572" y="960"/>
      <point x="662" y="960" type="curve" smooth="yes"/>
      <point x="884" y="960"/>
      <point x="980" y="810"/>
      <point x="980" y="500" type="curve" smooth="yes"/>
      <point x="980" y="130"/>
      <point x="810" y="-20"/>
      <point x="508" y="-20" type="curve" smooth="yes"/>
      <point x="186" y="-20"/>
      <point x="30" y="170"/>
      <point x="30" y="740" type="curve" smooth="yes"/>
      <point x="30" y="1220"/>
      <point x="186" y="1520"/>
      <point x="558" y="1520" type="curve" smooth="yes"/>
      <point x="832" y="1520"/>
      <point x="930" y="1376"/>
      <point x="930" y="1222" type="curve" smooth="yes"/>
      <point x="930" y="1086"/>
      <point x="851" y="990"/>
      <point x="712" y="990" type="curve" smooth="yes"/>
      <point x="578" y="990"/>
      <point x="488" y="1062"/>
      <point x="488" y="1176" type="curve" smooth="yes"/>
      <point x="488" y="1288"/>
      <point x="586" y="1316"/>
    </contour>
    <contour>
      <point x="580" y="470" type="curve" smooth="yes"/>
      <point x="580" y="658"/>
      <point x="546" y="722"/>
      <point x="508" y="722" type="curve" smooth="yes"/>
      <point x="472" y="722"/>
      <point x="430" y="620"/>
      <point x="430" y="460" type="curve" smooth="yes"/>
      <point x="430" y="302"/>
      <point x="450" y="210"/>
      <point x="508" y="210" type="curve" smooth="yes"/>
      <point x="556" y="210"/>
      <point x="580" y="292"/>
    </contour>
  </outline>
</glyph>
<glyph name="three.osf" format="2">
  <advance height="2310" width="960"/>
  <outline>
    <contour>
      <point x="50" y="-112" type="curve" smooth="yes"/>
      <point x="50" y="24"/>
      <point x="140" y="130"/>
      <point x="288" y="130" type="curve" smooth="yes"/>
      <point x="422" y="130"/>
      <point x="492" y="58"/>
      <point x="492" y="-36" type="curve" smooth="yes"/>
      <point x="492" y="-188"/>
      <point x="357" y="-198"/>
      <point x="357" y="-244" type="curve" smooth="yes"/>
      <point x="357" y="-278"/>
      <point x="394" y="-296"/>
      <point x="422" y="-296" type="curve" smooth="yes"/>
      <point x="500" y="-296"/>
      <point x="528" y="-248"/>
      <point x="528" y="-40" type="curve" smooth="yes"/>
      <point x="528" y="96"/>
      <point x="479" y="195"/>
      <point x="406" y="210" type="curve" smooth="yes"/>
      <point x="368.662" y="217.672"/>
      <point x="354" y="203"/>
      <point x="354" y="247" type="curve" smooth="yes"/>
      <point x="354" y="378" type="line" smooth="yes"/>
      <point x="354" y="417"/>
      <point x="363.332" y="406.389"/>
      <point x="397" y="412" type="curve" smooth="yes"/>
      <point x="481" y="426"/>
      <point x="508" y="535"/>
      <point x="508" y="682" type="curve" smooth="yes"/>
      <point x="508" y="830"/>
      <point x="470" y="886"/>
      <point x="402" y="886" type="curve" smooth="yes"/>
      <point x="374" y="886"/>
      <point x="338" y="870"/>
      <point x="338" y="836" type="curve" smooth="yes"/>
      <point x="338" y="790"/>
      <point x="472" y="800"/>
      <point x="472" y="658" type="curve" smooth="yes"/>
      <point x="472" y="574"/>
      <point x="392" y="492"/>
      <point x="268" y="492" type="curve" smooth="yes"/>
      <point x="150" y="492"/>
      <point x="30" y="568"/>
      <point x="30" y="714" type="curve" smooth="yes"/>
      <point x="30" y="908"/>
      <point x="188" y="1060"/>
      <point x="492" y="1060" type="curve" smooth="yes"/>
      <point x="764" y="1060"/>
      <point x="910" y="912"/>
      <point x="910" y="682" type="curve" smooth="yes"/>
      <point x="910" y="538"/>
      <point x="835" y="428"/>
      <point x="734" y="358" type="curve" smooth="yes"/>
      <point x="696.05" y="331.698"/>
      <point x="660" y="329"/>
      <point x="660" y="315" type="curve" smooth="yes"/>
      <point x="660" y="298"/>
      <point x="683.935" y="298.729"/>
      <point x="734" y="272" type="curve" smooth="yes"/>
      <point x="852" y="209"/>
      <point x="930" y="101"/>
      <point x="930" y="-60" type="curve" smooth="yes"/>
      <point x="930" y="-360"/>
      <point x="734" y="-480"/>
      <point x="432" y="-480" type="curve" smooth="yes"/>
      <point x="148" y="-480"/>
      <point x="50" y="-306"/>
    </contour>
  </outline>
</glyph>
